<svg width="100" height="100" viewBox="0 0 100 100" fill="none" xmlns="http://www.w3.org/2000/svg">
<rect width="100" height="100" fill="white"/>
<mask id="mask0" mask-type="alpha" maskUnits="userSpaceOnUse" x="0" y="24" width="100" height="52">
<rect x="1" y="25.1428" width="93.7143" height="49.4286" rx="4" stroke="black" stroke-width="2"/>
<path d="M95.7143 41.2858H98C99.1046 41.2858 100 42.1812 100 43.2858V56.4286C100 57.5332 99.1046 58.4286 98 58.4286H95.7143V41.2858Z" fill="black"/>
<path d="M88.67 67.4778V32.532C88.67 31.9797 88.2222 31.532 87.67 31.532H55.7143H38.5714H8.38917C7.83688 31.532 7.38917 31.9797 7.38917 32.532V67.4778C7.38917 68.0301 7.83688 68.4778 8.38917 68.4778H47.1429H87.67C88.2222 68.4778 88.67 68.0301 88.67 67.4778Z" fill="black"/>
</mask>
<g mask="url(#mask0)">
<path d="M-20 9.85718H122.857V88.4286H-20V9.85718Z" fill="url(#paint0_linear)"/>
</g>
<mask id="mask1" mask-type="alpha" maskUnits="userSpaceOnUse" x="22" y="9" width="53" height="82">
<path d="M22.3718 52.1503L48.4323 9.99361C48.9619 9.13684 50.2829 9.51217 50.2829 10.5194V45.8868C50.2829 46.4391 50.7306 46.8868 51.2829 46.8868H73.0541C73.8469 46.8868 74.3245 47.7654 73.8932 48.4307L47.0301 89.8767C46.4883 90.7126 45.1909 90.3289 45.1909 89.3328V54.6761C45.1909 54.1238 44.7432 53.6761 44.1909 53.6761H23.2224C22.4392 53.6761 21.96 52.8165 22.3718 52.1503Z" fill="white"/>
</mask>
<g mask="url(#mask1)">
<path d="M-20 9.85718H125.503V88.4286H-20V9.85718Z" fill="white"/>
</g>
<mask id="mask2" mask-type="alpha" maskUnits="userSpaceOnUse" x="25" y="15" width="46" height="69">
<path d="M25.6606 50.4739L46.7209 16.4206C47.2507 15.564 48.5714 15.9394 48.5714 16.9466V47.4285C48.5714 47.9808 49.0191 48.4285 49.5714 48.4285H69.599C70.3897 48.4285 70.8676 49.3029 70.4407 49.9684L49.0284 83.3464C48.4857 84.1924 47.1741 83.7989 47.1868 82.7939L47.5612 53.0125C47.5682 52.4553 47.1185 51.9999 46.5613 51.9999H26.511C25.7277 51.9999 25.2485 51.1401 25.6606 50.4739Z" fill="black"/>
</mask>
<g mask="url(#mask2)">
<path d="M-20 11.2858H125.503V89.8572H-20V11.2858Z" fill="url(#paint1_linear)"/>
</g>
<defs>
<linearGradient id="paint0_linear" x1="51.4286" y1="9.85718" x2="51.4286" y2="88.4286" gradientUnits="userSpaceOnUse">
<stop stop-color="#AD00FF"/>
<stop offset="1" stop-color="#0057FF"/>
</linearGradient>
<linearGradient id="paint1_linear" x1="52.7513" y1="11.2858" x2="52.7513" y2="89.8572" gradientUnits="userSpaceOnUse">
<stop stop-color="#AD00FF"/>
<stop offset="1" stop-color="#0057FF"/>
</linearGradient>
</defs>
</svg>
