<svg width="80" height="69" viewBox="0 0 80 69" fill="none" xmlns="http://www.w3.org/2000/svg">
<mask id="mask0" mask-type="alpha" maskUnits="userSpaceOnUse" x="0" y="13" width="80" height="42">
<rect x="1" y="14.7142" width="74.5714" height="39.1429" rx="4" stroke="black" stroke-width="2"/>
<path d="M76.5714 27.4286H78C79.1046 27.4286 80 28.324 80 29.4286V39.1429C80 40.2474 79.1046 41.1429 78 41.1429H76.5714V27.4286Z" fill="black"/>
<path d="M70.936 48.1823V20.6256C70.936 20.0733 70.4883 19.6256 69.936 19.6256H44.5714H30.8571H6.91133C6.35905 19.6256 5.91133 20.0733 5.91133 20.6256V48.1823C5.91133 48.7345 6.35905 49.1823 6.91133 49.1823H37.7143H69.936C70.4883 49.1823 70.936 48.7345 70.936 48.1823Z" fill="black"/>
</mask>
<g mask="url(#mask0)">
<path d="M-16 2.28577H98.2857V65.1429H-16V2.28577Z" fill="url(#paint0_linear)"/>
</g>
<mask id="mask1" mask-type="alpha" maskUnits="userSpaceOnUse" x="17" y="2" width="43" height="65">
<path d="M18.0861 35.8151L38.3757 2.99361C38.9054 2.13684 40.2263 2.51217 40.2263 3.51943V30.9095C40.2263 31.4618 40.674 31.9095 41.2263 31.9095H58.0753C58.8682 31.9095 59.3457 32.788 58.9145 33.4534L37.9919 65.7339C37.4501 66.5698 36.1528 66.1861 36.1528 65.19V38.3409C36.1528 37.7886 35.705 37.3409 35.1528 37.3409H18.9367C18.1535 37.3409 17.6743 36.4813 18.0861 35.8151Z" fill="white"/>
</mask>
<g mask="url(#mask1)">
<path d="M-16 2.28577H100.402V65.1429H-16V2.28577Z" fill="white"/>
</g>
<mask id="mask2" mask-type="alpha" maskUnits="userSpaceOnUse" x="20" y="7" width="37" height="54">
<path d="M20.7172 34.474L37.0067 8.13495C37.5364 7.27837 38.8571 7.65378 38.8571 8.66094V32.1428C38.8571 32.6951 39.3049 33.1428 39.8571 33.1428H55.3133C56.104 33.1428 56.5819 34.0172 56.155 34.6828L39.5998 60.4893C39.0571 61.3353 37.7456 60.9418 37.7582 59.9368L38.0464 37.0125C38.0534 36.4554 37.6037 36 37.0465 36H21.5677C20.7844 36 20.3052 35.1402 20.7172 34.474Z" fill="black"/>
</mask>
<g mask="url(#mask2)">
<path d="M-16 3.42859H100.402V66.2857H-16V3.42859Z" fill="url(#paint1_linear)"/>
</g>
<defs>
<linearGradient id="paint0_linear" x1="41.1429" y1="2.28577" x2="41.1429" y2="65.1429" gradientUnits="userSpaceOnUse">
<stop stop-color="#AD00FF"/>
<stop offset="1" stop-color="#0057FF"/>
</linearGradient>
<linearGradient id="paint1_linear" x1="42.2011" y1="3.42859" x2="42.2011" y2="66.2857" gradientUnits="userSpaceOnUse">
<stop stop-color="#AD00FF"/>
<stop offset="1" stop-color="#0057FF"/>
</linearGradient>
</defs>
</svg>
