<svg width="52" height="38" viewBox="0 0 52 38" fill="none" xmlns="http://www.w3.org/2000/svg">
<mask id="mask0" mask-type="alpha" maskUnits="userSpaceOnUse" x="0" y="0" width="52" height="38">
<path d="M0.909092 1.90906H6.0169C6.84796 1.90906 7.59242 2.42299 7.88702 3.20008L9.63779 7.81817M9.63779 7.81817L16.3872 30.0359C16.6432 30.8785 17.4202 31.4545 18.3009 31.4545L42.7273 31.4545M9.63779 7.81817H48.9061C50.3097 7.81817 51.2767 9.22612 50.7728 10.5361L45.4931 24.2634C45.196 25.0358 44.4539 25.5454 43.6264 25.5454H15.0231" stroke="black" stroke-width="2"/>
<circle cx="19.7727" cy="35.3182" r="1.55682" stroke="black" stroke-width="1.75"/>
<circle cx="40.6818" cy="35.3182" r="1.55682" stroke="black" stroke-width="1.75"/>
<path d="M0.909091 1.90909C0.909091 2.41117 0.909091 2.36364 0.909091 2.81818C0.407014 2.81818 0 2.41117 0 1.90909C0 1.40701 0.407014 1 0.909091 1C0.909091 1.90909 0.909091 1.40701 0.909091 1.90909Z" fill="black"/>
<path d="M42.7273 31.4545C42.7273 31.9566 42.7273 31.909 42.7273 32.3636C43.2294 32.3636 43.6364 31.9566 43.6364 31.4545C43.6364 30.9524 43.2294 30.5454 42.7273 30.5454C42.7273 31.4545 42.7273 30.9524 42.7273 31.4545Z" fill="black"/>
</mask>
<g mask="url(#mask0)">
<path d="M-19.0909 0.0909424H71.8182V38.2728H-19.0909V0.0909424Z" fill="url(#paint0_linear)"/>
</g>
<defs>
<linearGradient id="paint0_linear" x1="26.3636" y1="0.0909424" x2="26.3636" y2="38.2728" gradientUnits="userSpaceOnUse">
<stop stop-color="#AD00FF"/>
<stop offset="1" stop-color="#0057FF"/>
</linearGradient>
</defs>
</svg>
