<svg width="100" height="100" viewBox="0 0 100 100" fill="none" xmlns="http://www.w3.org/2000/svg">
<rect width="100" height="100" fill="white"/>
<mask id="mask0" mask-type="alpha" maskUnits="userSpaceOnUse" x="0" y="0" width="100" height="100">
<mask id="path-2-inside-1" mask-type="luminance" fill="white">
<rect x="25" y="25" width="50" height="50" rx="2"/>
</mask>
<rect x="25" y="25" width="50" height="50" rx="2" stroke="black" stroke-width="6" mask="url(#path-2-inside-1)"/>
<rect x="17.6667" y="17.6666" width="64.6667" height="64.6667" rx="4" stroke="black" stroke-width="2"/>
<path d="M23.3333 1.5C23.3333 0.671571 24.0049 0 24.8333 0C25.6617 0 26.3333 0.671573 26.3333 1.5V16.6667H23.3333V1.5Z" fill="black"/>
<path d="M31.6666 1.5C31.6666 0.671571 32.3382 0 33.1666 0C33.9951 0 34.6666 0.671573 34.6666 1.5V16.6667H31.6666V1.5Z" fill="black"/>
<path d="M40 1.5C40 0.671571 40.6715 0 41.5 0C42.3284 0 43 0.671573 43 1.5V16.6667H40V1.5Z" fill="black"/>
<path d="M48.3333 1.5C48.3333 0.671571 49.0049 0 49.8333 0C50.6617 0 51.3333 0.671573 51.3333 1.5V16.6667H48.3333V1.5Z" fill="black"/>
<path d="M56.6666 1.5C56.6666 0.671571 57.3382 0 58.1666 0C58.9951 0 59.6666 0.671573 59.6666 1.5V16.6667H56.6666V1.5Z" fill="black"/>
<path d="M65 1.5C65 0.671571 65.6715 0 66.5 0C67.3284 0 68 0.671573 68 1.5V16.6667H65V1.5Z" fill="black"/>
<path d="M73.3333 1.5C73.3333 0.671571 74.0049 0 74.8333 0C75.6617 0 76.3333 0.671573 76.3333 1.5V16.6667H73.3333V1.5Z" fill="black"/>
<path d="M23.3333 98.5C23.3333 99.3284 24.0049 100 24.8333 100C25.6617 100 26.3333 99.3284 26.3333 98.5V83.3333H23.3333V98.5Z" fill="black"/>
<path d="M31.6666 98.5C31.6666 99.3284 32.3382 100 33.1666 100C33.9951 100 34.6666 99.3284 34.6666 98.5V83.3333H31.6666V98.5Z" fill="black"/>
<path d="M40 98.5C40 99.3284 40.6715 100 41.5 100C42.3284 100 43 99.3284 43 98.5V83.3333H40V98.5Z" fill="black"/>
<path d="M48.3333 98.5C48.3333 99.3284 49.0049 100 49.8333 100C50.6617 100 51.3333 99.3284 51.3333 98.5V83.3333H48.3333V98.5Z" fill="black"/>
<path d="M56.6666 98.5C56.6666 99.3284 57.3382 100 58.1666 100C58.9951 100 59.6666 99.3284 59.6666 98.5V83.3333H56.6666V98.5Z" fill="black"/>
<path d="M65 98.5C65 99.3284 65.6715 100 66.5 100C67.3284 100 68 99.3284 68 98.5V83.3333H65V98.5Z" fill="black"/>
<path d="M73.3333 98.5C73.3333 99.3284 74.0049 100 74.8333 100C75.6617 100 76.3333 99.3284 76.3333 98.5V83.3333H73.3333V98.5Z" fill="black"/>
<path d="M1.5 76.6666C0.671571 76.6666 0 75.9951 0 75.1666C0 74.3382 0.671573 73.6666 1.5 73.6666H16.6667V76.6666H1.5Z" fill="black"/>
<path d="M1.5 68.3333C0.671571 68.3333 0 67.6617 0 66.8333C0 66.0048 0.671573 65.3333 1.5 65.3333H16.6667V68.3333H1.5Z" fill="black"/>
<path d="M1.5 60C0.671571 60 0 59.3284 0 58.5C0 57.6716 0.671573 57 1.5 57H16.6667V60H1.5Z" fill="black"/>
<path d="M1.5 51.6666C0.671571 51.6666 0 50.9951 0 50.1666C0 49.3382 0.671573 48.6666 1.5 48.6666H16.6667V51.6666H1.5Z" fill="black"/>
<path d="M1.5 43.3333C0.671571 43.3333 0 42.6617 0 41.8333C0 41.0048 0.671573 40.3333 1.5 40.3333H16.6667V43.3333H1.5Z" fill="black"/>
<path d="M1.5 35C0.671571 35 0 34.3284 0 33.5C0 32.6716 0.671573 32 1.5 32H16.6667V35H1.5Z" fill="black"/>
<path d="M1.5 26.6666C0.671571 26.6666 0 25.9951 0 25.1666C0 24.3382 0.671573 23.6666 1.5 23.6666H16.6667V26.6666H1.5Z" fill="black"/>
<path d="M98.5 76.6666C99.3284 76.6666 100 75.9951 100 75.1666C100 74.3382 99.3284 73.6666 98.5 73.6666H83.3333V76.6666H98.5Z" fill="black"/>
<path d="M98.5 68.3333C99.3284 68.3333 100 67.6617 100 66.8333C100 66.0048 99.3284 65.3333 98.5 65.3333H83.3333V68.3333H98.5Z" fill="black"/>
<path d="M98.5 60C99.3284 60 100 59.3284 100 58.5C100 57.6716 99.3284 57 98.5 57H83.3333V60H98.5Z" fill="black"/>
<path d="M98.5 51.6666C99.3284 51.6666 100 50.9951 100 50.1666C100 49.3382 99.3284 48.6666 98.5 48.6666H83.3333V51.6666H98.5Z" fill="black"/>
<path d="M98.5 43.3333C99.3284 43.3333 100 42.6617 100 41.8333C100 41.0048 99.3284 40.3333 98.5 40.3333H83.3333V43.3333H98.5Z" fill="black"/>
<path d="M98.5 35C99.3284 35 100 34.3284 100 33.5C100 32.6716 99.3284 32 98.5 32H83.3333V35H98.5Z" fill="black"/>
<path d="M98.5 26.6666C99.3284 26.6666 100 25.9951 100 25.1666C100 24.3382 99.3284 23.6666 98.5 23.6666H83.3333V26.6666H98.5Z" fill="black"/>
</mask>
<g mask="url(#mask0)">
<rect width="100" height="100" fill="url(#paint0_linear)"/>
</g>
<defs>
<linearGradient id="paint0_linear" x1="50" y1="0" x2="50" y2="100" gradientUnits="userSpaceOnUse">
<stop stop-color="#AD00FF"/>
<stop offset="1" stop-color="#0057FF"/>
</linearGradient>
</defs>
</svg>
