<svg width="100" height="60" viewBox="0 0 100 60" fill="none" xmlns="http://www.w3.org/2000/svg">
<mask id="mask0" mask-type="alpha" maskUnits="userSpaceOnUse" x="-1" y="-1" width="101" height="61">
<path d="M9.42859 7.98777H14.4048M14.4048 7.98777V6.76196C14.4048 5.65739 15.3002 4.76196 16.4048 4.76196H87.5107C87.9685 4.76196 88.4125 4.91901 88.7684 5.20689L98.2577 12.8814C98.7272 13.2611 99 13.8326 99 14.4364V44.334C99 44.9074 98.7539 45.4532 98.3243 45.8328L88.7855 54.2607C88.42 54.5837 87.9491 54.762 87.4613 54.762H16.4048C15.3002 54.762 14.4048 53.8665 14.4048 52.762V7.98777Z" stroke="black" stroke-width="2"/>
<path d="M0 0L9.0068 4.54889C9.3436 4.71899 9.55598 5.06419 9.55598 5.44151V11.6634M9.55598 59.5238V49.268M9.55598 32.175V45.8494V49.268M9.55598 32.175H5.77799C5.22571 32.175 4.77799 32.6228 4.77799 33.175V48.268C4.77799 48.8203 5.22571 49.268 5.77799 49.268H9.55598M9.55598 32.175V25.3378M9.55598 11.6634V18.5006V25.3378M9.55598 11.6634H5.77799C5.22571 11.6634 4.77799 12.1112 4.77799 12.6635V24.3378C4.77799 24.8901 5.22571 25.3378 5.77799 25.3378H9.55598" stroke="black" stroke-width="2"/>
<path d="M9.42859 54.762H17.6786" stroke="black" stroke-width="2"/>
<path d="M76.4479 33.175C77.8892 33.175 79.0406 31.9975 79.0406 30.5663C79.0406 29.135 77.8892 27.9575 76.4479 27.9575C75.0065 27.9575 73.8552 29.135 73.8552 30.5663C73.8552 31.9975 75.0065 33.175 76.4479 33.175Z" stroke="black" stroke-width="2"/>
<path d="M92.9097 29.1632C90.5348 28.4273 88.4993 28.0744 86.4306 28.094C83.9792 28.1173 81.5508 28.6635 78.5366 29.6124L79.1372 31.5201C82.0804 30.5935 84.2892 30.1144 86.4496 30.0939C88.4263 30.0751 90.4213 30.4401 92.9525 31.277C92.7856 35.3077 91.2056 38.967 88.7004 41.7651C87.5586 39.3265 86.4301 37.4276 85.0091 35.8461C83.3261 33.973 81.2861 32.6035 78.468 31.271L77.6131 33.079C80.2828 34.3414 82.0731 35.571 83.5214 37.1828C84.8728 38.6868 85.972 40.5736 87.1844 43.2556C84.6416 45.4557 81.4323 46.8871 77.9051 47.1985C78.7984 44.6522 79.2507 42.6029 79.2359 40.5374C79.2185 38.1053 78.5536 35.7454 77.3842 32.6282L75.5169 33.3286C75.6132 33.0559 75.7087 32.7769 75.8039 32.4913L73.9066 31.8587C72.9608 34.6955 72.0509 36.6541 70.7331 38.2586C69.4378 39.8356 67.6906 41.1397 64.9579 42.5621C62.1814 39.8454 60.3444 36.1522 59.9909 32.0268C62.3404 32.8571 64.2818 33.3084 66.3012 33.3146C68.7084 33.3219 71.1331 32.6963 74.4012 31.5059L73.7166 29.6267C70.5109 30.7944 68.3545 31.3208 66.3073 31.3146C64.4195 31.3088 62.5448 30.85 59.9422 29.8813C60.1092 25.6973 61.7984 21.9129 64.4635 19.0751C65.6979 21.7218 66.8816 23.6844 68.4086 25.3482C69.9655 27.0445 71.8332 28.3798 74.3584 29.8254L75.352 28.0896C72.9151 26.6946 71.2434 25.4791 69.8821 23.9958C68.5205 22.5123 67.4234 20.7108 66.2068 18.0808L64.7915 18.7355C67.4604 16.0497 71.0321 14.281 75.0032 13.933C74.1842 16.3128 73.7237 18.2737 73.7075 20.3122C73.6882 22.7398 74.2992 25.1854 75.5086 28.4962L77.3718 27.8156C77.2765 28.0859 77.1827 28.363 77.0899 28.6472L78.9912 29.2679C79.9409 26.3588 80.932 24.4671 82.352 23.0326C83.7761 21.5941 85.716 20.5297 88.7323 19.4413L88.7092 19.3772C91.0647 22.0119 92.601 25.4101 92.9097 29.1632ZM77.141 13.8844C80.9694 14.0443 84.4641 15.5219 87.1899 17.8819C84.503 18.9181 82.4978 20.0425 80.9307 21.6256C79.363 23.2091 78.3028 25.1816 77.3804 27.7914C76.2026 24.5642 75.6911 22.3915 75.7075 20.3281C75.7226 18.4175 76.1906 16.5221 77.141 13.8844ZM75.7612 47.2484C72.3304 47.1065 69.1673 45.9063 66.585 43.961C69.0779 42.5985 70.877 41.2343 72.2785 39.528C73.6735 37.8297 74.6263 35.8505 75.514 33.337C76.6626 36.3997 77.2212 38.4864 77.2359 40.5517C77.2497 42.4681 76.7953 44.4479 75.7612 47.2484Z" stroke="black" stroke-width="2"/>
<path d="M25.4827 27.3489H49.3726" stroke="black" stroke-width="2"/>
<path d="M25.4827 33.7838H49.3726" stroke="black" stroke-width="2"/>
<path d="M25.4827 40.2186H49.3726" stroke="black" stroke-width="2"/>
<path d="M25.4827 20.9138H49.3726" stroke="black" stroke-width="2"/>
</mask>
<g mask="url(#mask0)">
<path d="M0 0H108V60H0V0Z" fill="url(#paint0_linear)"/>
</g>
<defs>
<linearGradient id="paint0_linear" x1="54" y1="0" x2="54" y2="60" gradientUnits="userSpaceOnUse">
<stop stop-color="#AD00FF"/>
<stop offset="1" stop-color="#0057FF"/>
</linearGradient>
</defs>
</svg>
