<svg width="100" height="100" viewBox="0 0 100 100" fill="none" xmlns="http://www.w3.org/2000/svg">
<rect width="100" height="100" fill="white"/>
<mask id="mask0" mask-type="alpha" maskUnits="userSpaceOnUse" x="-1" y="19" width="101" height="61">
<path d="M9.42859 27.9878H14.4048M14.4048 27.9878V26.762C14.4048 25.6574 15.3002 24.762 16.4048 24.762H87.5107C87.9685 24.762 88.4125 24.919 88.7684 25.2069L98.2577 32.8814C98.7272 33.2611 99 33.8326 99 34.4364V64.334C99 64.9074 98.7539 65.4532 98.3243 65.8328L88.7855 74.2607C88.42 74.5837 87.9491 74.762 87.4613 74.762H16.4048C15.3002 74.762 14.4048 73.8665 14.4048 72.762V27.9878Z" stroke="black" stroke-width="2"/>
<path d="M0 20L9.0068 24.5489C9.3436 24.719 9.55598 25.0642 9.55598 25.4415V31.6634M9.55598 79.5238V69.268M9.55598 52.175V65.8494V69.268M9.55598 52.175H5.77799C5.22571 52.175 4.77799 52.6228 4.77799 53.175V68.268C4.77799 68.8203 5.22571 69.268 5.77799 69.268H9.55598M9.55598 52.175V45.3378M9.55598 31.6634V38.5006V45.3378M9.55598 31.6634H5.77799C5.22571 31.6634 4.77799 32.1112 4.77799 32.6635V44.3378C4.77799 44.8901 5.22571 45.3378 5.77799 45.3378H9.55598" stroke="black" stroke-width="2"/>
<path d="M9.42859 74.762H17.6786" stroke="black" stroke-width="2"/>
<path d="M76.4479 53.175C77.8892 53.175 79.0406 51.9975 79.0406 50.5663C79.0406 49.135 77.8892 47.9575 76.4479 47.9575C75.0065 47.9575 73.8552 49.135 73.8552 50.5663C73.8552 51.9975 75.0065 53.175 76.4479 53.175Z" stroke="black" stroke-width="2"/>
<path d="M92.9672 50.5663C92.9672 55.3914 90.9435 59.7355 87.7072 62.7836C84.755 65.5642 80.7981 67.2625 76.4479 67.2625C67.334 67.2625 59.9286 59.7969 59.9286 50.5663C59.9286 41.3357 67.334 33.87 76.4479 33.87C85.5618 33.87 92.9672 41.3357 92.9672 50.5663Z" stroke="black" stroke-width="2"/>
<path d="M25.4827 47.3489H49.3726" stroke="black" stroke-width="2"/>
<path d="M25.4827 53.7838H49.3726" stroke="black" stroke-width="2"/>
<path d="M25.4827 60.2186H49.3726" stroke="black" stroke-width="2"/>
<path d="M25.4827 40.9138H49.3726" stroke="black" stroke-width="2"/>
</mask>
<g mask="url(#mask0)">
<path d="M0 20H108V80H0V20Z" fill="url(#paint0_linear)"/>
</g>
<defs>
<linearGradient id="paint0_linear" x1="54" y1="20" x2="54" y2="80" gradientUnits="userSpaceOnUse">
<stop stop-color="#AD00FF"/>
<stop offset="1" stop-color="#0057FF"/>
</linearGradient>
</defs>
</svg>
