<svg width="1440" height="1024" viewBox="0 0 1440 1024" fill="none" xmlns="http://www.w3.org/2000/svg">
<path d="M732.255 608V818.03C732.255 822.543 730.728 826.924 727.923 830.46L688.588 880.04C685.782 883.576 684.255 887.957 684.255 892.47V947.338C684.255 951.353 685.464 955.275 687.723 958.594L732.255 1024M684.255 614V817.413C684.255 822.301 682.465 827.02 679.223 830.678L635.67 879.822C632.428 883.48 630.638 888.199 630.638 893.087V1024M788.936 614V818.506C788.936 822.727 790.271 826.839 792.751 830.255L829.037 880.245C831.516 883.661 832.851 887.773 832.851 891.993V953.5M630.638 608V707.359C630.638 712.28 628.824 717.027 625.544 720.694L581.605 769.806C578.324 773.473 576.511 778.22 576.511 783.141V947.23C576.511 951.312 575.262 955.296 572.931 958.648L527.489 1024M576.511 614V715M371.745 524.5V816.206C371.745 820.612 370.29 824.894 367.607 828.388L327.883 880.112C325.199 883.606 323.745 887.888 323.745 892.294V947.338C323.745 951.353 324.953 955.275 327.213 958.594L371.745 1024M428.426 524.5V816.438C428.426 820.701 429.787 824.852 432.313 828.286L470.496 880.214C473.021 883.648 474.383 887.799 474.383 892.062V1024M270.128 614V705.359C270.128 710.28 268.314 715.027 265.033 718.694L221.095 767.806C217.814 771.473 216 776.22 216 781.141V1024M216 713V612.712C216 609.613 216.72 606.557 218.103 603.784L268.024 503.716C269.408 500.943 270.128 497.887 270.128 494.788V324.513C270.128 319.658 268.361 314.969 265.158 311.32L220.969 260.978C217.766 257.329 216 252.64 216 247.785V7.13461M832.851 775.5L872.235 718.114C874.521 714.783 875.745 710.837 875.745 706.797V614M832.851 608V713M527.489 608V775.5M474.383 531V816.305C474.383 820.65 475.798 824.877 478.414 828.346L515.969 878.154C518.585 881.623 520 885.85 520 890.195V953.5M1035.57 1024L986.038 958.866C983.391 955.385 981.957 951.132 981.957 946.759V891.087C981.957 886.199 983.748 881.48 986.99 877.822L1030.54 828.678C1033.78 825.02 1035.57 820.301 1035.57 815.413V531M1083.57 1024V531M1193.36 1024V960.384C1193.36 955.923 1191.87 951.59 1189.12 948.074L1144.49 890.926C1141.75 887.41 1140.26 883.077 1140.26 878.616V524.5M875.745 1024L923.916 958.798C926.458 955.357 927.83 951.191 927.83 946.913V781.141C927.83 776.22 929.644 771.473 932.924 767.806L976.863 718.694C980.144 715.027 981.957 710.28 981.957 705.359V524.5M821 1024L871.541 958.913C874.266 955.404 875.745 951.089 875.745 946.647V782.741C875.745 778.062 877.385 773.532 880.38 769.937L923.194 718.563C926.189 714.968 927.83 710.438 927.83 705.759V614M270.128 1024V891.087C270.128 886.199 271.918 881.48 275.16 877.822L318.713 828.678C321.955 825.02 323.745 820.301 323.745 815.413V531M0 1024V717.729C0 714.619 0.725199 711.552 2.11798 708.772L52.5957 608M1280.17 608V705.75C1280.17 710.434 1278.53 714.97 1275.52 718.566L1228 775.5M1237.28 713V611.81C1237.28 609.293 1237.75 606.798 1238.68 604.457L1278.77 503.043C1279.69 500.702 1280.17 498.207 1280.17 495.69V316.981M1440 1024L1390.46 958.866C1387.82 955.385 1386.38 951.132 1386.38 946.759V891.087C1386.38 886.199 1388.17 881.48 1391.42 877.822L1434.97 828.678C1438.21 825.02 1440 820.301 1440 815.413V212.345C1440 207.522 1438.26 202.861 1435.09 199.221L1391.29 148.846C1388.13 145.206 1386.38 140.546 1386.38 135.723V79.064C1386.38 74.4052 1388.01 69.8925 1390.98 66.3049L1440 7.13461M1386.38 1024L1336.39 958.887C1333.71 955.394 1332.26 951.112 1332.26 946.708V781.141C1332.26 776.22 1334.07 771.473 1337.35 767.806L1381.29 718.694C1384.57 715.027 1386.38 710.28 1386.38 705.359V324.513C1386.38 319.658 1384.62 314.969 1381.41 311.32L1337.22 260.978C1334.02 257.329 1332.26 252.64 1332.26 247.785V78.5457C1332.26 74.204 1333.67 69.9801 1336.28 66.5122L1386.38 0M1332.26 1024L1284.08 958.798C1281.54 955.357 1280.17 951.191 1280.17 946.913V782.741C1280.17 778.062 1281.81 773.532 1284.81 769.937L1327.62 718.563C1330.61 714.968 1332.26 710.438 1332.26 705.759V324.116C1332.26 319.502 1330.66 315.029 1327.74 311.457L1284.69 258.803C1281.77 255.23 1280.17 250.758 1280.17 246.143V78.904C1280.17 74.3426 1281.73 69.9184 1284.59 66.3648L1332.26 7.13461M1237.28 953.5V891.993C1237.28 887.773 1235.94 883.661 1233.46 880.245L1197.18 830.255C1194.7 826.839 1193.36 822.727 1193.36 818.506V608V515.981V421.962V192.862C1193.36 187.512 1195.51 182.385 1199.31 178.626L1231.32 147.037C1235.13 143.279 1237.28 138.152 1237.28 132.801V71.8558M106.213 1024L150.745 958.594C153.004 955.275 154.213 951.353 154.213 947.338V613.295C154.213 609.825 155.116 606.414 156.833 603.398L213.38 504.102C215.097 501.086 216 497.675 216 494.205V316.981M52.5957 1024V891.087C52.5957 886.199 54.3858 881.48 57.6278 877.822L101.181 828.678C104.423 825.02 106.213 820.301 106.213 815.413V212.345C106.213 207.522 104.47 202.861 101.305 199.221L57.5032 148.846C54.3386 145.206 52.5957 140.546 52.5957 135.723V9.17308M576.511 414.5V314.942M1083.57 414.5V7.13461M1035.57 414.5V212.345C1035.57 207.522 1033.83 202.861 1030.67 199.221L986.865 148.846C983.7 145.206 981.957 140.546 981.957 135.723V79.064C981.957 74.4052 983.584 69.8925 986.556 66.3049L1035.57 7.13461M1140.26 421.962V149.545C1140.26 144.183 1142.41 139.046 1146.23 135.286L1204.75 77.7331C1208.57 73.9733 1210.72 68.836 1210.72 63.4741V7.13461M927.83 414.5V324.116C927.83 319.502 926.234 315.029 923.313 311.457L880.261 258.803C877.34 255.23 875.745 250.758 875.745 246.143V79.3755C875.745 74.528 873.984 69.8455 870.79 66.1988L819.064 7.13461M875.745 414.5V323.575C875.745 319.292 874.37 315.123 871.823 311.68L832.851 259M832.851 316.981V421.962M527.489 422.5V253.279M875.745 7.13461L923.411 66.3648C926.271 69.9184 927.83 74.3426 927.83 78.9039V247.785C927.83 252.64 929.596 257.329 932.799 260.978L976.988 311.32C980.191 314.969 981.957 319.658 981.957 324.513V421.962M832.851 71.8558V134.77C832.851 138.928 831.555 142.984 829.142 146.372L792.645 197.619C790.233 201.006 788.936 205.062 788.936 209.221V414.5M716.426 7.13461L686.346 67.6502C684.971 70.4163 684.255 73.4633 684.255 76.5523V134.297C684.255 138.747 685.74 143.07 688.473 146.582L728.037 197.408C730.771 200.92 732.255 205.243 732.255 209.694V421.962M630.638 7.13461V133.684C630.638 138.507 632.381 143.168 635.546 146.807L679.348 197.183C682.512 200.823 684.255 205.483 684.255 210.306V414.5M527.489 7.13461L572.454 66.4995C575.086 69.9749 576.511 74.2153 576.511 78.5751V245.746C576.511 250.601 578.277 255.291 581.48 258.94L625.669 309.281C628.872 312.93 630.638 317.62 630.638 322.475V422.5M527.489 71.8558V134.345C527.489 138.766 526.025 143.062 523.325 146.562L478.548 204.602C475.848 208.102 474.383 212.398 474.383 216.818V414.5M474.383 7.13461V134.702C474.383 138.903 473.06 142.997 470.603 146.404L432.206 199.625C429.748 203.032 428.426 207.126 428.426 211.327V422.5M371.745 7.13461L327.68 66.5489C325.124 69.9952 323.745 74.1721 323.745 78.4628V136.335C323.745 140.786 325.229 145.109 327.962 148.62L367.527 199.447C370.26 202.959 371.745 207.282 371.745 211.732V422.5M270.128 7.13461V135.723C270.128 140.546 271.871 145.206 275.035 148.846L318.837 199.221C322.002 202.861 323.745 207.522 323.745 212.345V414.5M0 7.13461V312.332C0 315.39 0.701508 318.408 2.05057 321.153L50.5451 419.828C51.8942 422.573 52.5957 425.59 52.5957 428.649V494.908C52.5957 497.93 51.9109 500.913 50.5927 503.632L0 608M106.213 9.17308L150.092 66.4743C152.764 69.9644 154.213 74.2379 154.213 78.6338V499.5M1237.28 499.5V316.981V253.279" stroke="url(#paint0_linear)" stroke-width="2"/>
<circle cx="324" cy="418" r="4" stroke="url(#paint1_linear)" stroke-width="2"/>
<circle cx="474" cy="418" r="4" stroke="url(#paint2_linear)" stroke-width="2"/>
<circle cx="527" cy="249" r="4" stroke="url(#paint3_linear)" stroke-width="2"/>
<circle cx="527" cy="68" r="4" stroke="url(#paint4_linear)" stroke-width="2"/>
<circle cx="576" cy="418" r="4" stroke="url(#paint5_linear)" stroke-width="2"/>
<circle cx="576" cy="311" r="4" stroke="url(#paint6_linear)" stroke-width="2"/>
<circle cx="685" cy="418" r="4" stroke="url(#paint7_linear)" stroke-width="2"/>
<circle cx="789" cy="418" r="4" stroke="url(#paint8_linear)" stroke-width="2"/>
<circle cx="833" cy="313" r="4" stroke="url(#paint9_linear)" stroke-width="2"/>
<circle cx="875" cy="418" r="4" stroke="url(#paint10_linear)" stroke-width="2"/>
<circle cx="830" cy="256" r="4" stroke="url(#paint11_linear)" stroke-width="2"/>
<circle cx="833" cy="68" r="4" stroke="url(#paint12_linear)" stroke-width="2"/>
<circle cx="928" cy="418" r="4" stroke="url(#paint13_linear)" stroke-width="2"/>
<circle cx="1036" cy="418" r="4" stroke="url(#paint14_linear)" stroke-width="2"/>
<circle cx="1084" cy="418" r="4" stroke="url(#paint15_linear)" stroke-width="2"/>
<circle cx="1237" cy="503" r="4" stroke="url(#paint16_linear)" stroke-width="2"/>
<circle cx="1280" cy="604" r="4" stroke="url(#paint17_linear)" stroke-width="2"/>
<circle cx="1237" cy="717" r="4" stroke="url(#paint18_linear)" stroke-width="2"/>
<circle cx="1225" cy="778" r="4" stroke="url(#paint19_linear)" stroke-width="2"/>
<circle cx="1237" cy="957" r="4" stroke="url(#paint20_linear)" stroke-width="2"/>
<circle cx="1237" cy="250" r="4" stroke="url(#paint21_linear)" stroke-width="2"/>
<circle cx="1237" cy="68" r="4" stroke="url(#paint22_linear)" stroke-width="2"/>
<circle cx="1280" cy="314" r="4" stroke="url(#paint23_linear)" stroke-width="2"/>
<circle cx="324" cy="527" r="4" stroke="url(#paint24_linear)" stroke-width="2"/>
<circle cx="270" cy="611" r="4" stroke="url(#paint25_linear)" stroke-width="2"/>
<circle cx="216" cy="718" r="4" stroke="url(#paint26_linear)" stroke-width="2"/>
<circle cx="154" cy="503" r="4" stroke="url(#paint27_linear)" stroke-width="2"/>
<circle cx="216" cy="313" r="4" stroke="url(#paint28_linear)" stroke-width="2"/>
<circle cx="55" cy="604" r="4" stroke="url(#paint29_linear)" stroke-width="2"/>
<circle cx="474" cy="527" r="4" stroke="url(#paint30_linear)" stroke-width="2"/>
<circle cx="576" cy="611" r="4" stroke="url(#paint31_linear)" stroke-width="2"/>
<circle cx="576" cy="718" r="4" stroke="url(#paint32_linear)" stroke-width="2"/>
<circle cx="528" cy="779" r="4" stroke="url(#paint33_linear)" stroke-width="2"/>
<circle cx="520" cy="958" r="4" stroke="url(#paint34_linear)" stroke-width="2"/>
<circle cx="685" cy="611" r="4" stroke="url(#paint35_linear)" stroke-width="2"/>
<circle cx="789" cy="611" r="4" stroke="url(#paint36_linear)" stroke-width="2"/>
<circle cx="833" cy="718" r="4" stroke="url(#paint37_linear)" stroke-width="2"/>
<circle cx="830" cy="778" r="4" stroke="url(#paint38_linear)" stroke-width="2"/>
<circle cx="833" cy="958" r="4" stroke="url(#paint39_linear)" stroke-width="2"/>
<circle cx="875" cy="611" r="4" stroke="url(#paint40_linear)" stroke-width="2"/>
<circle cx="928" cy="611" r="4" stroke="url(#paint41_linear)" stroke-width="2"/>
<circle cx="1036" cy="527" r="4" stroke="url(#paint42_linear)" stroke-width="2"/>
<circle cx="1084" cy="527" r="4" stroke="url(#paint43_linear)" stroke-width="2"/>
<path d="M338.284 493.432C333.292 493.432 328.78 492.328 324.748 490.12C320.764 487.912 317.62 484.864 315.316 480.976C313.06 477.04 311.932 472.648 311.932 467.8C311.932 462.952 313.06 458.584 315.316 454.696C317.62 450.76 320.788 447.688 324.82 445.48C328.852 443.272 333.364 442.168 338.356 442.168C342.1 442.168 345.556 442.792 348.724 444.04C351.892 445.288 354.58 447.112 356.788 449.512L353.404 452.896C349.468 448.912 344.5 446.92 338.5 446.92C334.516 446.92 330.892 447.832 327.628 449.656C324.364 451.48 321.796 453.976 319.924 457.144C318.1 460.312 317.188 463.864 317.188 467.8C317.188 471.736 318.1 475.288 319.924 478.456C321.796 481.624 324.364 484.12 327.628 485.944C330.892 487.768 334.516 488.68 338.5 488.68C344.548 488.68 349.516 486.664 353.404 482.632L356.788 486.016C354.58 488.416 351.868 490.264 348.652 491.56C345.484 492.808 342.028 493.432 338.284 493.432ZM371.962 462.544C373.162 460 374.938 458.08 377.29 456.784C379.69 455.488 382.642 454.84 386.146 454.84V459.808L384.922 459.736C380.938 459.736 377.818 460.96 375.562 463.408C373.306 465.856 372.178 469.288 372.178 473.704V493H367.066V455.128H371.962V462.544ZM428.026 475.648H396.346C396.634 479.584 398.146 482.776 400.882 485.224C403.618 487.624 407.074 488.824 411.25 488.824C413.602 488.824 415.762 488.416 417.73 487.6C419.698 486.736 421.402 485.488 422.842 483.856L425.722 487.168C424.042 489.184 421.93 490.72 419.386 491.776C416.89 492.832 414.13 493.36 411.106 493.36C407.218 493.36 403.762 492.544 400.738 490.912C397.762 489.232 395.434 486.928 393.754 484C392.074 481.072 391.234 477.76 391.234 474.064C391.234 470.368 392.026 467.056 393.61 464.128C395.242 461.2 397.45 458.92 400.234 457.288C403.066 455.656 406.234 454.84 409.738 454.84C413.242 454.84 416.386 455.656 419.17 457.288C421.954 458.92 424.138 461.2 425.722 464.128C427.306 467.008 428.098 470.32 428.098 474.064L428.026 475.648ZM409.738 459.232C406.09 459.232 403.018 460.408 400.522 462.76C398.074 465.064 396.682 468.088 396.346 471.832H423.202C422.866 468.088 421.45 465.064 418.954 462.76C416.506 460.408 413.434 459.232 409.738 459.232ZM450.696 454.84C455.64 454.84 459.432 456.088 462.072 458.584C464.712 461.032 466.032 464.68 466.032 469.528V493H461.136V487.096C459.984 489.064 458.28 490.6 456.024 491.704C453.816 492.808 451.176 493.36 448.104 493.36C443.88 493.36 440.52 492.352 438.024 490.336C435.528 488.32 434.28 485.656 434.28 482.344C434.28 479.128 435.432 476.536 437.736 474.568C440.088 472.6 443.808 471.616 448.896 471.616H460.92V469.312C460.92 466.048 460.008 463.576 458.184 461.896C456.36 460.168 453.696 459.304 450.192 459.304C447.792 459.304 445.488 459.712 443.28 460.528C441.072 461.296 439.176 462.376 437.592 463.768L435.288 459.952C437.208 458.32 439.512 457.072 442.2 456.208C444.888 455.296 447.72 454.84 450.696 454.84ZM448.896 489.328C451.776 489.328 454.248 488.68 456.312 487.384C458.376 486.04 459.912 484.12 460.92 481.624V475.432H449.04C442.56 475.432 439.32 477.688 439.32 482.2C439.32 484.408 440.16 486.16 441.84 487.456C443.52 488.704 445.872 489.328 448.896 489.328ZM499.861 490.696C498.901 491.56 497.701 492.232 496.261 492.712C494.869 493.144 493.405 493.36 491.869 493.36C488.317 493.36 485.581 492.4 483.661 490.48C481.741 488.56 480.781 485.848 480.781 482.344V459.448H474.013V455.128H480.781V446.848H485.893V455.128H497.413V459.448H485.893V482.056C485.893 484.312 486.445 486.04 487.549 487.24C488.701 488.392 490.333 488.968 492.445 488.968C493.501 488.968 494.509 488.8 495.469 488.464C496.477 488.128 497.341 487.648 498.061 487.024L499.861 490.696ZM540.807 475.648H509.127C509.415 479.584 510.927 482.776 513.663 485.224C516.399 487.624 519.855 488.824 524.031 488.824C526.383 488.824 528.543 488.416 530.511 487.6C532.479 486.736 534.183 485.488 535.623 483.856L538.503 487.168C536.823 489.184 534.711 490.72 532.167 491.776C529.671 492.832 526.911 493.36 523.887 493.36C519.999 493.36 516.543 492.544 513.519 490.912C510.543 489.232 508.215 486.928 506.535 484C504.855 481.072 504.015 477.76 504.015 474.064C504.015 470.368 504.807 467.056 506.391 464.128C508.023 461.2 510.231 458.92 513.015 457.288C515.847 455.656 519.015 454.84 522.519 454.84C526.023 454.84 529.167 455.656 531.951 457.288C534.735 458.92 536.919 461.2 538.503 464.128C540.087 467.008 540.879 470.32 540.879 474.064L540.807 475.648ZM522.519 459.232C518.871 459.232 515.799 460.408 513.303 462.76C510.855 465.064 509.463 468.088 509.127 471.832H535.983C535.647 468.088 534.231 465.064 531.735 462.76C529.287 460.408 526.215 459.232 522.519 459.232ZM604.688 439.576V493H599.792V485.512C598.256 488.056 596.216 490 593.672 491.344C591.176 492.688 588.344 493.36 585.176 493.36C581.624 493.36 578.408 492.544 575.528 490.912C572.648 489.28 570.392 487 568.76 484.072C567.128 481.144 566.312 477.808 566.312 474.064C566.312 470.32 567.128 466.984 568.76 464.056C570.392 461.128 572.648 458.872 575.528 457.288C578.408 455.656 581.624 454.84 585.176 454.84C588.248 454.84 591.008 455.488 593.456 456.784C595.952 458.032 597.992 459.88 599.576 462.328V439.576H604.688ZM585.608 488.824C588.248 488.824 590.624 488.224 592.736 487.024C594.896 485.776 596.576 484.024 597.776 481.768C599.024 479.512 599.648 476.944 599.648 474.064C599.648 471.184 599.024 468.616 597.776 466.36C596.576 464.104 594.896 462.376 592.736 461.176C590.624 459.928 588.248 459.304 585.608 459.304C582.92 459.304 580.496 459.928 578.336 461.176C576.224 462.376 574.544 464.104 573.296 466.36C572.096 468.616 571.496 471.184 571.496 474.064C571.496 476.944 572.096 479.512 573.296 481.768C574.544 484.024 576.224 485.776 578.336 487.024C580.496 488.224 582.92 488.824 585.608 488.824ZM651.901 475.648H620.221C620.509 479.584 622.021 482.776 624.757 485.224C627.493 487.624 630.949 488.824 635.125 488.824C637.477 488.824 639.637 488.416 641.605 487.6C643.573 486.736 645.277 485.488 646.717 483.856L649.597 487.168C647.917 489.184 645.805 490.72 643.261 491.776C640.765 492.832 638.005 493.36 634.981 493.36C631.093 493.36 627.637 492.544 624.613 490.912C621.637 489.232 619.309 486.928 617.629 484C615.949 481.072 615.109 477.76 615.109 474.064C615.109 470.368 615.901 467.056 617.485 464.128C619.117 461.2 621.325 458.92 624.109 457.288C626.941 455.656 630.109 454.84 633.613 454.84C637.117 454.84 640.261 455.656 643.045 457.288C645.829 458.92 648.013 461.2 649.597 464.128C651.181 467.008 651.973 470.32 651.973 474.064L651.901 475.648ZM633.613 459.232C629.965 459.232 626.893 460.408 624.397 462.76C621.949 465.064 620.557 468.088 620.221 471.832H647.077C646.741 468.088 645.325 465.064 642.829 462.76C640.381 460.408 637.309 459.232 633.613 459.232ZM693.499 455.128L676.651 493H671.395L654.619 455.128H659.947L674.131 487.384L688.459 455.128H693.499ZM700.698 455.128H705.81V493H700.698V455.128ZM703.29 446.848C702.234 446.848 701.346 446.488 700.626 445.768C699.906 445.048 699.546 444.184 699.546 443.176C699.546 442.216 699.906 441.376 700.626 440.656C701.346 439.936 702.234 439.576 703.29 439.576C704.346 439.576 705.234 439.936 705.954 440.656C706.674 441.328 707.034 442.144 707.034 443.104C707.034 444.16 706.674 445.048 705.954 445.768C705.234 446.488 704.346 446.848 703.29 446.848ZM735.73 493.36C731.986 493.36 728.626 492.544 725.65 490.912C722.722 489.28 720.418 487 718.738 484.072C717.058 481.096 716.218 477.76 716.218 474.064C716.218 470.368 717.058 467.056 718.738 464.128C720.418 461.2 722.722 458.92 725.65 457.288C728.626 455.656 731.986 454.84 735.73 454.84C738.994 454.84 741.898 455.488 744.442 456.784C747.034 458.032 749.074 459.88 750.562 462.328L746.746 464.92C745.498 463.048 743.914 461.656 741.994 460.744C740.074 459.784 737.986 459.304 735.73 459.304C732.994 459.304 730.522 459.928 728.314 461.176C726.154 462.376 724.45 464.104 723.202 466.36C722.002 468.616 721.402 471.184 721.402 474.064C721.402 476.992 722.002 479.584 723.202 481.84C724.45 484.048 726.154 485.776 728.314 487.024C730.522 488.224 732.994 488.824 735.73 488.824C737.986 488.824 740.074 488.368 741.994 487.456C743.914 486.544 745.498 485.152 746.746 483.28L750.562 485.872C749.074 488.32 747.034 490.192 744.442 491.488C741.85 492.736 738.946 493.36 735.73 493.36ZM792.948 475.648H761.268C761.556 479.584 763.068 482.776 765.804 485.224C768.54 487.624 771.996 488.824 776.172 488.824C778.524 488.824 780.684 488.416 782.652 487.6C784.62 486.736 786.324 485.488 787.764 483.856L790.644 487.168C788.964 489.184 786.852 490.72 784.308 491.776C781.812 492.832 779.052 493.36 776.028 493.36C772.14 493.36 768.684 492.544 765.66 490.912C762.684 489.232 760.356 486.928 758.676 484C756.996 481.072 756.156 477.76 756.156 474.064C756.156 470.368 756.948 467.056 758.532 464.128C760.164 461.2 762.372 458.92 765.156 457.288C767.988 455.656 771.156 454.84 774.66 454.84C778.164 454.84 781.308 455.656 784.092 457.288C786.876 458.92 789.06 461.2 790.644 464.128C792.228 467.008 793.02 470.32 793.02 474.064L792.948 475.648ZM774.66 459.232C771.012 459.232 767.94 460.408 765.444 462.76C762.996 465.064 761.604 468.088 761.268 471.832H788.124C787.788 468.088 786.372 465.064 783.876 462.76C781.428 460.408 778.356 459.232 774.66 459.232ZM813.577 493.36C810.505 493.36 807.553 492.928 804.721 492.064C801.937 491.152 799.753 490.024 798.169 488.68L800.473 484.648C802.057 485.896 804.049 486.928 806.449 487.744C808.849 488.512 811.345 488.896 813.937 488.896C817.393 488.896 819.937 488.368 821.569 487.312C823.249 486.208 824.089 484.672 824.089 482.704C824.089 481.312 823.633 480.232 822.721 479.464C821.809 478.648 820.657 478.048 819.265 477.664C817.873 477.232 816.025 476.824 813.721 476.44C810.649 475.864 808.177 475.288 806.305 474.712C804.433 474.088 802.825 473.056 801.481 471.616C800.185 470.176 799.537 468.184 799.537 465.64C799.537 462.472 800.857 459.88 803.497 457.864C806.137 455.848 809.809 454.84 814.513 454.84C816.961 454.84 819.409 455.176 821.857 455.848C824.305 456.472 826.321 457.312 827.905 458.368L825.673 462.472C822.553 460.312 818.833 459.232 814.513 459.232C811.249 459.232 808.777 459.808 807.097 460.96C805.465 462.112 804.649 463.624 804.649 465.496C804.649 466.936 805.105 468.088 806.017 468.952C806.977 469.816 808.153 470.464 809.545 470.896C810.937 471.28 812.857 471.688 815.305 472.12C818.329 472.696 820.753 473.272 822.577 473.848C824.401 474.424 825.961 475.408 827.257 476.8C828.553 478.192 829.201 480.112 829.201 482.56C829.201 485.872 827.809 488.512 825.025 490.48C822.289 492.4 818.473 493.36 813.577 493.36ZM877.439 490.696C876.479 491.56 875.279 492.232 873.839 492.712C872.447 493.144 870.983 493.36 869.447 493.36C865.895 493.36 863.159 492.4 861.239 490.48C859.319 488.56 858.359 485.848 858.359 482.344V459.448H851.591V455.128H858.359V446.848H863.471V455.128H874.991V459.448H863.471V482.056C863.471 484.312 864.023 486.04 865.127 487.24C866.279 488.392 867.911 488.968 870.023 488.968C871.079 488.968 872.087 488.8 873.047 488.464C874.055 488.128 874.919 487.648 875.639 487.024L877.439 490.696ZM906.041 454.84C910.793 454.84 914.561 456.232 917.345 459.016C920.177 461.752 921.593 465.76 921.593 471.04V493H916.481V471.544C916.481 467.608 915.497 464.608 913.529 462.544C911.561 460.48 908.753 459.448 905.105 459.448C901.025 459.448 897.785 460.672 895.385 463.12C893.033 465.52 891.857 468.856 891.857 473.128V493H886.745V439.576H891.857V461.752C893.249 459.544 895.169 457.84 897.617 456.64C900.065 455.44 902.873 454.84 906.041 454.84ZM948.72 454.84C953.664 454.84 957.456 456.088 960.096 458.584C962.736 461.032 964.056 464.68 964.056 469.528V493H959.16V487.096C958.008 489.064 956.304 490.6 954.048 491.704C951.84 492.808 949.2 493.36 946.128 493.36C941.904 493.36 938.544 492.352 936.048 490.336C933.552 488.32 932.304 485.656 932.304 482.344C932.304 479.128 933.456 476.536 935.76 474.568C938.112 472.6 941.832 471.616 946.92 471.616H958.944V469.312C958.944 466.048 958.032 463.576 956.208 461.896C954.384 460.168 951.72 459.304 948.216 459.304C945.816 459.304 943.512 459.712 941.304 460.528C939.096 461.296 937.2 462.376 935.616 463.768L933.312 459.952C935.232 458.32 937.536 457.072 940.224 456.208C942.912 455.296 945.744 454.84 948.72 454.84ZM946.92 489.328C949.8 489.328 952.272 488.68 954.336 487.384C956.4 486.04 957.936 484.12 958.944 481.624V475.432H947.064C940.584 475.432 937.344 477.688 937.344 482.2C937.344 484.408 938.184 486.16 939.864 487.456C941.544 488.704 943.896 489.328 946.92 489.328ZM997.885 490.696C996.925 491.56 995.725 492.232 994.285 492.712C992.893 493.144 991.429 493.36 989.893 493.36C986.341 493.36 983.605 492.4 981.685 490.48C979.765 488.56 978.805 485.848 978.805 482.344V459.448H972.037V455.128H978.805V446.848H983.917V455.128H995.437V459.448H983.917V482.056C983.917 484.312 984.469 486.04 985.573 487.24C986.725 488.392 988.357 488.968 990.469 488.968C991.525 488.968 992.533 488.8 993.493 488.464C994.501 488.128 995.365 487.648 996.085 487.024L997.885 490.696ZM1039.28 454.84C1044.23 454.84 1048.02 456.088 1050.66 458.584C1053.3 461.032 1054.62 464.68 1054.62 469.528V493H1049.72V487.096C1048.57 489.064 1046.87 490.6 1044.61 491.704C1042.4 492.808 1039.76 493.36 1036.69 493.36C1032.47 493.36 1029.11 492.352 1026.61 490.336C1024.11 488.32 1022.87 485.656 1022.87 482.344C1022.87 479.128 1024.02 476.536 1026.32 474.568C1028.67 472.6 1032.39 471.616 1037.48 471.616H1049.51V469.312C1049.51 466.048 1048.59 463.576 1046.77 461.896C1044.95 460.168 1042.28 459.304 1038.78 459.304C1036.38 459.304 1034.07 459.712 1031.87 460.528C1029.66 461.296 1027.76 462.376 1026.18 463.768L1023.87 459.952C1025.79 458.32 1028.1 457.072 1030.79 456.208C1033.47 455.296 1036.31 454.84 1039.28 454.84ZM1037.48 489.328C1040.36 489.328 1042.83 488.68 1044.9 487.384C1046.96 486.04 1048.5 484.12 1049.51 481.624V475.432H1037.63C1031.15 475.432 1027.91 477.688 1027.91 482.2C1027.91 484.408 1028.75 486.16 1030.43 487.456C1032.11 488.704 1034.46 489.328 1037.48 489.328ZM1073.4 462.544C1074.6 460 1076.38 458.08 1078.73 456.784C1081.13 455.488 1084.08 454.84 1087.58 454.84V459.808L1086.36 459.736C1082.38 459.736 1079.26 460.96 1077 463.408C1074.74 465.856 1073.62 469.288 1073.62 473.704V493H1068.5V455.128H1073.4V462.544ZM1129.46 475.648H1097.78C1098.07 479.584 1099.58 482.776 1102.32 485.224C1105.06 487.624 1108.51 488.824 1112.69 488.824C1115.04 488.824 1117.2 488.416 1119.17 487.6C1121.14 486.736 1122.84 485.488 1124.28 483.856L1127.16 487.168C1125.48 489.184 1123.37 490.72 1120.82 491.776C1118.33 492.832 1115.57 493.36 1112.54 493.36C1108.66 493.36 1105.2 492.544 1102.18 490.912C1099.2 489.232 1096.87 486.928 1095.19 484C1093.51 481.072 1092.67 477.76 1092.67 474.064C1092.67 470.368 1093.46 467.056 1095.05 464.128C1096.68 461.2 1098.89 458.92 1101.67 457.288C1104.5 455.656 1107.67 454.84 1111.18 454.84C1114.68 454.84 1117.82 455.656 1120.61 457.288C1123.39 458.92 1125.58 461.2 1127.16 464.128C1128.74 467.008 1129.54 470.32 1129.54 474.064L1129.46 475.648ZM1111.18 459.232C1107.53 459.232 1104.46 460.408 1101.96 462.76C1099.51 465.064 1098.12 468.088 1097.78 471.832H1124.64C1124.3 468.088 1122.89 465.064 1120.39 462.76C1117.94 460.408 1114.87 459.232 1111.18 459.232ZM567.396 578.696C566.436 579.56 565.236 580.232 563.796 580.712C562.404 581.144 560.94 581.36 559.404 581.36C555.852 581.36 553.116 580.4 551.196 578.48C549.276 576.56 548.316 573.848 548.316 570.344V547.448H541.548V543.128H548.316V534.848H553.428V543.128H564.948V547.448H553.428V570.056C553.428 572.312 553.98 574.04 555.084 575.24C556.236 576.392 557.868 576.968 559.98 576.968C561.036 576.968 562.044 576.8 563.004 576.464C564.012 576.128 564.876 575.648 565.596 575.024L567.396 578.696ZM581.598 550.544C582.798 548 584.574 546.08 586.926 544.784C589.326 543.488 592.278 542.84 595.782 542.84V547.808L594.558 547.736C590.574 547.736 587.454 548.96 585.198 551.408C582.942 553.856 581.814 557.288 581.814 561.704V581H576.702V543.128H581.598V550.544ZM639.729 543.128V581H634.833V574.088C633.489 576.392 631.641 578.192 629.289 579.488C626.937 580.736 624.249 581.36 621.225 581.36C616.281 581.36 612.369 579.992 609.489 577.256C606.657 574.472 605.241 570.416 605.241 565.088V543.128H610.353V564.584C610.353 568.568 611.337 571.592 613.305 573.656C615.273 575.72 618.081 576.752 621.729 576.752C625.713 576.752 628.857 575.552 631.161 573.152C633.465 570.704 634.617 567.32 634.617 563V543.128H639.729ZM654.046 527.576H659.158V581H654.046V527.576ZM705.206 543.128L686.27 585.536C684.734 589.088 682.958 591.608 680.942 593.096C678.926 594.584 676.502 595.328 673.67 595.328C671.846 595.328 670.142 595.04 668.558 594.464C666.974 593.888 665.606 593.024 664.454 591.872L666.83 588.056C668.75 589.976 671.054 590.936 673.742 590.936C675.47 590.936 676.934 590.456 678.134 589.496C679.382 588.536 680.534 586.904 681.59 584.6L683.246 580.928L666.326 543.128H671.654L685.91 575.312L700.166 543.128H705.206ZM763.073 543.128L744.137 585.536C742.601 589.088 740.825 591.608 738.809 593.096C736.793 594.584 734.369 595.328 731.537 595.328C729.713 595.328 728.009 595.04 726.425 594.464C724.841 593.888 723.473 593.024 722.321 591.872L724.697 588.056C726.617 589.976 728.921 590.936 731.609 590.936C733.337 590.936 734.801 590.456 736.001 589.496C737.249 588.536 738.401 586.904 739.457 584.6L741.113 580.928L724.193 543.128H729.521L743.777 575.312L758.033 543.128H763.073ZM784.698 581.36C781.05 581.36 777.762 580.544 774.834 578.912C771.906 577.232 769.602 574.928 767.922 572C766.242 569.072 765.402 565.76 765.402 562.064C765.402 558.368 766.242 555.056 767.922 552.128C769.602 549.2 771.906 546.92 774.834 545.288C777.762 543.656 781.05 542.84 784.698 542.84C788.346 542.84 791.634 543.656 794.562 545.288C797.49 546.92 799.77 549.2 801.402 552.128C803.082 555.056 803.922 558.368 803.922 562.064C803.922 565.76 803.082 569.072 801.402 572C799.77 574.928 797.49 577.232 794.562 578.912C791.634 580.544 788.346 581.36 784.698 581.36ZM784.698 576.824C787.386 576.824 789.786 576.224 791.898 575.024C794.058 573.776 795.738 572.024 796.938 569.768C798.138 567.512 798.738 564.944 798.738 562.064C798.738 559.184 798.138 556.616 796.938 554.36C795.738 552.104 794.058 550.376 791.898 549.176C789.786 547.928 787.386 547.304 784.698 547.304C782.01 547.304 779.586 547.928 777.426 549.176C775.314 550.376 773.634 552.104 772.386 554.36C771.186 556.616 770.586 559.184 770.586 562.064C770.586 564.944 771.186 567.512 772.386 569.768C773.634 572.024 775.314 573.776 777.426 575.024C779.586 576.224 782.01 576.824 784.698 576.824ZM848.486 543.128V581H843.59V574.088C842.246 576.392 840.398 578.192 838.046 579.488C835.694 580.736 833.006 581.36 829.982 581.36C825.038 581.36 821.126 579.992 818.246 577.256C815.414 574.472 813.998 570.416 813.998 565.088V543.128H819.11V564.584C819.11 568.568 820.094 571.592 822.062 573.656C824.03 575.72 826.838 576.752 830.486 576.752C834.47 576.752 837.614 575.552 839.918 573.152C842.222 570.704 843.374 567.32 843.374 563V543.128H848.486ZM867.7 550.544C868.9 548 870.676 546.08 873.028 544.784C875.428 543.488 878.38 542.84 881.884 542.84V547.808L880.66 547.736C876.676 547.736 873.556 548.96 871.3 551.408C869.044 553.856 867.916 557.288 867.916 561.704V581H862.804V543.128H867.7V550.544ZM901.573 581.36C898.501 581.36 895.549 580.928 892.717 580.064C889.933 579.152 887.749 578.024 886.165 576.68L888.469 572.648C890.053 573.896 892.045 574.928 894.445 575.744C896.845 576.512 899.341 576.896 901.933 576.896C905.389 576.896 907.933 576.368 909.565 575.312C911.245 574.208 912.085 572.672 912.085 570.704C912.085 569.312 911.629 568.232 910.717 567.464C909.805 566.648 908.653 566.048 907.261 565.664C905.869 565.232 904.021 564.824 901.717 564.44C898.645 563.864 896.173 563.288 894.301 562.712C892.429 562.088 890.821 561.056 889.477 559.616C888.181 558.176 887.533 556.184 887.533 553.64C887.533 550.472 888.853 547.88 891.493 545.864C894.133 543.848 897.805 542.84 902.509 542.84C904.957 542.84 907.405 543.176 909.853 543.848C912.301 544.472 914.317 545.312 915.901 546.368L913.669 550.472C910.549 548.312 906.829 547.232 902.509 547.232C899.245 547.232 896.773 547.808 895.093 548.96C893.461 550.112 892.645 551.624 892.645 553.496C892.645 554.936 893.101 556.088 894.013 556.952C894.973 557.816 896.149 558.464 897.541 558.896C898.933 559.28 900.853 559.688 903.301 560.12C906.325 560.696 908.749 561.272 910.573 561.848C912.397 562.424 913.957 563.408 915.253 564.8C916.549 566.192 917.197 568.112 917.197 570.56C917.197 573.872 915.805 576.512 913.021 578.48C910.285 580.4 906.469 581.36 901.573 581.36Z" fill="black"/>
<defs>
<linearGradient id="paint0_linear" x1="720" y1="0" x2="720" y2="1024" gradientUnits="userSpaceOnUse">
<stop stop-color="#AD00FF" stop-opacity="0"/>
<stop offset="0.0520833" stop-color="#AD00FF"/>
<stop offset="0.942708" stop-color="#0057FF"/>
<stop offset="1" stop-color="#0057FF" stop-opacity="0"/>
</linearGradient>
<linearGradient id="paint1_linear" x1="324" y1="413" x2="324" y2="423" gradientUnits="userSpaceOnUse">
<stop stop-color="#AD00FF"/>
<stop offset="1" stop-color="#0057FF"/>
</linearGradient>
<linearGradient id="paint2_linear" x1="474" y1="413" x2="474" y2="423" gradientUnits="userSpaceOnUse">
<stop stop-color="#AD00FF"/>
<stop offset="1" stop-color="#0057FF"/>
</linearGradient>
<linearGradient id="paint3_linear" x1="527" y1="244" x2="527" y2="254" gradientUnits="userSpaceOnUse">
<stop stop-color="#AD00FF"/>
<stop offset="1" stop-color="#0057FF"/>
</linearGradient>
<linearGradient id="paint4_linear" x1="527" y1="63" x2="527" y2="73" gradientUnits="userSpaceOnUse">
<stop stop-color="#AD00FF"/>
<stop offset="1" stop-color="#0057FF"/>
</linearGradient>
<linearGradient id="paint5_linear" x1="576" y1="413" x2="576" y2="423" gradientUnits="userSpaceOnUse">
<stop stop-color="#AD00FF"/>
<stop offset="1" stop-color="#0057FF"/>
</linearGradient>
<linearGradient id="paint6_linear" x1="576" y1="306" x2="576" y2="316" gradientUnits="userSpaceOnUse">
<stop stop-color="#AD00FF"/>
<stop offset="1" stop-color="#0057FF"/>
</linearGradient>
<linearGradient id="paint7_linear" x1="685" y1="413" x2="685" y2="423" gradientUnits="userSpaceOnUse">
<stop stop-color="#AD00FF"/>
<stop offset="1" stop-color="#0057FF"/>
</linearGradient>
<linearGradient id="paint8_linear" x1="789" y1="413" x2="789" y2="423" gradientUnits="userSpaceOnUse">
<stop stop-color="#AD00FF"/>
<stop offset="1" stop-color="#0057FF"/>
</linearGradient>
<linearGradient id="paint9_linear" x1="833" y1="308" x2="833" y2="318" gradientUnits="userSpaceOnUse">
<stop stop-color="#AD00FF"/>
<stop offset="1" stop-color="#0057FF"/>
</linearGradient>
<linearGradient id="paint10_linear" x1="875" y1="413" x2="875" y2="423" gradientUnits="userSpaceOnUse">
<stop stop-color="#AD00FF"/>
<stop offset="1" stop-color="#0057FF"/>
</linearGradient>
<linearGradient id="paint11_linear" x1="830" y1="251" x2="830" y2="261" gradientUnits="userSpaceOnUse">
<stop stop-color="#AD00FF"/>
<stop offset="1" stop-color="#0057FF"/>
</linearGradient>
<linearGradient id="paint12_linear" x1="833" y1="63" x2="833" y2="73" gradientUnits="userSpaceOnUse">
<stop stop-color="#AD00FF"/>
<stop offset="1" stop-color="#0057FF"/>
</linearGradient>
<linearGradient id="paint13_linear" x1="928" y1="413" x2="928" y2="423" gradientUnits="userSpaceOnUse">
<stop stop-color="#AD00FF"/>
<stop offset="1" stop-color="#0057FF"/>
</linearGradient>
<linearGradient id="paint14_linear" x1="1036" y1="413" x2="1036" y2="423" gradientUnits="userSpaceOnUse">
<stop stop-color="#AD00FF"/>
<stop offset="1" stop-color="#0057FF"/>
</linearGradient>
<linearGradient id="paint15_linear" x1="1084" y1="413" x2="1084" y2="423" gradientUnits="userSpaceOnUse">
<stop stop-color="#AD00FF"/>
<stop offset="1" stop-color="#0057FF"/>
</linearGradient>
<linearGradient id="paint16_linear" x1="1237" y1="498" x2="1237" y2="508" gradientUnits="userSpaceOnUse">
<stop stop-color="#AD00FF"/>
<stop offset="1" stop-color="#0057FF"/>
</linearGradient>
<linearGradient id="paint17_linear" x1="1280" y1="599" x2="1280" y2="609" gradientUnits="userSpaceOnUse">
<stop stop-color="#AD00FF"/>
<stop offset="1" stop-color="#0057FF"/>
</linearGradient>
<linearGradient id="paint18_linear" x1="1237" y1="712" x2="1237" y2="722" gradientUnits="userSpaceOnUse">
<stop stop-color="#AD00FF"/>
<stop offset="1" stop-color="#0057FF"/>
</linearGradient>
<linearGradient id="paint19_linear" x1="1225" y1="773" x2="1225" y2="783" gradientUnits="userSpaceOnUse">
<stop stop-color="#AD00FF"/>
<stop offset="1" stop-color="#0057FF"/>
</linearGradient>
<linearGradient id="paint20_linear" x1="1237" y1="952" x2="1237" y2="962" gradientUnits="userSpaceOnUse">
<stop stop-color="#AD00FF"/>
<stop offset="1" stop-color="#0057FF"/>
</linearGradient>
<linearGradient id="paint21_linear" x1="1237" y1="245" x2="1237" y2="255" gradientUnits="userSpaceOnUse">
<stop stop-color="#AD00FF"/>
<stop offset="1" stop-color="#0057FF"/>
</linearGradient>
<linearGradient id="paint22_linear" x1="1237" y1="63" x2="1237" y2="73" gradientUnits="userSpaceOnUse">
<stop stop-color="#AD00FF"/>
<stop offset="1" stop-color="#0057FF"/>
</linearGradient>
<linearGradient id="paint23_linear" x1="1280" y1="309" x2="1280" y2="319" gradientUnits="userSpaceOnUse">
<stop stop-color="#AD00FF"/>
<stop offset="1" stop-color="#0057FF"/>
</linearGradient>
<linearGradient id="paint24_linear" x1="324" y1="522" x2="324" y2="532" gradientUnits="userSpaceOnUse">
<stop stop-color="#AD00FF"/>
<stop offset="1" stop-color="#0057FF"/>
</linearGradient>
<linearGradient id="paint25_linear" x1="270" y1="606" x2="270" y2="616" gradientUnits="userSpaceOnUse">
<stop stop-color="#AD00FF"/>
<stop offset="1" stop-color="#0057FF"/>
</linearGradient>
<linearGradient id="paint26_linear" x1="216" y1="713" x2="216" y2="723" gradientUnits="userSpaceOnUse">
<stop stop-color="#AD00FF"/>
<stop offset="1" stop-color="#0057FF"/>
</linearGradient>
<linearGradient id="paint27_linear" x1="154" y1="498" x2="154" y2="508" gradientUnits="userSpaceOnUse">
<stop stop-color="#AD00FF"/>
<stop offset="1" stop-color="#0057FF"/>
</linearGradient>
<linearGradient id="paint28_linear" x1="216" y1="308" x2="216" y2="318" gradientUnits="userSpaceOnUse">
<stop stop-color="#AD00FF"/>
<stop offset="1" stop-color="#0057FF"/>
</linearGradient>
<linearGradient id="paint29_linear" x1="55" y1="599" x2="55" y2="609" gradientUnits="userSpaceOnUse">
<stop stop-color="#AD00FF"/>
<stop offset="1" stop-color="#0057FF"/>
</linearGradient>
<linearGradient id="paint30_linear" x1="474" y1="522" x2="474" y2="532" gradientUnits="userSpaceOnUse">
<stop stop-color="#AD00FF"/>
<stop offset="1" stop-color="#0057FF"/>
</linearGradient>
<linearGradient id="paint31_linear" x1="576" y1="606" x2="576" y2="616" gradientUnits="userSpaceOnUse">
<stop stop-color="#AD00FF"/>
<stop offset="1" stop-color="#0057FF"/>
</linearGradient>
<linearGradient id="paint32_linear" x1="576" y1="713" x2="576" y2="723" gradientUnits="userSpaceOnUse">
<stop stop-color="#AD00FF"/>
<stop offset="1" stop-color="#0057FF"/>
</linearGradient>
<linearGradient id="paint33_linear" x1="528" y1="774" x2="528" y2="784" gradientUnits="userSpaceOnUse">
<stop stop-color="#AD00FF"/>
<stop offset="1" stop-color="#0057FF"/>
</linearGradient>
<linearGradient id="paint34_linear" x1="520" y1="953" x2="520" y2="963" gradientUnits="userSpaceOnUse">
<stop stop-color="#AD00FF"/>
<stop offset="1" stop-color="#0057FF"/>
</linearGradient>
<linearGradient id="paint35_linear" x1="685" y1="606" x2="685" y2="616" gradientUnits="userSpaceOnUse">
<stop stop-color="#AD00FF"/>
<stop offset="1" stop-color="#0057FF"/>
</linearGradient>
<linearGradient id="paint36_linear" x1="789" y1="606" x2="789" y2="616" gradientUnits="userSpaceOnUse">
<stop stop-color="#AD00FF"/>
<stop offset="1" stop-color="#0057FF"/>
</linearGradient>
<linearGradient id="paint37_linear" x1="833" y1="713" x2="833" y2="723" gradientUnits="userSpaceOnUse">
<stop stop-color="#AD00FF"/>
<stop offset="1" stop-color="#0057FF"/>
</linearGradient>
<linearGradient id="paint38_linear" x1="830" y1="773" x2="830" y2="783" gradientUnits="userSpaceOnUse">
<stop stop-color="#AD00FF"/>
<stop offset="1" stop-color="#0057FF"/>
</linearGradient>
<linearGradient id="paint39_linear" x1="833" y1="953" x2="833" y2="963" gradientUnits="userSpaceOnUse">
<stop stop-color="#AD00FF"/>
<stop offset="1" stop-color="#0057FF"/>
</linearGradient>
<linearGradient id="paint40_linear" x1="875" y1="606" x2="875" y2="616" gradientUnits="userSpaceOnUse">
<stop stop-color="#AD00FF"/>
<stop offset="1" stop-color="#0057FF"/>
</linearGradient>
<linearGradient id="paint41_linear" x1="928" y1="606" x2="928" y2="616" gradientUnits="userSpaceOnUse">
<stop stop-color="#AD00FF"/>
<stop offset="1" stop-color="#0057FF"/>
</linearGradient>
<linearGradient id="paint42_linear" x1="1036" y1="522" x2="1036" y2="532" gradientUnits="userSpaceOnUse">
<stop stop-color="#AD00FF"/>
<stop offset="1" stop-color="#0057FF"/>
</linearGradient>
<linearGradient id="paint43_linear" x1="1084" y1="522" x2="1084" y2="532" gradientUnits="userSpaceOnUse">
<stop stop-color="#AD00FF"/>
<stop offset="1" stop-color="#0057FF"/>
</linearGradient>
</defs>
</svg>
