<svg width="414" height="896" viewBox="0 0 414 896" fill="none" xmlns="http://www.w3.org/2000/svg">
<path d="M206.68 530V714.903C206.68 718.538 205.689 722.103 203.815 725.217L177.465 768.993C175.591 772.107 174.601 775.673 174.601 779.307V828.793C174.601 831.987 175.365 835.134 176.831 837.972L206.68 895.757M174.601 534.588V714.36C174.601 718.335 173.416 722.22 171.198 725.519L142.17 768.692C139.952 771.991 138.768 775.876 138.768 779.851V895.757M244.56 534.588V715.315C244.56 718.689 245.414 722.008 247.041 724.963L271.428 769.248C273.056 772.203 273.909 775.522 273.909 778.895V833.654M138.768 530V617.412C138.768 621.418 137.565 625.331 135.316 628.645L106.045 671.768C103.796 675.082 102.593 678.995 102.593 683V828.702C102.593 831.954 101.8 835.157 100.283 838.034L69.8317 895.757M102.593 530V623.559M3.62598 534.588V713.495C3.62598 716.906 4.49828 720.26 6.15999 723.239L31.806 769.21C33.4677 772.189 34.34 775.543 34.34 778.954V895.757M273.909 676.853L300.315 626.139C301.8 623.286 302.576 620.118 302.576 616.902V534.588M273.909 530V621.797M69.8317 534.588V676.853M34.34 534.588V713.38C34.34 716.864 35.2499 720.287 36.9797 723.311L62.1867 767.376C63.9165 770.4 64.8264 773.823 64.8264 777.307V833.654M409.392 895.757L376.236 838.293C374.482 835.254 373.559 831.807 373.559 828.298V778.089C373.559 774.114 374.744 770.229 376.962 766.93L405.989 723.757C408.207 720.458 409.392 716.573 409.392 712.598V534.588M302.576 895.757L334.831 838.21C336.505 835.222 337.385 831.855 337.385 828.431V681.238C337.385 677.233 338.587 673.32 340.837 670.006L370.107 626.883C372.356 623.569 373.559 619.656 373.559 615.651V530M265.989 895.757L299.807 838.352C301.62 835.276 302.576 831.771 302.576 828.201V682.646C302.576 678.862 303.649 675.156 305.671 671.958L334.289 626.693C336.311 623.495 337.385 619.789 337.385 616.005V534.588M102.593 365V271.148M409.392 358.848V180.184C409.392 176.268 408.243 172.439 406.087 169.171L376.864 124.872C374.708 121.604 373.559 117.775 373.559 113.859V62.7761C373.559 59.0106 374.622 55.3215 376.626 52.1334L409.392 0M337.385 358.848V278.643C337.385 274.918 336.344 271.266 334.38 268.1L305.58 221.672C303.616 218.506 302.576 214.855 302.576 211.129V63.0514C302.576 59.1135 301.413 55.2632 299.234 51.9833L264.695 0M302.576 358.848V278.471C302.576 274.854 301.595 271.305 299.737 268.201L268.996 216.829M273.909 272.944V365M69.8317 358.848V216.829M302.576 0L334.455 52.2138C336.371 55.3523 337.385 58.9585 337.385 62.6358V212.574C337.385 216.519 338.551 220.376 340.738 223.66L370.205 267.908C372.392 271.192 373.559 275.049 373.559 278.994V365M273.909 57.0129V113.009C273.909 116.328 273.083 119.595 271.505 122.516L246.964 167.936C245.386 170.856 244.56 174.124 244.56 177.443V358.848M196.1 0L175.887 53.6016C175.036 55.8572 174.601 58.248 174.601 60.6586V112.601C174.601 116.179 175.56 119.691 177.379 122.772L203.901 167.68C205.72 170.761 206.68 174.273 206.68 177.85V365M138.768 0V112.064C138.768 115.979 139.917 119.808 142.073 123.077L171.295 167.375C173.451 170.643 174.601 174.473 174.601 178.388V358.848M69.8317 0L99.9341 52.3854C101.676 55.4173 102.593 58.8531 102.593 62.35V210.778C102.593 214.724 103.76 218.581 105.947 221.864L135.414 266.112C137.601 269.396 138.768 273.253 138.768 277.198V365M69.8317 57.0129V112.643C69.8317 116.194 68.8862 119.681 67.0925 122.746L37.0792 174.024C35.2854 177.089 34.34 180.576 34.34 184.127V358.848M34.34 0V112.951C34.34 116.307 33.4954 119.609 31.884 122.553L6.08199 169.694C4.47058 172.638 3.62598 175.94 3.62598 179.296V358.848" stroke="url(#paint0_linear)" stroke-width="2"/>
<path d="M7.65442 362.938C7.65442 364.835 6.14816 366.343 4.32721 366.343C2.50626 366.343 1 364.835 1 362.938C1 361.041 2.50626 359.534 4.32721 359.534C6.14816 359.534 7.65442 361.041 7.65442 362.938Z" stroke="url(#paint1_linear)" stroke-width="2"/>
<path d="M37.4076 361.931C37.4076 363.828 35.9013 365.336 34.0804 365.336C32.2594 365.336 30.7532 363.828 30.7532 361.931C30.7532 360.034 32.2594 358.527 34.0804 358.527C35.9013 358.527 37.4076 360.034 37.4076 361.931Z" stroke="url(#paint2_linear)" stroke-width="2"/>
<path d="M72.8282 361.931C72.8282 363.828 71.322 365.336 69.501 365.336C67.6801 365.336 66.1738 363.828 66.1738 361.931C66.1738 360.034 67.6801 358.527 69.501 358.527C71.322 358.527 72.8282 360.034 72.8282 361.931Z" stroke="url(#paint3_linear)" stroke-width="2"/>
<path d="M73.6532 213.807C73.6532 215.704 72.1469 217.212 70.326 217.212C68.505 217.212 66.9988 215.704 66.9988 213.807C66.9988 211.91 68.505 210.403 70.326 210.403C72.1469 210.403 73.6532 211.91 73.6532 213.807Z" stroke="url(#paint4_linear)" stroke-width="2"/>
<path d="M72.6544 54.4045C72.6544 56.3015 71.1482 57.809 69.3272 57.809C67.5063 57.809 66 56.3015 66 54.4045C66 52.5075 67.5063 51 69.3272 51C71.1482 51 72.6544 52.5075 72.6544 54.4045Z" stroke="url(#paint5_linear)" stroke-width="2"/>
<path d="M106.293 268.171C106.293 270.068 104.786 271.576 102.965 271.576C101.144 271.576 99.6382 270.068 99.6382 268.171C99.6382 266.274 101.144 264.767 102.965 264.767C104.786 264.767 106.293 266.274 106.293 268.171Z" stroke="url(#paint6_linear)" stroke-width="2"/>
<path d="M178.422 361.931C178.422 363.828 176.915 365.336 175.095 365.336C173.274 365.336 171.767 363.828 171.767 361.931C171.767 360.034 173.274 358.527 175.095 358.527C176.915 358.527 178.422 360.034 178.422 361.931Z" stroke="url(#paint7_linear)" stroke-width="2"/>
<path d="M247.926 361.931C247.926 363.828 246.42 365.336 244.599 365.336C242.778 365.336 241.272 363.828 241.272 361.931C241.272 360.034 242.778 358.527 244.599 358.527C246.42 358.527 247.926 360.034 247.926 361.931Z" stroke="url(#paint8_linear)" stroke-width="2"/>
<path d="M277.403 269.178C277.403 271.075 275.897 272.583 274.076 272.583C272.255 272.583 270.749 271.075 270.749 269.178C270.749 267.281 272.255 265.774 274.076 265.774C275.897 265.774 277.403 267.281 277.403 269.178Z" stroke="url(#paint9_linear)" stroke-width="2"/>
<path d="M306.391 361.931C306.391 363.828 304.884 365.336 303.063 365.336C301.242 365.336 299.736 363.828 299.736 361.931C299.736 360.034 301.242 358.527 303.063 358.527C304.884 358.527 306.391 360.034 306.391 361.931Z" stroke="url(#paint10_linear)" stroke-width="2"/>
<path d="M270.48 213.807C270.48 215.704 268.973 217.212 267.152 217.212C265.331 217.212 263.825 215.704 263.825 213.807C263.825 211.91 265.331 210.403 267.152 210.403C268.973 210.403 270.48 211.91 270.48 213.807Z" stroke="url(#paint11_linear)" stroke-width="2"/>
<path d="M277.654 54.4045C277.654 56.3015 276.148 57.809 274.327 57.809C272.506 57.809 271 56.3015 271 54.4045C271 52.5075 272.506 51 274.327 51C276.148 51 277.654 52.5075 277.654 54.4045Z" stroke="url(#paint12_linear)" stroke-width="2"/>
<path d="M340.822 361.931C340.822 363.828 339.316 365.336 337.495 365.336C335.674 365.336 334.168 363.828 334.168 361.931C334.168 360.034 335.674 358.527 337.495 358.527C339.316 358.527 340.822 360.034 340.822 361.931Z" stroke="url(#paint13_linear)" stroke-width="2"/>
<path d="M413 361.931C413 363.828 411.494 365.336 409.673 365.336C407.852 365.336 406.345 363.828 406.345 361.931C406.345 360.034 407.852 358.527 409.673 358.527C411.494 358.527 413 360.034 413 361.931Z" stroke="url(#paint14_linear)" stroke-width="2"/>
<path d="M7.65442 531.945C7.65442 533.842 6.14816 535.35 4.32721 535.35C2.50626 535.35 1 533.842 1 531.945C1 530.048 2.50626 528.541 4.32721 528.541C6.14816 528.541 7.65442 530.048 7.65442 531.945Z" stroke="url(#paint15_linear)" stroke-width="2"/>
<path d="M37.4076 531.945C37.4076 533.842 35.9013 535.35 34.0804 535.35C32.2594 535.35 30.7532 533.842 30.7532 531.945C30.7532 530.048 32.2594 528.541 34.0804 528.541C35.9013 528.541 37.4076 530.048 37.4076 531.945Z" stroke="url(#paint16_linear)" stroke-width="2"/>
<path d="M72.8282 531.945C72.8282 533.842 71.322 535.35 69.501 535.35C67.6801 535.35 66.1738 533.842 66.1738 531.945C66.1738 530.048 67.6801 528.541 69.501 528.541C71.322 528.541 72.8282 530.048 72.8282 531.945Z" stroke="url(#paint17_linear)" stroke-width="2"/>
<path d="M106.293 626.572C106.293 628.469 104.786 629.976 102.965 629.976C101.144 629.976 99.6382 628.469 99.6382 626.572C99.6382 624.675 101.144 623.167 102.965 623.167C104.786 623.167 106.293 624.675 106.293 626.572Z" stroke="url(#paint18_linear)" stroke-width="2"/>
<path d="M73.6532 679.929C73.6532 681.826 72.1469 683.334 70.326 683.334C68.505 683.334 66.9988 681.826 66.9988 679.929C66.9988 678.032 68.505 676.525 70.326 676.525C72.1469 676.525 73.6532 678.032 73.6532 679.929Z" stroke="url(#paint19_linear)" stroke-width="2"/>
<path d="M68.7079 835.975C68.7079 837.872 67.2016 839.379 65.3807 839.379C63.5597 839.379 62.0535 837.872 62.0535 835.975C62.0535 834.078 63.5597 832.57 65.3807 832.57C67.2016 832.57 68.7079 834.078 68.7079 835.975Z" stroke="url(#paint20_linear)" stroke-width="2"/>
<path d="M177.433 531.945C177.433 533.842 175.926 535.35 174.106 535.35C172.285 535.35 170.778 533.842 170.778 531.945C170.778 530.048 172.285 528.541 174.106 528.541C175.926 528.541 177.433 530.048 177.433 531.945Z" stroke="url(#paint21_linear)" stroke-width="2"/>
<path d="M247.926 531.945C247.926 533.842 246.42 535.35 244.599 535.35C242.778 535.35 241.272 533.842 241.272 531.945C241.272 530.048 242.778 528.541 244.599 528.541C246.42 528.541 247.926 530.048 247.926 531.945Z" stroke="url(#paint22_linear)" stroke-width="2"/>
<path d="M277.403 625.565C277.403 627.462 275.897 628.97 274.076 628.97C272.255 628.97 270.749 627.462 270.749 625.565C270.749 623.668 272.255 622.161 274.076 622.161C275.897 622.161 277.403 623.668 277.403 625.565Z" stroke="url(#paint23_linear)" stroke-width="2"/>
<path d="M305.401 531.945C305.401 533.842 303.895 535.35 302.074 535.35C300.253 535.35 298.747 533.842 298.747 531.945C298.747 530.048 300.253 528.541 302.074 528.541C303.895 528.541 305.401 530.048 305.401 531.945Z" stroke="url(#paint24_linear)" stroke-width="2"/>
<path d="M276.414 678.923C276.414 680.82 274.908 682.327 273.087 682.327C271.266 682.327 269.76 680.82 269.76 678.923C269.76 677.026 271.266 675.518 273.087 675.518C274.908 675.518 276.414 677.026 276.414 678.923Z" stroke="url(#paint25_linear)" stroke-width="2"/>
<path d="M277.403 835.975C277.403 837.872 275.897 839.379 274.076 839.379C272.255 839.379 270.749 837.872 270.749 835.975C270.749 834.078 272.255 832.57 274.076 832.57C275.897 832.57 277.403 834.078 277.403 835.975Z" stroke="url(#paint26_linear)" stroke-width="2"/>
<path d="M340.822 531.945C340.822 533.842 339.316 535.35 337.495 535.35C335.674 535.35 334.168 533.842 334.168 531.945C334.168 530.048 335.674 528.541 337.495 528.541C339.316 528.541 340.822 530.048 340.822 531.945Z" stroke="url(#paint27_linear)" stroke-width="2"/>
<path d="M412.011 531.945C412.011 533.842 410.505 535.35 408.684 535.35C406.863 535.35 405.356 533.842 405.356 531.945C405.356 530.048 406.863 528.541 408.684 528.541C410.505 528.541 412.011 530.048 412.011 531.945Z" stroke="url(#paint28_linear)" stroke-width="2"/>
<path d="M26.5089 440.204C24.1515 440.204 22.0209 439.683 20.1169 438.64C18.2355 437.597 16.7509 436.158 15.6629 434.322C14.5975 432.463 14.0649 430.389 14.0649 428.1C14.0649 425.811 14.5975 423.748 15.6629 421.912C16.7509 420.053 18.2469 418.603 20.1509 417.56C22.0549 416.517 24.1855 415.996 26.5429 415.996C28.3109 415.996 29.9429 416.291 31.4389 416.88C32.9349 417.469 34.2042 418.331 35.2469 419.464L33.6489 421.062C31.7902 419.181 29.4442 418.24 26.6109 418.24C24.7295 418.24 23.0182 418.671 21.4769 419.532C19.9355 420.393 18.7229 421.572 17.8389 423.068C16.9775 424.564 16.5469 426.241 16.5469 428.1C16.5469 429.959 16.9775 431.636 17.8389 433.132C18.7229 434.628 19.9355 435.807 21.4769 436.668C23.0182 437.529 24.7295 437.96 26.6109 437.96C29.4669 437.96 31.8129 437.008 33.6489 435.104L35.2469 436.702C34.2042 437.835 32.9235 438.708 31.4049 439.32C29.9089 439.909 28.2769 440.204 26.5089 440.204ZM42.4124 425.618C42.979 424.417 43.8177 423.51 44.9284 422.898C46.0617 422.286 47.4557 421.98 49.1104 421.98V424.326L48.5324 424.292C46.651 424.292 45.1777 424.87 44.1124 426.026C43.047 427.182 42.5144 428.803 42.5144 430.888V440H40.1004V422.116H42.4124V425.618ZM68.8872 431.806H53.9272C54.0632 433.665 54.7772 435.172 56.0692 436.328C57.3612 437.461 58.9932 438.028 60.9652 438.028C62.0759 438.028 63.0959 437.835 64.0252 437.45C64.9546 437.042 65.7592 436.453 66.4392 435.682L67.7992 437.246C67.0059 438.198 66.0086 438.923 64.8072 439.422C63.6286 439.921 62.3252 440.17 60.8972 440.17C59.0612 440.17 57.4292 439.785 56.0012 439.014C54.5959 438.221 53.4966 437.133 52.7032 435.75C51.9099 434.367 51.5132 432.803 51.5132 431.058C51.5132 429.313 51.8872 427.749 52.6352 426.366C53.4059 424.983 54.4486 423.907 55.7632 423.136C57.1006 422.365 58.5966 421.98 60.2512 421.98C61.9059 421.98 63.3906 422.365 64.7052 423.136C66.0199 423.907 67.0512 424.983 67.7992 426.366C68.5472 427.726 68.9212 429.29 68.9212 431.058L68.8872 431.806ZM60.2512 424.054C58.5286 424.054 57.0779 424.609 55.8992 425.72C54.7432 426.808 54.0859 428.236 53.9272 430.004H66.6092C66.4506 428.236 65.7819 426.808 64.6032 425.72C63.4472 424.609 61.9966 424.054 60.2512 424.054ZM79.5927 421.98C81.9274 421.98 83.718 422.569 84.9647 423.748C86.2114 424.904 86.8347 426.627 86.8347 428.916V440H84.5227V437.212C83.9787 438.141 83.174 438.867 82.1087 439.388C81.066 439.909 79.8194 440.17 78.3687 440.17C76.374 440.17 74.7874 439.694 73.6087 438.742C72.43 437.79 71.8407 436.532 71.8407 434.968C71.8407 433.449 72.3847 432.225 73.4727 431.296C74.5834 430.367 76.34 429.902 78.7427 429.902H84.4207V428.814C84.4207 427.273 83.99 426.105 83.1287 425.312C82.2674 424.496 81.0094 424.088 79.3547 424.088C78.2214 424.088 77.1334 424.281 76.0907 424.666C75.048 425.029 74.1527 425.539 73.4047 426.196L72.3167 424.394C73.2234 423.623 74.3114 423.034 75.5807 422.626C76.85 422.195 78.1874 421.98 79.5927 421.98ZM78.7427 438.266C80.1027 438.266 81.27 437.96 82.2447 437.348C83.2194 436.713 83.9447 435.807 84.4207 434.628V431.704H78.8107C75.7507 431.704 74.2207 432.769 74.2207 434.9C74.2207 435.943 74.6174 436.77 75.4107 437.382C76.204 437.971 77.3147 438.266 78.7427 438.266ZM102.809 438.912C102.356 439.32 101.789 439.637 101.109 439.864C100.452 440.068 99.7607 440.17 99.0354 440.17C97.3581 440.17 96.0661 439.717 95.1594 438.81C94.2527 437.903 93.7994 436.623 93.7994 434.968V424.156H90.6034V422.116H93.7994V418.206H96.2134V422.116H101.653V424.156H96.2134V434.832C96.2134 435.897 96.4741 436.713 96.9954 437.28C97.5394 437.824 98.3101 438.096 99.3074 438.096C99.8061 438.096 100.282 438.017 100.735 437.858C101.211 437.699 101.619 437.473 101.959 437.178L102.809 438.912ZM122.145 431.806H107.185C107.321 433.665 108.035 435.172 109.327 436.328C110.619 437.461 112.251 438.028 114.223 438.028C115.334 438.028 116.354 437.835 117.283 437.45C118.212 437.042 119.017 436.453 119.697 435.682L121.057 437.246C120.264 438.198 119.266 438.923 118.065 439.422C116.886 439.921 115.583 440.17 114.155 440.17C112.319 440.17 110.687 439.785 109.259 439.014C107.854 438.221 106.754 437.133 105.961 435.75C105.168 434.367 104.771 432.803 104.771 431.058C104.771 429.313 105.145 427.749 105.893 426.366C106.664 424.983 107.706 423.907 109.021 423.136C110.358 422.365 111.854 421.98 113.509 421.98C115.164 421.98 116.648 422.365 117.963 423.136C119.278 423.907 120.309 424.983 121.057 426.366C121.805 427.726 122.179 429.29 122.179 431.058L122.145 431.806ZM113.509 424.054C111.786 424.054 110.336 424.609 109.157 425.72C108.001 426.808 107.344 428.236 107.185 430.004H119.867C119.708 428.236 119.04 426.808 117.861 425.72C116.705 424.609 115.254 424.054 113.509 424.054ZM152.311 414.772V440H149.999V436.464C149.274 437.665 148.31 438.583 147.109 439.218C145.93 439.853 144.593 440.17 143.097 440.17C141.42 440.17 139.901 439.785 138.541 439.014C137.181 438.243 136.116 437.167 135.345 435.784C134.574 434.401 134.189 432.826 134.189 431.058C134.189 429.29 134.574 427.715 135.345 426.332C136.116 424.949 137.181 423.884 138.541 423.136C139.901 422.365 141.42 421.98 143.097 421.98C144.548 421.98 145.851 422.286 147.007 422.898C148.186 423.487 149.149 424.36 149.897 425.516V414.772H152.311ZM143.301 438.028C144.548 438.028 145.67 437.745 146.667 437.178C147.687 436.589 148.48 435.761 149.047 434.696C149.636 433.631 149.931 432.418 149.931 431.058C149.931 429.698 149.636 428.485 149.047 427.42C148.48 426.355 147.687 425.539 146.667 424.972C145.67 424.383 144.548 424.088 143.301 424.088C142.032 424.088 140.887 424.383 139.867 424.972C138.87 425.539 138.076 426.355 137.487 427.42C136.92 428.485 136.637 429.698 136.637 431.058C136.637 432.418 136.92 433.631 137.487 434.696C138.076 435.761 138.87 436.589 139.867 437.178C140.887 437.745 142.032 438.028 143.301 438.028ZM174.606 431.806H159.646C159.782 433.665 160.496 435.172 161.788 436.328C163.08 437.461 164.712 438.028 166.684 438.028C167.795 438.028 168.815 437.835 169.744 437.45C170.673 437.042 171.478 436.453 172.158 435.682L173.518 437.246C172.725 438.198 171.727 438.923 170.526 439.422C169.347 439.921 168.044 440.17 166.616 440.17C164.78 440.17 163.148 439.785 161.72 439.014C160.315 438.221 159.215 437.133 158.422 435.75C157.629 434.367 157.232 432.803 157.232 431.058C157.232 429.313 157.606 427.749 158.354 426.366C159.125 424.983 160.167 423.907 161.482 423.136C162.819 422.365 164.315 421.98 165.97 421.98C167.625 421.98 169.109 422.365 170.424 423.136C171.739 423.907 172.77 424.983 173.518 426.366C174.266 427.726 174.64 429.29 174.64 431.058L174.606 431.806ZM165.97 424.054C164.247 424.054 162.797 424.609 161.618 425.72C160.462 426.808 159.805 428.236 159.646 430.004H172.328C172.169 428.236 171.501 426.808 170.322 425.72C169.166 424.609 167.715 424.054 165.97 424.054ZM194.249 422.116L186.293 440H183.811L175.889 422.116H178.405L185.103 437.348L191.869 422.116H194.249ZM197.649 422.116H200.063V440H197.649V422.116ZM198.873 418.206C198.375 418.206 197.955 418.036 197.615 417.696C197.275 417.356 197.105 416.948 197.105 416.472C197.105 416.019 197.275 415.622 197.615 415.282C197.955 414.942 198.375 414.772 198.873 414.772C199.372 414.772 199.791 414.942 200.131 415.282C200.471 415.599 200.641 415.985 200.641 416.438C200.641 416.937 200.471 417.356 200.131 417.696C199.791 418.036 199.372 418.206 198.873 418.206ZM214.192 440.17C212.424 440.17 210.837 439.785 209.432 439.014C208.049 438.243 206.961 437.167 206.168 435.784C205.375 434.379 204.978 432.803 204.978 431.058C204.978 429.313 205.375 427.749 206.168 426.366C206.961 424.983 208.049 423.907 209.432 423.136C210.837 422.365 212.424 421.98 214.192 421.98C215.733 421.98 217.105 422.286 218.306 422.898C219.53 423.487 220.493 424.36 221.196 425.516L219.394 426.74C218.805 425.856 218.057 425.199 217.15 424.768C216.243 424.315 215.257 424.088 214.192 424.088C212.9 424.088 211.733 424.383 210.69 424.972C209.67 425.539 208.865 426.355 208.276 427.42C207.709 428.485 207.426 429.698 207.426 431.058C207.426 432.441 207.709 433.665 208.276 434.73C208.865 435.773 209.67 436.589 210.69 437.178C211.733 437.745 212.9 438.028 214.192 438.028C215.257 438.028 216.243 437.813 217.15 437.382C218.057 436.951 218.805 436.294 219.394 435.41L221.196 436.634C220.493 437.79 219.53 438.674 218.306 439.286C217.082 439.875 215.711 440.17 214.192 440.17ZM241.211 431.806H226.251C226.387 433.665 227.101 435.172 228.393 436.328C229.685 437.461 231.317 438.028 233.289 438.028C234.4 438.028 235.42 437.835 236.349 437.45C237.279 437.042 238.083 436.453 238.763 435.682L240.123 437.246C239.33 438.198 238.333 438.923 237.131 439.422C235.953 439.921 234.649 440.17 233.221 440.17C231.385 440.17 229.753 439.785 228.325 439.014C226.92 438.221 225.821 437.133 225.027 435.75C224.234 434.367 223.837 432.803 223.837 431.058C223.837 429.313 224.211 427.749 224.959 426.366C225.73 424.983 226.773 423.907 228.087 423.136C229.425 422.365 230.921 421.98 232.575 421.98C234.23 421.98 235.715 422.365 237.029 423.136C238.344 423.907 239.375 424.983 240.123 426.366C240.871 427.726 241.245 429.29 241.245 431.058L241.211 431.806ZM232.575 424.054C230.853 424.054 229.402 424.609 228.223 425.72C227.067 426.808 226.41 428.236 226.251 430.004H238.933C238.775 428.236 238.106 426.808 236.927 425.72C235.771 424.609 234.321 424.054 232.575 424.054ZM250.953 440.17C249.502 440.17 248.108 439.966 246.771 439.558C245.456 439.127 244.425 438.595 243.677 437.96L244.765 436.056C245.513 436.645 246.454 437.133 247.587 437.518C248.72 437.881 249.899 438.062 251.123 438.062C252.755 438.062 253.956 437.813 254.727 437.314C255.52 436.793 255.917 436.067 255.917 435.138C255.917 434.481 255.702 433.971 255.271 433.608C254.84 433.223 254.296 432.939 253.639 432.758C252.982 432.554 252.109 432.361 251.021 432.18C249.57 431.908 248.403 431.636 247.519 431.364C246.635 431.069 245.876 430.582 245.241 429.902C244.629 429.222 244.323 428.281 244.323 427.08C244.323 425.584 244.946 424.36 246.193 423.408C247.44 422.456 249.174 421.98 251.395 421.98C252.551 421.98 253.707 422.139 254.863 422.456C256.019 422.751 256.971 423.147 257.719 423.646L256.665 425.584C255.192 424.564 253.435 424.054 251.395 424.054C249.854 424.054 248.686 424.326 247.893 424.87C247.122 425.414 246.737 426.128 246.737 427.012C246.737 427.692 246.952 428.236 247.383 428.644C247.836 429.052 248.392 429.358 249.049 429.562C249.706 429.743 250.613 429.936 251.769 430.14C253.197 430.412 254.342 430.684 255.203 430.956C256.064 431.228 256.801 431.693 257.413 432.35C258.025 433.007 258.331 433.914 258.331 435.07C258.331 436.634 257.674 437.881 256.359 438.81C255.067 439.717 253.265 440.17 250.953 440.17ZM281.11 438.912C280.657 439.32 280.09 439.637 279.41 439.864C278.753 440.068 278.062 440.17 277.336 440.17C275.659 440.17 274.367 439.717 273.46 438.81C272.554 437.903 272.1 436.623 272.1 434.968V424.156H268.904V422.116H272.1V418.206H274.514V422.116H279.954V424.156H274.514V434.832C274.514 435.897 274.775 436.713 275.296 437.28C275.84 437.824 276.611 438.096 277.608 438.096C278.107 438.096 278.583 438.017 279.036 437.858C279.512 437.699 279.92 437.473 280.26 437.178L281.11 438.912ZM294.617 421.98C296.861 421.98 298.64 422.637 299.955 423.952C301.292 425.244 301.961 427.137 301.961 429.63V440H299.547V429.868C299.547 428.009 299.082 426.593 298.153 425.618C297.223 424.643 295.897 424.156 294.175 424.156C292.248 424.156 290.718 424.734 289.585 425.89C288.474 427.023 287.919 428.599 287.919 430.616V440H285.505V414.772H287.919V425.244C288.576 424.201 289.483 423.397 290.639 422.83C291.795 422.263 293.121 421.98 294.617 421.98ZM314.77 421.98C317.105 421.98 318.896 422.569 320.142 423.748C321.389 424.904 322.012 426.627 322.012 428.916V440H319.7V437.212C319.156 438.141 318.352 438.867 317.286 439.388C316.244 439.909 314.997 440.17 313.546 440.17C311.552 440.17 309.965 439.694 308.786 438.742C307.608 437.79 307.018 436.532 307.018 434.968C307.018 433.449 307.562 432.225 308.65 431.296C309.761 430.367 311.518 429.902 313.92 429.902H319.598V428.814C319.598 427.273 319.168 426.105 318.306 425.312C317.445 424.496 316.187 424.088 314.532 424.088C313.399 424.088 312.311 424.281 311.268 424.666C310.226 425.029 309.33 425.539 308.582 426.196L307.494 424.394C308.401 423.623 309.489 423.034 310.758 422.626C312.028 422.195 313.365 421.98 314.77 421.98ZM313.92 438.266C315.28 438.266 316.448 437.96 317.422 437.348C318.397 436.713 319.122 435.807 319.598 434.628V431.704H313.988C310.928 431.704 309.398 432.769 309.398 434.9C309.398 435.943 309.795 436.77 310.588 437.382C311.382 437.971 312.492 438.266 313.92 438.266ZM337.987 438.912C337.534 439.32 336.967 439.637 336.287 439.864C335.63 440.068 334.938 440.17 334.213 440.17C332.536 440.17 331.244 439.717 330.337 438.81C329.43 437.903 328.977 436.623 328.977 434.968V424.156H325.781V422.116H328.977V418.206H331.391V422.116H336.831V424.156H331.391V434.832C331.391 435.897 331.652 436.713 332.173 437.28C332.717 437.824 333.488 438.096 334.485 438.096C334.984 438.096 335.46 438.017 335.913 437.858C336.389 437.699 336.797 437.473 337.137 437.178L337.987 438.912ZM357.536 421.98C359.871 421.98 361.661 422.569 362.908 423.748C364.155 424.904 364.778 426.627 364.778 428.916V440H362.466V437.212C361.922 438.141 361.117 438.867 360.052 439.388C359.009 439.909 357.763 440.17 356.312 440.17C354.317 440.17 352.731 439.694 351.552 438.742C350.373 437.79 349.784 436.532 349.784 434.968C349.784 433.449 350.328 432.225 351.416 431.296C352.527 430.367 354.283 429.902 356.686 429.902H362.364V428.814C362.364 427.273 361.933 426.105 361.072 425.312C360.211 424.496 358.953 424.088 357.298 424.088C356.165 424.088 355.077 424.281 354.034 424.666C352.991 425.029 352.096 425.539 351.348 426.196L350.26 424.394C351.167 423.623 352.255 423.034 353.524 422.626C354.793 422.195 356.131 421.98 357.536 421.98ZM356.686 438.266C358.046 438.266 359.213 437.96 360.188 437.348C361.163 436.713 361.888 435.807 362.364 434.628V431.704H356.754C353.694 431.704 352.164 432.769 352.164 434.9C352.164 435.943 352.561 436.77 353.354 437.382C354.147 437.971 355.258 438.266 356.686 438.266ZM373.647 425.618C374.213 424.417 375.052 423.51 376.163 422.898C377.296 422.286 378.69 421.98 380.345 421.98V424.326L379.767 424.292C377.885 424.292 376.412 424.87 375.347 426.026C374.281 427.182 373.749 428.803 373.749 430.888V440H371.335V422.116H373.647V425.618ZM400.122 431.806H385.162C385.298 433.665 386.012 435.172 387.304 436.328C388.596 437.461 390.228 438.028 392.2 438.028C393.31 438.028 394.33 437.835 395.26 437.45C396.189 437.042 396.994 436.453 397.674 435.682L399.034 437.246C398.24 438.198 397.243 438.923 396.042 439.422C394.863 439.921 393.56 440.17 392.132 440.17C390.296 440.17 388.664 439.785 387.236 439.014C385.83 438.221 384.731 437.133 383.938 435.75C383.144 434.367 382.748 432.803 382.748 431.058C382.748 429.313 383.122 427.749 383.87 426.366C384.64 424.983 385.683 423.907 386.998 423.136C388.335 422.365 389.831 421.98 391.486 421.98C393.14 421.98 394.625 422.365 395.94 423.136C397.254 423.907 398.286 424.983 399.034 426.366C399.782 427.726 400.156 429.29 400.156 431.058L400.122 431.806ZM391.486 424.054C389.763 424.054 388.312 424.609 387.134 425.72C385.978 426.808 385.32 428.236 385.162 430.004H397.844C397.685 428.236 397.016 426.808 395.838 425.72C394.682 424.609 393.231 424.054 391.486 424.054ZM134.701 479.912C134.248 480.32 133.681 480.637 133.001 480.864C132.344 481.068 131.652 481.17 130.927 481.17C129.25 481.17 127.958 480.717 127.051 479.81C126.144 478.903 125.691 477.623 125.691 475.968V465.156H122.495V463.116H125.691V459.206H128.105V463.116H133.545V465.156H128.105V475.832C128.105 476.897 128.366 477.713 128.887 478.28C129.431 478.824 130.202 479.096 131.199 479.096C131.698 479.096 132.174 479.017 132.627 478.858C133.103 478.699 133.511 478.473 133.851 478.178L134.701 479.912ZM141.407 466.618C141.974 465.417 142.813 464.51 143.923 463.898C145.057 463.286 146.451 462.98 148.105 462.98V465.326L147.527 465.292C145.646 465.292 144.173 465.87 143.107 467.026C142.042 468.182 141.509 469.803 141.509 471.888V481H139.095V463.116H141.407V466.618ZM168.858 463.116V481H166.546V477.736C165.911 478.824 165.039 479.674 163.928 480.286C162.817 480.875 161.548 481.17 160.12 481.17C157.785 481.17 155.938 480.524 154.578 479.232C153.241 477.917 152.572 476.002 152.572 473.486V463.116H154.986V473.248C154.986 475.129 155.451 476.557 156.38 477.532C157.309 478.507 158.635 478.994 160.358 478.994C162.239 478.994 163.724 478.427 164.812 477.294C165.9 476.138 166.444 474.54 166.444 472.5V463.116H168.858ZM175.619 455.772H178.033V481H175.619V455.772ZM199.778 463.116L190.836 483.142C190.11 484.819 189.272 486.009 188.32 486.712C187.368 487.415 186.223 487.766 184.886 487.766C184.024 487.766 183.22 487.63 182.472 487.358C181.724 487.086 181.078 486.678 180.534 486.134L181.656 484.332C182.562 485.239 183.65 485.692 184.92 485.692C185.736 485.692 186.427 485.465 186.994 485.012C187.583 484.559 188.127 483.788 188.626 482.7L189.408 480.966L181.418 463.116H183.934L190.666 478.314L197.398 463.116H199.778ZM227.104 463.116L218.162 483.142C217.437 484.819 216.598 486.009 215.646 486.712C214.694 487.415 213.549 487.766 212.212 487.766C211.351 487.766 210.546 487.63 209.798 487.358C209.05 487.086 208.404 486.678 207.86 486.134L208.982 484.332C209.889 485.239 210.977 485.692 212.246 485.692C213.062 485.692 213.753 485.465 214.32 485.012C214.909 484.559 215.453 483.788 215.952 482.7L216.734 480.966L208.744 463.116H211.26L217.992 478.314L224.724 463.116H227.104ZM237.316 481.17C235.593 481.17 234.04 480.785 232.658 480.014C231.275 479.221 230.187 478.133 229.394 476.75C228.6 475.367 228.204 473.803 228.204 472.058C228.204 470.313 228.6 468.749 229.394 467.366C230.187 465.983 231.275 464.907 232.658 464.136C234.04 463.365 235.593 462.98 237.316 462.98C239.038 462.98 240.591 463.365 241.974 464.136C243.356 464.907 244.433 465.983 245.204 467.366C245.997 468.749 246.394 470.313 246.394 472.058C246.394 473.803 245.997 475.367 245.204 476.75C244.433 478.133 243.356 479.221 241.974 480.014C240.591 480.785 239.038 481.17 237.316 481.17ZM237.316 479.028C238.585 479.028 239.718 478.745 240.716 478.178C241.736 477.589 242.529 476.761 243.096 475.696C243.662 474.631 243.946 473.418 243.946 472.058C243.946 470.698 243.662 469.485 243.096 468.42C242.529 467.355 241.736 466.539 240.716 465.972C239.718 465.383 238.585 465.088 237.316 465.088C236.046 465.088 234.902 465.383 233.882 465.972C232.884 466.539 232.091 467.355 231.502 468.42C230.935 469.485 230.652 470.698 230.652 472.058C230.652 473.418 230.935 474.631 231.502 475.696C232.091 476.761 232.884 477.589 233.882 478.178C234.902 478.745 236.046 479.028 237.316 479.028ZM267.438 463.116V481H265.126V477.736C264.491 478.824 263.619 479.674 262.508 480.286C261.397 480.875 260.128 481.17 258.7 481.17C256.365 481.17 254.518 480.524 253.158 479.232C251.821 477.917 251.152 476.002 251.152 473.486V463.116H253.566V473.248C253.566 475.129 254.031 476.557 254.96 477.532C255.889 478.507 257.215 478.994 258.938 478.994C260.819 478.994 262.304 478.427 263.392 477.294C264.48 476.138 265.024 474.54 265.024 472.5V463.116H267.438ZM276.511 466.618C277.078 465.417 277.916 464.51 279.027 463.898C280.16 463.286 281.554 462.98 283.209 462.98V465.326L282.631 465.292C280.75 465.292 279.276 465.87 278.211 467.026C277.146 468.182 276.613 469.803 276.613 471.888V481H274.199V463.116H276.511V466.618ZM292.507 481.17C291.056 481.17 289.662 480.966 288.325 480.558C287.01 480.127 285.979 479.595 285.231 478.96L286.319 477.056C287.067 477.645 288.007 478.133 289.141 478.518C290.274 478.881 291.453 479.062 292.677 479.062C294.309 479.062 295.51 478.813 296.281 478.314C297.074 477.793 297.471 477.067 297.471 476.138C297.471 475.481 297.255 474.971 296.825 474.608C296.394 474.223 295.85 473.939 295.193 473.758C294.535 473.554 293.663 473.361 292.575 473.18C291.124 472.908 289.957 472.636 289.073 472.364C288.189 472.069 287.429 471.582 286.795 470.902C286.183 470.222 285.877 469.281 285.877 468.08C285.877 466.584 286.5 465.36 287.747 464.408C288.993 463.456 290.727 462.98 292.949 462.98C294.105 462.98 295.261 463.139 296.417 463.456C297.573 463.751 298.525 464.147 299.273 464.646L298.219 466.584C296.745 465.564 294.989 465.054 292.949 465.054C291.407 465.054 290.24 465.326 289.447 465.87C288.676 466.414 288.291 467.128 288.291 468.012C288.291 468.692 288.506 469.236 288.937 469.644C289.39 470.052 289.945 470.358 290.603 470.562C291.26 470.743 292.167 470.936 293.323 471.14C294.751 471.412 295.895 471.684 296.757 471.956C297.618 472.228 298.355 472.693 298.967 473.35C299.579 474.007 299.885 474.914 299.885 476.07C299.885 477.634 299.227 478.881 297.913 479.81C296.621 480.717 294.819 481.17 292.507 481.17Z" fill="black"/>
<defs>
<linearGradient id="paint0_linear" x1="198.489" y1="-6.2849" x2="198.489" y2="895.757" gradientUnits="userSpaceOnUse">
<stop stop-color="#AD00FF"/>
<stop offset="1" stop-color="#0057FF"/>
</linearGradient>
<linearGradient id="paint1_linear" x1="4.32721" y1="358.534" x2="4.32721" y2="367.343" gradientUnits="userSpaceOnUse">
<stop stop-color="#AD00FF"/>
<stop offset="1" stop-color="#0057FF"/>
</linearGradient>
<linearGradient id="paint2_linear" x1="34.0804" y1="357.527" x2="34.0804" y2="366.336" gradientUnits="userSpaceOnUse">
<stop stop-color="#AD00FF"/>
<stop offset="1" stop-color="#0057FF"/>
</linearGradient>
<linearGradient id="paint3_linear" x1="69.501" y1="357.527" x2="69.501" y2="366.336" gradientUnits="userSpaceOnUse">
<stop stop-color="#AD00FF"/>
<stop offset="1" stop-color="#0057FF"/>
</linearGradient>
<linearGradient id="paint4_linear" x1="70.326" y1="209.403" x2="70.326" y2="218.212" gradientUnits="userSpaceOnUse">
<stop stop-color="#AD00FF"/>
<stop offset="1" stop-color="#0057FF"/>
</linearGradient>
<linearGradient id="paint5_linear" x1="69.3272" y1="50" x2="69.3272" y2="58.809" gradientUnits="userSpaceOnUse">
<stop stop-color="#AD00FF"/>
<stop offset="1" stop-color="#0057FF"/>
</linearGradient>
<linearGradient id="paint6_linear" x1="102.965" y1="263.767" x2="102.965" y2="272.576" gradientUnits="userSpaceOnUse">
<stop stop-color="#AD00FF"/>
<stop offset="1" stop-color="#0057FF"/>
</linearGradient>
<linearGradient id="paint7_linear" x1="175.095" y1="357.527" x2="175.095" y2="366.336" gradientUnits="userSpaceOnUse">
<stop stop-color="#AD00FF"/>
<stop offset="1" stop-color="#0057FF"/>
</linearGradient>
<linearGradient id="paint8_linear" x1="244.599" y1="357.527" x2="244.599" y2="366.336" gradientUnits="userSpaceOnUse">
<stop stop-color="#AD00FF"/>
<stop offset="1" stop-color="#0057FF"/>
</linearGradient>
<linearGradient id="paint9_linear" x1="274.076" y1="264.774" x2="274.076" y2="273.583" gradientUnits="userSpaceOnUse">
<stop stop-color="#AD00FF"/>
<stop offset="1" stop-color="#0057FF"/>
</linearGradient>
<linearGradient id="paint10_linear" x1="303.063" y1="357.527" x2="303.063" y2="366.336" gradientUnits="userSpaceOnUse">
<stop stop-color="#AD00FF"/>
<stop offset="1" stop-color="#0057FF"/>
</linearGradient>
<linearGradient id="paint11_linear" x1="267.152" y1="209.403" x2="267.152" y2="218.212" gradientUnits="userSpaceOnUse">
<stop stop-color="#AD00FF"/>
<stop offset="1" stop-color="#0057FF"/>
</linearGradient>
<linearGradient id="paint12_linear" x1="274.327" y1="50" x2="274.327" y2="58.809" gradientUnits="userSpaceOnUse">
<stop stop-color="#AD00FF"/>
<stop offset="1" stop-color="#0057FF"/>
</linearGradient>
<linearGradient id="paint13_linear" x1="337.495" y1="357.527" x2="337.495" y2="366.336" gradientUnits="userSpaceOnUse">
<stop stop-color="#AD00FF"/>
<stop offset="1" stop-color="#0057FF"/>
</linearGradient>
<linearGradient id="paint14_linear" x1="409.673" y1="357.527" x2="409.673" y2="366.336" gradientUnits="userSpaceOnUse">
<stop stop-color="#AD00FF"/>
<stop offset="1" stop-color="#0057FF"/>
</linearGradient>
<linearGradient id="paint15_linear" x1="4.32721" y1="527.541" x2="4.32721" y2="536.35" gradientUnits="userSpaceOnUse">
<stop stop-color="#AD00FF"/>
<stop offset="1" stop-color="#0057FF"/>
</linearGradient>
<linearGradient id="paint16_linear" x1="34.0804" y1="527.541" x2="34.0804" y2="536.35" gradientUnits="userSpaceOnUse">
<stop stop-color="#AD00FF"/>
<stop offset="1" stop-color="#0057FF"/>
</linearGradient>
<linearGradient id="paint17_linear" x1="69.501" y1="527.541" x2="69.501" y2="536.35" gradientUnits="userSpaceOnUse">
<stop stop-color="#AD00FF"/>
<stop offset="1" stop-color="#0057FF"/>
</linearGradient>
<linearGradient id="paint18_linear" x1="102.965" y1="622.167" x2="102.965" y2="630.976" gradientUnits="userSpaceOnUse">
<stop stop-color="#AD00FF"/>
<stop offset="1" stop-color="#0057FF"/>
</linearGradient>
<linearGradient id="paint19_linear" x1="70.326" y1="675.525" x2="70.326" y2="684.334" gradientUnits="userSpaceOnUse">
<stop stop-color="#AD00FF"/>
<stop offset="1" stop-color="#0057FF"/>
</linearGradient>
<linearGradient id="paint20_linear" x1="65.3807" y1="831.57" x2="65.3807" y2="840.379" gradientUnits="userSpaceOnUse">
<stop stop-color="#AD00FF"/>
<stop offset="1" stop-color="#0057FF"/>
</linearGradient>
<linearGradient id="paint21_linear" x1="174.106" y1="527.541" x2="174.106" y2="536.35" gradientUnits="userSpaceOnUse">
<stop stop-color="#AD00FF"/>
<stop offset="1" stop-color="#0057FF"/>
</linearGradient>
<linearGradient id="paint22_linear" x1="244.599" y1="527.541" x2="244.599" y2="536.35" gradientUnits="userSpaceOnUse">
<stop stop-color="#AD00FF"/>
<stop offset="1" stop-color="#0057FF"/>
</linearGradient>
<linearGradient id="paint23_linear" x1="274.076" y1="621.161" x2="274.076" y2="629.97" gradientUnits="userSpaceOnUse">
<stop stop-color="#AD00FF"/>
<stop offset="1" stop-color="#0057FF"/>
</linearGradient>
<linearGradient id="paint24_linear" x1="302.074" y1="527.541" x2="302.074" y2="536.35" gradientUnits="userSpaceOnUse">
<stop stop-color="#AD00FF"/>
<stop offset="1" stop-color="#0057FF"/>
</linearGradient>
<linearGradient id="paint25_linear" x1="273.087" y1="674.518" x2="273.087" y2="683.327" gradientUnits="userSpaceOnUse">
<stop stop-color="#AD00FF"/>
<stop offset="1" stop-color="#0057FF"/>
</linearGradient>
<linearGradient id="paint26_linear" x1="274.076" y1="831.57" x2="274.076" y2="840.379" gradientUnits="userSpaceOnUse">
<stop stop-color="#AD00FF"/>
<stop offset="1" stop-color="#0057FF"/>
</linearGradient>
<linearGradient id="paint27_linear" x1="337.495" y1="527.541" x2="337.495" y2="536.35" gradientUnits="userSpaceOnUse">
<stop stop-color="#AD00FF"/>
<stop offset="1" stop-color="#0057FF"/>
</linearGradient>
<linearGradient id="paint28_linear" x1="408.684" y1="527.541" x2="408.684" y2="536.35" gradientUnits="userSpaceOnUse">
<stop stop-color="#AD00FF"/>
<stop offset="1" stop-color="#0057FF"/>
</linearGradient>
</defs>
</svg>
