<svg width="394" height="391" viewBox="0 0 394 391" fill="none" xmlns="http://www.w3.org/2000/svg">
<path d="M25 7V217C25 219.761 27.2386 222 30 222H196H365C367.761 222 370 219.761 370 217V7C370 4.23858 367.761 2 365 2H30C27.2386 2 25 4.23857 25 7Z" stroke="url(#paint0_linear)" stroke-width="3"/>
<path d="M2 224V240C2 241.105 2.89543 242 4 242H197H390C391.105 242 392 241.105 392 240V224C392 222.895 391.105 222 390 222H227.828C227.298 222 226.789 222.211 226.414 222.586L217.586 231.414C217.211 231.789 216.702 232 216.172 232H197H177.828C177.298 232 176.789 231.789 176.414 231.414L167.586 222.586C167.211 222.211 166.702 222 166.172 222H4C2.89543 222 2 222.895 2 224Z" stroke="url(#paint1_linear)" stroke-width="3"/>
<path d="M95.8993 314.8C99.1153 314.8 101.635 315.568 103.459 317.104C105.283 318.64 106.195 320.752 106.195 323.44C106.195 326.128 105.283 328.24 103.459 329.776C101.635 331.288 99.1153 332.044 95.8993 332.044H89.1313V340H86.4673V314.8H95.8993ZM95.8273 329.704C98.3233 329.704 100.231 329.164 101.551 328.084C102.871 326.98 103.531 325.432 103.531 323.44C103.531 321.4 102.871 319.84 101.551 318.76C100.231 317.656 98.3233 317.104 95.8273 317.104H89.1313V329.704H95.8273ZM127.798 331.324H111.958C112.102 333.292 112.858 334.888 114.226 336.112C115.594 337.312 117.322 337.912 119.41 337.912C120.586 337.912 121.666 337.708 122.65 337.3C123.634 336.868 124.486 336.244 125.206 335.428L126.646 337.084C125.806 338.092 124.75 338.86 123.478 339.388C122.23 339.916 120.85 340.18 119.338 340.18C117.394 340.18 115.666 339.772 114.154 338.956C112.666 338.116 111.502 336.964 110.662 335.5C109.822 334.036 109.402 332.38 109.402 330.532C109.402 328.684 109.798 327.028 110.59 325.564C111.406 324.1 112.51 322.96 113.902 322.144C115.318 321.328 116.902 320.92 118.654 320.92C120.406 320.92 121.978 321.328 123.37 322.144C124.762 322.96 125.854 324.1 126.646 325.564C127.438 327.004 127.834 328.66 127.834 330.532L127.798 331.324ZM118.654 323.116C116.83 323.116 115.294 323.704 114.046 324.88C112.822 326.032 112.126 327.544 111.958 329.416H125.386C125.218 327.544 124.51 326.032 123.262 324.88C122.038 323.704 120.502 323.116 118.654 323.116ZM135.485 324.772C136.085 323.5 136.973 322.54 138.149 321.892C139.349 321.244 140.825 320.92 142.577 320.92V323.404L141.965 323.368C139.973 323.368 138.413 323.98 137.285 325.204C136.157 326.428 135.593 328.144 135.593 330.352V340H133.037V321.064H135.485V324.772ZM152.421 340.18C150.885 340.18 149.409 339.964 147.993 339.532C146.601 339.076 145.509 338.512 144.717 337.84L145.869 335.824C146.661 336.448 147.657 336.964 148.857 337.372C150.057 337.756 151.305 337.948 152.601 337.948C154.329 337.948 155.601 337.684 156.417 337.156C157.257 336.604 157.677 335.836 157.677 334.852C157.677 334.156 157.449 333.616 156.993 333.232C156.537 332.824 155.961 332.524 155.265 332.332C154.569 332.116 153.645 331.912 152.493 331.72C150.957 331.432 149.721 331.144 148.785 330.856C147.849 330.544 147.045 330.028 146.373 329.308C145.725 328.588 145.401 327.592 145.401 326.32C145.401 324.736 146.061 323.44 147.381 322.432C148.701 321.424 150.537 320.92 152.889 320.92C154.113 320.92 155.337 321.088 156.561 321.424C157.785 321.736 158.793 322.156 159.585 322.684L158.469 324.736C156.909 323.656 155.049 323.116 152.889 323.116C151.257 323.116 150.021 323.404 149.181 323.98C148.365 324.556 147.957 325.312 147.957 326.248C147.957 326.968 148.185 327.544 148.641 327.976C149.121 328.408 149.709 328.732 150.405 328.948C151.101 329.14 152.061 329.344 153.285 329.56C154.797 329.848 156.009 330.136 156.921 330.424C157.833 330.712 158.613 331.204 159.261 331.9C159.909 332.596 160.233 333.556 160.233 334.78C160.233 336.436 159.537 337.756 158.145 338.74C156.777 339.7 154.869 340.18 152.421 340.18ZM172.699 340.18C170.875 340.18 169.231 339.772 167.767 338.956C166.303 338.116 165.151 336.964 164.311 335.5C163.471 334.036 163.051 332.38 163.051 330.532C163.051 328.684 163.471 327.028 164.311 325.564C165.151 324.1 166.303 322.96 167.767 322.144C169.231 321.328 170.875 320.92 172.699 320.92C174.523 320.92 176.167 321.328 177.631 322.144C179.095 322.96 180.235 324.1 181.051 325.564C181.891 327.028 182.311 328.684 182.311 330.532C182.311 332.38 181.891 334.036 181.051 335.5C180.235 336.964 179.095 338.116 177.631 338.956C176.167 339.772 174.523 340.18 172.699 340.18ZM172.699 337.912C174.043 337.912 175.243 337.612 176.299 337.012C177.379 336.388 178.219 335.512 178.819 334.384C179.419 333.256 179.719 331.972 179.719 330.532C179.719 329.092 179.419 327.808 178.819 326.68C178.219 325.552 177.379 324.688 176.299 324.088C175.243 323.464 174.043 323.152 172.699 323.152C171.355 323.152 170.143 323.464 169.063 324.088C168.007 324.688 167.167 325.552 166.543 326.68C165.943 327.808 165.643 329.092 165.643 330.532C165.643 331.972 165.943 333.256 166.543 334.384C167.167 335.512 168.007 336.388 169.063 337.012C170.143 337.612 171.355 337.912 172.699 337.912ZM197.177 320.92C199.553 320.92 201.437 321.616 202.829 323.008C204.245 324.376 204.953 326.38 204.953 329.02V340H202.397V329.272C202.397 327.304 201.905 325.804 200.921 324.772C199.937 323.74 198.533 323.224 196.709 323.224C194.669 323.224 193.049 323.836 191.849 325.06C190.673 326.26 190.085 327.928 190.085 330.064V340H187.529V321.064H189.977V324.556C190.673 323.404 191.633 322.516 192.857 321.892C194.105 321.244 195.545 320.92 197.177 320.92ZM218.516 320.92C220.988 320.92 222.884 321.544 224.204 322.792C225.524 324.016 226.184 325.84 226.184 328.264V340H223.736V337.048C223.16 338.032 222.308 338.8 221.18 339.352C220.076 339.904 218.756 340.18 217.22 340.18C215.108 340.18 213.428 339.676 212.18 338.668C210.932 337.66 210.308 336.328 210.308 334.672C210.308 333.064 210.884 331.768 212.036 330.784C213.212 329.8 215.072 329.308 217.616 329.308H223.628V328.156C223.628 326.524 223.172 325.288 222.26 324.448C221.348 323.584 220.016 323.152 218.264 323.152C217.064 323.152 215.912 323.356 214.808 323.764C213.704 324.148 212.756 324.688 211.964 325.384L210.812 323.476C211.772 322.66 212.924 322.036 214.268 321.604C215.612 321.148 217.028 320.92 218.516 320.92ZM217.616 338.164C219.056 338.164 220.292 337.84 221.324 337.192C222.356 336.52 223.124 335.56 223.628 334.312V331.216H217.688C214.448 331.216 212.828 332.344 212.828 334.6C212.828 335.704 213.248 336.58 214.088 337.228C214.928 337.852 216.104 338.164 217.616 338.164ZM233.127 313.288H235.683V340H233.127V313.288ZM242.794 321.064H245.35V340H242.794V321.064ZM244.09 316.924C243.562 316.924 243.118 316.744 242.758 316.384C242.398 316.024 242.218 315.592 242.218 315.088C242.218 314.608 242.398 314.188 242.758 313.828C243.118 313.468 243.562 313.288 244.09 313.288C244.618 313.288 245.062 313.468 245.422 313.828C245.782 314.164 245.962 314.572 245.962 315.052C245.962 315.58 245.782 316.024 245.422 316.384C245.062 316.744 244.618 316.924 244.09 316.924ZM257.538 340.18C256.002 340.18 254.526 339.964 253.11 339.532C251.718 339.076 250.626 338.512 249.834 337.84L250.986 335.824C251.778 336.448 252.774 336.964 253.974 337.372C255.174 337.756 256.422 337.948 257.718 337.948C259.446 337.948 260.718 337.684 261.534 337.156C262.374 336.604 262.794 335.836 262.794 334.852C262.794 334.156 262.566 333.616 262.11 333.232C261.654 332.824 261.078 332.524 260.382 332.332C259.686 332.116 258.762 331.912 257.61 331.72C256.074 331.432 254.838 331.144 253.902 330.856C252.966 330.544 252.162 330.028 251.49 329.308C250.842 328.588 250.518 327.592 250.518 326.32C250.518 324.736 251.178 323.44 252.498 322.432C253.818 321.424 255.654 320.92 258.006 320.92C259.23 320.92 260.454 321.088 261.678 321.424C262.902 321.736 263.91 322.156 264.702 322.684L263.586 324.736C262.026 323.656 260.166 323.116 258.006 323.116C256.374 323.116 255.138 323.404 254.298 323.98C253.482 324.556 253.074 325.312 253.074 326.248C253.074 326.968 253.302 327.544 253.758 327.976C254.238 328.408 254.826 328.732 255.522 328.948C256.218 329.14 257.178 329.344 258.402 329.56C259.914 329.848 261.126 330.136 262.038 330.424C262.95 330.712 263.73 331.204 264.378 331.9C265.026 332.596 265.35 333.556 265.35 334.78C265.35 336.436 264.654 337.756 263.262 338.74C261.894 339.7 259.986 340.18 257.538 340.18ZM286.564 331.324H270.724C270.868 333.292 271.624 334.888 272.992 336.112C274.36 337.312 276.088 337.912 278.176 337.912C279.352 337.912 280.432 337.708 281.416 337.3C282.4 336.868 283.252 336.244 283.972 335.428L285.412 337.084C284.572 338.092 283.516 338.86 282.244 339.388C280.996 339.916 279.616 340.18 278.104 340.18C276.16 340.18 274.432 339.772 272.92 338.956C271.432 338.116 270.268 336.964 269.428 335.5C268.588 334.036 268.168 332.38 268.168 330.532C268.168 328.684 268.564 327.028 269.356 325.564C270.172 324.1 271.276 322.96 272.668 322.144C274.084 321.328 275.668 320.92 277.42 320.92C279.172 320.92 280.744 321.328 282.136 322.144C283.528 322.96 284.62 324.1 285.412 325.564C286.204 327.004 286.6 328.66 286.6 330.532L286.564 331.324ZM277.42 323.116C275.596 323.116 274.06 323.704 272.812 324.88C271.588 326.032 270.892 327.544 270.724 329.416H284.152C283.984 327.544 283.276 326.032 282.028 324.88C280.804 323.704 279.268 323.116 277.42 323.116ZM309.082 313.288V340H306.634V336.256C305.866 337.528 304.846 338.5 303.574 339.172C302.326 339.844 300.91 340.18 299.326 340.18C297.55 340.18 295.942 339.772 294.502 338.956C293.062 338.14 291.934 337 291.118 335.536C290.302 334.072 289.894 332.404 289.894 330.532C289.894 328.66 290.302 326.992 291.118 325.528C291.934 324.064 293.062 322.936 294.502 322.144C295.942 321.328 297.55 320.92 299.326 320.92C300.862 320.92 302.242 321.244 303.466 321.892C304.714 322.516 305.734 323.44 306.526 324.664V313.288H309.082ZM299.542 337.912C300.862 337.912 302.05 337.612 303.106 337.012C304.186 336.388 305.026 335.512 305.626 334.384C306.25 333.256 306.562 331.972 306.562 330.532C306.562 329.092 306.25 327.808 305.626 326.68C305.026 325.552 304.186 324.688 303.106 324.088C302.05 323.464 300.862 323.152 299.542 323.152C298.198 323.152 296.986 323.464 295.906 324.088C294.85 324.688 294.01 325.552 293.386 326.68C292.786 327.808 292.486 329.092 292.486 330.532C292.486 331.972 292.786 333.256 293.386 334.384C294.01 335.512 294.85 336.388 295.906 337.012C296.986 337.612 298.198 337.912 299.542 337.912ZM128.883 358.8H131.547V381.696H145.659V384H128.883V358.8ZM156.237 364.92C158.709 364.92 160.605 365.544 161.925 366.792C163.245 368.016 163.905 369.84 163.905 372.264V384H161.457V381.048C160.881 382.032 160.029 382.8 158.901 383.352C157.797 383.904 156.477 384.18 154.941 384.18C152.829 384.18 151.149 383.676 149.901 382.668C148.653 381.66 148.029 380.328 148.029 378.672C148.029 377.064 148.605 375.768 149.757 374.784C150.933 373.8 152.793 373.308 155.337 373.308H161.349V372.156C161.349 370.524 160.893 369.288 159.981 368.448C159.069 367.584 157.737 367.152 155.985 367.152C154.785 367.152 153.633 367.356 152.529 367.764C151.425 368.148 150.477 368.688 149.685 369.384L148.533 367.476C149.493 366.66 150.645 366.036 151.989 365.604C153.333 365.148 154.749 364.92 156.237 364.92ZM155.337 382.164C156.777 382.164 158.013 381.84 159.045 381.192C160.077 380.52 160.845 379.56 161.349 378.312V375.216H155.409C152.169 375.216 150.549 376.344 150.549 378.6C150.549 379.704 150.969 380.58 151.809 381.228C152.649 381.852 153.825 382.164 155.337 382.164ZM180.603 364.92C182.379 364.92 183.987 365.328 185.427 366.144C186.867 366.936 187.995 368.064 188.811 369.528C189.627 370.992 190.035 372.66 190.035 374.532C190.035 376.428 189.627 378.108 188.811 379.572C187.995 381.036 186.867 382.176 185.427 382.992C184.011 383.784 182.403 384.18 180.603 384.18C179.067 384.18 177.675 383.868 176.427 383.244C175.203 382.596 174.195 381.66 173.403 380.436V390.984H170.847V365.064H173.295V368.808C174.063 367.56 175.071 366.6 176.319 365.928C177.591 365.256 179.019 364.92 180.603 364.92ZM180.423 381.912C181.743 381.912 182.943 381.612 184.023 381.012C185.103 380.388 185.943 379.512 186.543 378.384C187.167 377.256 187.479 375.972 187.479 374.532C187.479 373.092 187.167 371.82 186.543 370.716C185.943 369.588 185.103 368.712 184.023 368.088C182.943 367.464 181.743 367.152 180.423 367.152C179.079 367.152 177.867 367.464 176.787 368.088C175.731 368.712 174.891 369.588 174.267 370.716C173.667 371.82 173.367 373.092 173.367 374.532C173.367 375.972 173.667 377.256 174.267 378.384C174.891 379.512 175.731 380.388 176.787 381.012C177.867 381.612 179.079 381.912 180.423 381.912ZM205.218 382.848C204.738 383.28 204.138 383.616 203.418 383.856C202.722 384.072 201.99 384.18 201.222 384.18C199.446 384.18 198.078 383.7 197.118 382.74C196.158 381.78 195.678 380.424 195.678 378.672V367.224H192.294V365.064H195.678V360.924H198.234V365.064H203.994V367.224H198.234V378.528C198.234 379.656 198.51 380.52 199.062 381.12C199.638 381.696 200.454 381.984 201.51 381.984C202.038 381.984 202.542 381.9 203.022 381.732C203.526 381.564 203.958 381.324 204.318 381.012L205.218 382.848ZM216.943 384.18C215.119 384.18 213.475 383.772 212.011 382.956C210.547 382.116 209.395 380.964 208.555 379.5C207.715 378.036 207.295 376.38 207.295 374.532C207.295 372.684 207.715 371.028 208.555 369.564C209.395 368.1 210.547 366.96 212.011 366.144C213.475 365.328 215.119 364.92 216.943 364.92C218.767 364.92 220.411 365.328 221.875 366.144C223.339 366.96 224.479 368.1 225.295 369.564C226.135 371.028 226.555 372.684 226.555 374.532C226.555 376.38 226.135 378.036 225.295 379.5C224.479 380.964 223.339 382.116 221.875 382.956C220.411 383.772 218.767 384.18 216.943 384.18ZM216.943 381.912C218.287 381.912 219.487 381.612 220.543 381.012C221.623 380.388 222.463 379.512 223.063 378.384C223.663 377.256 223.963 375.972 223.963 374.532C223.963 373.092 223.663 371.808 223.063 370.68C222.463 369.552 221.623 368.688 220.543 368.088C219.487 367.464 218.287 367.152 216.943 367.152C215.599 367.152 214.387 367.464 213.307 368.088C212.251 368.688 211.411 369.552 210.787 370.68C210.187 371.808 209.887 373.092 209.887 374.532C209.887 375.972 210.187 377.256 210.787 378.384C211.411 379.512 212.251 380.388 213.307 381.012C214.387 381.612 215.599 381.912 216.943 381.912ZM241.529 364.92C243.305 364.92 244.913 365.328 246.353 366.144C247.793 366.936 248.921 368.064 249.737 369.528C250.553 370.992 250.961 372.66 250.961 374.532C250.961 376.428 250.553 378.108 249.737 379.572C248.921 381.036 247.793 382.176 246.353 382.992C244.937 383.784 243.329 384.18 241.529 384.18C239.993 384.18 238.601 383.868 237.353 383.244C236.129 382.596 235.121 381.66 234.329 380.436V390.984H231.773V365.064H234.221V368.808C234.989 367.56 235.997 366.6 237.245 365.928C238.517 365.256 239.945 364.92 241.529 364.92ZM241.349 381.912C242.669 381.912 243.869 381.612 244.949 381.012C246.029 380.388 246.869 379.512 247.469 378.384C248.093 377.256 248.405 375.972 248.405 374.532C248.405 373.092 248.093 371.82 247.469 370.716C246.869 369.588 246.029 368.712 244.949 368.088C243.869 367.464 242.669 367.152 241.349 367.152C240.005 367.152 238.793 367.464 237.713 368.088C236.657 368.712 235.817 369.588 235.193 370.716C234.593 371.82 234.293 373.092 234.293 374.532C234.293 375.972 234.593 377.256 235.193 378.384C235.817 379.512 236.657 380.388 237.713 381.012C238.793 381.612 240.005 381.912 241.349 381.912ZM261.247 384.18C259.711 384.18 258.235 383.964 256.819 383.532C255.427 383.076 254.335 382.512 253.543 381.84L254.695 379.824C255.487 380.448 256.483 380.964 257.683 381.372C258.883 381.756 260.131 381.948 261.427 381.948C263.155 381.948 264.427 381.684 265.243 381.156C266.083 380.604 266.503 379.836 266.503 378.852C266.503 378.156 266.275 377.616 265.819 377.232C265.363 376.824 264.787 376.524 264.091 376.332C263.395 376.116 262.471 375.912 261.319 375.72C259.783 375.432 258.547 375.144 257.611 374.856C256.675 374.544 255.871 374.028 255.199 373.308C254.551 372.588 254.227 371.592 254.227 370.32C254.227 368.736 254.887 367.44 256.207 366.432C257.527 365.424 259.363 364.92 261.715 364.92C262.939 364.92 264.163 365.088 265.387 365.424C266.611 365.736 267.619 366.156 268.411 366.684L267.295 368.736C265.735 367.656 263.875 367.116 261.715 367.116C260.083 367.116 258.847 367.404 258.007 367.98C257.191 368.556 256.783 369.312 256.783 370.248C256.783 370.968 257.011 371.544 257.467 371.976C257.947 372.408 258.535 372.732 259.231 372.948C259.927 373.14 260.887 373.344 262.111 373.56C263.623 373.848 264.835 374.136 265.747 374.424C266.659 374.712 267.439 375.204 268.087 375.9C268.735 376.596 269.059 377.556 269.059 378.78C269.059 380.436 268.363 381.756 266.971 382.74C265.603 383.7 263.695 384.18 261.247 384.18Z" fill="black"/>
<defs>
<linearGradient id="paint0_linear" x1="197.5" y1="2" x2="197.5" y2="222" gradientUnits="userSpaceOnUse">
<stop offset="0.276042" stop-color="#AD00FF"/>
<stop offset="1" stop-color="#0057FF"/>
</linearGradient>
<linearGradient id="paint1_linear" x1="197" y1="222" x2="197" y2="242" gradientUnits="userSpaceOnUse">
<stop stop-color="#0F50FF"/>
<stop offset="1" stop-color="#0057FF"/>
</linearGradient>
</defs>
</svg>
