<svg width="50" height="40" viewBox="0 0 50 40" fill="none" xmlns="http://www.w3.org/2000/svg">
<rect width="50" height="40" fill="white"/>
<mask id="path-2-inside-1" fill="white">
<path fill-rule="evenodd" clip-rule="evenodd" d="M50 4C50 2.89543 49.1046 2 48 2H32C30.8954 2 30 2.89543 30 4V15.7773C30 16.8818 30.8954 17.7773 32 17.7773H48C49.1046 17.7773 50 16.8818 50 15.7773V4ZM0 11.573C0 10.4685 0.895431 9.57302 2 9.57302H18C19.1046 9.57302 20 10.4685 20 11.573V22.7193C20 23.8239 20.8954 24.7193 22 24.7193H38C39.1046 24.7193 40 25.6147 40 26.7193V32.8167C40 33.9212 39.1046 34.8167 38 34.8167H24.6048C23.7185 34.8167 23 35.5352 23 36.4215V36.4215C23 37.3078 23.7185 38.0263 24.6048 38.0263H26.5132C26.782 38.0263 27 38.2443 27 38.5131V38.5131C27 38.782 26.782 39 26.5132 39H23H17H13.4868C13.218 39 13 38.782 13 38.5131V38.5131C13 38.2443 13.218 38.0263 13.4868 38.0263H15.3952C16.2815 38.0263 17 37.3078 17 36.4215V36.4215C17 35.5352 16.2815 34.8167 15.3952 34.8167H2C0.895431 34.8167 0 33.9212 0 32.8167V11.573Z"/>
</mask>
<path fill-rule="evenodd" clip-rule="evenodd" d="M50 4C50 2.89543 49.1046 2 48 2H32C30.8954 2 30 2.89543 30 4V15.7773C30 16.8818 30.8954 17.7773 32 17.7773H48C49.1046 17.7773 50 16.8818 50 15.7773V4ZM0 11.573C0 10.4685 0.895431 9.57302 2 9.57302H18C19.1046 9.57302 20 10.4685 20 11.573V22.7193C20 23.8239 20.8954 24.7193 22 24.7193H38C39.1046 24.7193 40 25.6147 40 26.7193V32.8167C40 33.9212 39.1046 34.8167 38 34.8167H24.6048C23.7185 34.8167 23 35.5352 23 36.4215V36.4215C23 37.3078 23.7185 38.0263 24.6048 38.0263H26.5132C26.782 38.0263 27 38.2443 27 38.5131V38.5131C27 38.782 26.782 39 26.5132 39H23H17H13.4868C13.218 39 13 38.782 13 38.5131V38.5131C13 38.2443 13.218 38.0263 13.4868 38.0263H15.3952C16.2815 38.0263 17 37.3078 17 36.4215V36.4215C17 35.5352 16.2815 34.8167 15.3952 34.8167H2C0.895431 34.8167 0 33.9212 0 32.8167V11.573Z" fill="white"/>
<path d="M32 3H48V1H32V3ZM31 15.7773V4H29V15.7773H31ZM48 16.7773H32V18.7773H48V16.7773ZM49 4V15.7773H51V4H49ZM18 8.57302H2V10.573H18V8.57302ZM21 22.7193V11.573H19V22.7193H21ZM38 23.7193H22V25.7193H38V23.7193ZM41 32.8167V26.7193H39V32.8167H41ZM24.6048 35.8167H38V33.8167H24.6048V35.8167ZM26.5132 37.0263H24.6048V39.0263H26.5132V37.0263ZM23 40H26.5132V38H23V40ZM17 40H23V38H17V40ZM13.4868 40H17V38H13.4868V40ZM15.3952 37.0263H13.4868V39.0263H15.3952V37.0263ZM2 35.8167H15.3952V33.8167H2V35.8167ZM-1 11.573V32.8167H1V11.573H-1ZM2 33.8167C1.44771 33.8167 1 33.3689 1 32.8167H-1C-1 34.4735 0.343146 35.8167 2 35.8167V33.8167ZM18 36.4215C18 34.9829 16.8338 33.8167 15.3952 33.8167V35.8167C15.7292 35.8167 16 36.0874 16 36.4215H18ZM15.3952 39.0263C16.8338 39.0263 18 37.8601 18 36.4215H16C16 36.7555 15.7292 37.0263 15.3952 37.0263V39.0263ZM14 38.5131C14 38.7965 13.7703 39.0263 13.4868 39.0263V37.0263C12.6657 37.0263 12 37.692 12 38.5131H14ZM13.4868 38C13.7703 38 14 38.2297 14 38.5131H12C12 39.3343 12.6657 40 13.4868 40V38ZM26 38.5131C26 38.2297 26.2297 38 26.5132 38V40C27.3343 40 28 39.3343 28 38.5131H26ZM26.5132 39.0263C26.2297 39.0263 26 38.7965 26 38.5131H28C28 37.692 27.3343 37.0263 26.5132 37.0263V39.0263ZM22 36.4215C22 37.8601 23.1662 39.0263 24.6048 39.0263V37.0263C24.2708 37.0263 24 36.7555 24 36.4215H22ZM24.6048 33.8167C23.1662 33.8167 22 34.9829 22 36.4215H24C24 36.0874 24.2708 35.8167 24.6048 35.8167V33.8167ZM39 32.8167C39 33.3689 38.5523 33.8167 38 33.8167V35.8167C39.6569 35.8167 41 34.4735 41 32.8167H39ZM38 25.7193C38.5523 25.7193 39 26.167 39 26.7193H41C41 25.0624 39.6569 23.7193 38 23.7193V25.7193ZM19 22.7193C19 24.3762 20.3431 25.7193 22 25.7193V23.7193C21.4477 23.7193 21 23.2716 21 22.7193H19ZM2 8.57302C0.343147 8.57302 -1 9.91617 -1 11.573H1C1 11.0207 1.44772 10.573 2 10.573V8.57302ZM18 10.573C18.5523 10.573 19 11.0207 19 11.573H21C21 9.91617 19.6569 8.57302 18 8.57302V10.573ZM48 18.7773C49.6569 18.7773 51 17.4341 51 15.7773H49C49 16.3296 48.5523 16.7773 48 16.7773V18.7773ZM29 15.7773C29 17.4341 30.3431 18.7773 32 18.7773V16.7773C31.4477 16.7773 31 16.3296 31 15.7773H29ZM48 3C48.5523 3 49 3.44772 49 4H51C51 2.34315 49.6569 1 48 1V3ZM32 1C30.3431 1 29 2.34314 29 4H31C31 3.44771 31.4477 3 32 3V1Z" fill="url(#paint0_linear)" mask="url(#path-2-inside-1)"/>
<defs>
<linearGradient id="paint0_linear" x1="25" y1="2" x2="25" y2="39.8654" gradientUnits="userSpaceOnUse">
<stop stop-color="#AD00FF"/>
<stop offset="1" stop-color="#0057FF"/>
</linearGradient>
</defs>
</svg>
