<svg width="100" height="100" viewBox="0 0 100 100" fill="none" xmlns="http://www.w3.org/2000/svg">
<rect width="100" height="100" rx="50" fill="white"/>
<mask id="path-2-inside-1" fill="white">
<path fill-rule="evenodd" clip-rule="evenodd" d="M90 22C90 20.8954 89.1046 20 88 20H60C58.8954 20 58 20.8954 58 22V43.9259C58 45.0305 58.8954 45.9259 60 45.9259H88C89.1046 45.9259 90 45.0305 90 43.9259V22ZM10 34.4444C10 33.3399 10.8954 32.4444 12 32.4444H40C41.1046 32.4444 42 33.3399 42 34.4444V55.3333C42 56.4379 42.8954 57.3333 44 57.3333H72C73.1046 57.3333 74 58.2288 74 59.3333V71.9259C74 73.0305 73.1046 73.9259 72 73.9259H49.3333C48.2288 73.9259 47.3333 74.8214 47.3333 75.9259V77.5555C47.3333 78.6601 48.2288 79.5555 49.3333 79.5555H53.1111C53.3566 79.5555 53.5556 79.7545 53.5556 80V80C53.5556 80.2454 53.3566 80.4444 53.1111 80.4444L47.3333 80.4444H36.6667L30.8889 80.4444C30.6434 80.4444 30.4444 80.2454 30.4444 80V80C30.4444 79.7545 30.6434 79.5555 30.8889 79.5555H34.6667C35.7712 79.5555 36.6667 78.6601 36.6667 77.5555V75.9259C36.6667 74.8214 35.7712 73.9259 34.6667 73.9259H12C10.8954 73.9259 10 73.0305 10 71.9259V34.4444Z"/>
</mask>
<path fill-rule="evenodd" clip-rule="evenodd" d="M90 22C90 20.8954 89.1046 20 88 20H60C58.8954 20 58 20.8954 58 22V43.9259C58 45.0305 58.8954 45.9259 60 45.9259H88C89.1046 45.9259 90 45.0305 90 43.9259V22ZM10 34.4444C10 33.3399 10.8954 32.4444 12 32.4444H40C41.1046 32.4444 42 33.3399 42 34.4444V55.3333C42 56.4379 42.8954 57.3333 44 57.3333H72C73.1046 57.3333 74 58.2288 74 59.3333V71.9259C74 73.0305 73.1046 73.9259 72 73.9259H49.3333C48.2288 73.9259 47.3333 74.8214 47.3333 75.9259V77.5555C47.3333 78.6601 48.2288 79.5555 49.3333 79.5555H53.1111C53.3566 79.5555 53.5556 79.7545 53.5556 80V80C53.5556 80.2454 53.3566 80.4444 53.1111 80.4444L47.3333 80.4444H36.6667L30.8889 80.4444C30.6434 80.4444 30.4444 80.2454 30.4444 80V80C30.4444 79.7545 30.6434 79.5555 30.8889 79.5555H34.6667C35.7712 79.5555 36.6667 78.6601 36.6667 77.5555V75.9259C36.6667 74.8214 35.7712 73.9259 34.6667 73.9259H12C10.8954 73.9259 10 73.0305 10 71.9259V34.4444Z" fill="white"/>
<path d="M47.3333 80.4444L47.3334 61.4444H47.3333V80.4444ZM36.6667 80.4444L36.6667 61.4444L36.6666 61.4444L36.6667 80.4444ZM30.8889 80.4444L30.8889 99.4444L30.8889 80.4444ZM53.1111 80.4444L53.1111 61.4444L53.1111 80.4444ZM60 39H88V1H60V39ZM77 43.9259V22H39V43.9259H77ZM88 26.9259H60V64.9259H88V26.9259ZM71 22V43.9259H109V22H71ZM40 13.4444H12V51.4444H40V13.4444ZM61 55.3333V34.4444H23V55.3333H61ZM72 38.3333H44V76.3333H72V38.3333ZM93 71.9259V59.3333H55V71.9259H93ZM49.3333 92.9259H72V54.9259H49.3333V92.9259ZM66.3333 77.5555V75.9259H28.3333V77.5555H66.3333ZM53.1111 60.5555H49.3333V98.5555H53.1111V60.5555ZM47.3333 99.4444L53.1111 99.4444L53.1111 61.4444L47.3334 61.4444L47.3333 99.4444ZM36.6667 99.4444H47.3333V61.4444H36.6667V99.4444ZM30.8889 99.4444L36.6667 99.4444L36.6666 61.4444L30.8889 61.4444L30.8889 99.4444ZM34.6667 60.5555H30.8889V98.5555H34.6667V60.5555ZM17.6667 75.9259V77.5555H55.6667V75.9259H17.6667ZM12 92.9259H34.6667V54.9259H12V92.9259ZM-9 34.4444V71.9259H29V34.4444H-9ZM12 54.9259C21.3889 54.9259 29 62.5371 29 71.9259H-9C-9 83.5239 0.402005 92.9259 12 92.9259V54.9259ZM55.6667 75.9259C55.6667 64.328 46.2647 54.9259 34.6667 54.9259V92.9259C25.2778 92.9259 17.6667 85.3147 17.6667 75.9259H55.6667ZM34.6667 98.5555C46.2647 98.5555 55.6667 89.1535 55.6667 77.5555H17.6667C17.6667 68.1667 25.2778 60.5555 34.6667 60.5555V98.5555ZM49.4444 80C49.4444 90.2479 41.1369 98.5555 30.8889 98.5555V60.5555C20.15 60.5555 11.4444 69.2612 11.4444 80H49.4444ZM30.8889 61.4444C41.1368 61.4444 49.4444 69.752 49.4444 80H11.4444C11.4444 90.7389 20.15 99.4444 30.8889 99.4444L30.8889 61.4444ZM34.5556 80C34.5556 69.752 42.8632 61.4444 53.1111 61.4444L53.1111 99.4444C63.85 99.4444 72.5556 90.7389 72.5556 80H34.5556ZM53.1111 98.5555C42.8632 98.5555 34.5556 90.2479 34.5556 80H72.5556C72.5556 69.2611 63.85 60.5555 53.1111 60.5555V98.5555ZM28.3333 77.5555C28.3333 89.1535 37.7353 98.5555 49.3333 98.5555V60.5555C58.7222 60.5555 66.3333 68.1667 66.3333 77.5555H28.3333ZM49.3333 54.9259C37.7353 54.9259 28.3333 64.328 28.3333 75.9259H66.3333C66.3333 85.3147 58.7222 92.9259 49.3333 92.9259V54.9259ZM55 71.9259C55 62.5371 62.6111 54.9259 72 54.9259V92.9259C83.598 92.9259 93 83.5239 93 71.9259H55ZM72 76.3333C62.6111 76.3333 55 68.7221 55 59.3333H93C93 47.7354 83.598 38.3333 72 38.3333V76.3333ZM23 55.3333C23 66.9313 32.402 76.3333 44 76.3333V38.3333C53.3888 38.3333 61 45.9445 61 55.3333H23ZM12 13.4444C0.402022 13.4444 -9 22.8465 -9 34.4444H29C29 43.8333 21.3888 51.4444 12 51.4444V13.4444ZM40 51.4444C30.6111 51.4444 23 43.8333 23 34.4444H61C61 22.8465 51.598 13.4444 40 13.4444V51.4444ZM88 64.9259C99.598 64.9259 109 55.5239 109 43.9259H71C71 34.5371 78.6111 26.9259 88 26.9259V64.9259ZM39 43.9259C39 55.5239 48.402 64.9259 60 64.9259V26.9259C69.3888 26.9259 77 34.5371 77 43.9259H39ZM88 39C78.6112 39 71 31.3888 71 22H109C109 10.402 99.598 1 88 1V39ZM60 1C48.402 1 39 10.4021 39 22H77C77 31.3888 69.3889 39 60 39V1Z" fill="url(#paint0_linear)" mask="url(#path-2-inside-1)"/>
<defs>
<linearGradient id="paint0_linear" x1="50" y1="20" x2="50" y2="82.2222" gradientUnits="userSpaceOnUse">
<stop stop-color="#AD00FF"/>
<stop offset="1" stop-color="#0057FF"/>
</linearGradient>
</defs>
</svg>
