<svg width="100" height="100" viewBox="0 0 100 100" fill="none" xmlns="http://www.w3.org/2000/svg">
<rect width="100" height="100" fill="white"/>
<mask id="mask0" mask-type="alpha" maskUnits="userSpaceOnUse" x="10" y="0" width="79" height="100">
<path d="M28.4957 9.84865C28.5593 9.72161 28.6891 9.64136 28.8311 9.64136H87.0492C87.2563 9.64136 87.4242 9.80925 87.4242 10.0164V99C87.4242 99.2071 87.2563 99.375 87.0492 99.375H15.2787C15.0716 99.375 14.9037 99.2071 14.9037 99V57.9179C14.9037 57.7914 14.9675 57.6734 15.0735 57.6041L35.4794 44.2617C35.9385 43.9616 36.2152 43.4501 36.2152 42.9016V17.6937C36.2152 17.2001 35.9908 16.7332 35.6053 16.4248L28.4151 10.6727C28.2771 10.5622 28.2349 10.3703 28.314 10.2121L28.4957 9.84865Z" stroke="black" stroke-width="1.25"/>
<path d="M11 55.5454V2.05746C11 1.22303 11.9617 0.755612 12.6178 1.27114L33.5686 17.7325C33.8099 17.922 33.9508 18.2119 33.9508 18.5188V42.077C33.9508 42.4172 33.7778 42.7341 33.4916 42.9181L12.5408 56.3866C11.8752 56.8144 11 56.3365 11 55.5454Z" stroke="black" stroke-width="1.25"/>
<rect x="-0.877934" y="0.102378" width="19.2828" height="2.88934" rx="1.44467" transform="matrix(0.78425 0.620445 0.620445 -0.78425 14.0258 11.8492)" stroke="black" stroke-width="1.25"/>
<rect x="-0.877934" y="0.102378" width="19.2828" height="2.88934" rx="1.44467" transform="matrix(0.78425 0.620445 0.620445 -0.78425 14.0258 21.6853)" stroke="black" stroke-width="1.25"/>
<rect x="-0.877934" y="0.102378" width="17.6434" height="2.88934" rx="1.44467" transform="matrix(0.78425 0.620445 0.620445 -0.78425 14.0258 31.5213)" stroke="black" stroke-width="1.25"/>
<rect x="-0.877934" y="0.102378" width="9.44672" height="2.88934" rx="1.44467" transform="matrix(0.78425 0.620445 0.620445 -0.78425 14.0258 41.3574)" stroke="black" stroke-width="1.25"/>
<path d="M23.0549 80.6177C22.7349 80.6177 22.4754 80.3582 22.4754 80.0382C22.4754 79.7181 22.7349 79.4587 23.0549 79.4587H27.6667V80.6177H23.0549Z" fill="black"/>
<path d="M23.0549 83.6066C22.7349 83.6066 22.4754 83.3471 22.4754 83.0271C22.4754 82.707 22.7349 82.4476 23.0549 82.4476H27.6667V83.6066H23.0549Z" fill="black"/>
<path d="M23.0549 77.6288C22.7349 77.6288 22.4754 77.3693 22.4754 77.0493C22.4754 76.7292 22.7349 76.4698 23.0549 76.4698H27.6667V77.6288H23.0549Z" fill="black"/>
<path d="M23.0549 74.6398C22.7349 74.6398 22.4754 74.3803 22.4754 74.0603C22.4754 73.7402 22.7349 73.4808 23.0549 73.4808H27.6667V74.6398H23.0549Z" fill="black"/>
<path d="M23.0549 71.6508C22.7349 71.6508 22.4754 71.3913 22.4754 71.0713C22.4754 70.7512 22.7349 70.4918 23.0549 70.4918H27.6667V71.6508H23.0549Z" fill="black"/>
<path d="M48.3986 80.6177C48.7187 80.6177 48.9781 80.3582 48.9781 80.0382C48.9781 79.7181 48.7187 79.4587 48.3986 79.4587H43.7869V80.6177H48.3986Z" fill="black"/>
<path d="M48.3986 83.6066C48.7187 83.6066 48.9781 83.3471 48.9781 83.0271C48.9781 82.707 48.7187 82.4476 48.3986 82.4476H43.7869V83.6066H48.3986Z" fill="black"/>
<path d="M48.3986 77.6288C48.7187 77.6288 48.9781 77.3693 48.9781 77.0493C48.9781 76.7292 48.7187 76.4698 48.3986 76.4698H43.7869V77.6288H48.3986Z" fill="black"/>
<path d="M48.3986 74.6398C48.7187 74.6398 48.9781 74.3803 48.9781 74.0603C48.9781 73.7402 48.7187 73.4808 48.3986 73.4808H43.7869V74.6398H48.3986Z" fill="black"/>
<path d="M48.3986 71.6508C48.7187 71.6508 48.9781 71.3913 48.9781 71.0713C48.9781 70.7512 48.7187 70.4918 48.3986 70.4918H43.7869V71.6508H48.3986Z" fill="black"/>
<path d="M32.0218 89.8576C32.0218 90.1777 32.2812 90.4371 32.6013 90.4371C32.9213 90.4371 33.1808 90.1777 33.1808 89.8576V85.2459H32.0218V89.8576Z" fill="black"/>
<path d="M29.0329 89.8576C29.0329 90.1777 29.2923 90.4371 29.6124 90.4371C29.9324 90.4371 30.1919 90.1777 30.1919 89.8576V85.2459H29.0329V89.8576Z" fill="black"/>
<path d="M35.0108 89.8576C35.0108 90.1777 35.2702 90.4371 35.5903 90.4371C35.9103 90.4371 36.1698 90.1777 36.1698 89.8576V85.2459H35.0108V89.8576Z" fill="black"/>
<path d="M37.9997 89.8576C37.9997 90.1777 38.2592 90.4371 38.5792 90.4371C38.8993 90.4371 39.1587 90.1777 39.1587 89.8576V85.2459H37.9997V89.8576Z" fill="black"/>
<path d="M40.9887 89.8576C40.9887 90.1777 41.2481 90.4371 41.5682 90.4371C41.8882 90.4371 42.1477 90.1777 42.1477 89.8576V85.2459H40.9887V89.8576Z" fill="black"/>
<path d="M32.0218 64.514C32.0218 64.1939 32.2812 63.9344 32.6013 63.9344C32.9213 63.9344 33.1808 64.1939 33.1808 64.514V69.1257H32.0218V64.514Z" fill="black"/>
<path d="M29.0329 64.514C29.0329 64.1939 29.2923 63.9344 29.6124 63.9344C29.9324 63.9344 30.1919 64.1939 30.1919 64.514V69.1257H29.0329V64.514Z" fill="black"/>
<path d="M35.0108 64.514C35.0108 64.1939 35.2702 63.9344 35.5903 63.9344C35.9103 63.9344 36.1698 64.1939 36.1698 64.514V69.1257H35.0108V64.514Z" fill="black"/>
<path d="M37.9997 64.514C37.9997 64.1939 38.2592 63.9344 38.5792 63.9344C38.8993 63.9344 39.1587 64.1939 39.1587 64.514V69.1257H37.9997V64.514Z" fill="black"/>
<path d="M40.9887 64.514C40.9887 64.1939 41.2481 63.9344 41.5682 63.9344C41.8882 63.9344 42.1477 64.1939 42.1477 64.514V69.1257H40.9887V64.514Z" fill="black"/>
<rect x="27.3934" y="68.8524" width="16.3934" height="16.3934" rx="1" stroke="black" stroke-width="1.25"/>
<mask id="path-29-inside-1" mask-type="luminance" fill="white">
<rect x="42.1475" y="16.3934" width="40.9836" height="6.55738" rx="1"/>
</mask>
<rect x="42.1475" y="16.3934" width="40.9836" height="6.55738" rx="1" stroke="black" stroke-width="2.5" mask="url(#path-29-inside-1)"/>
<mask id="path-30-inside-2" mask-type="luminance" fill="white">
<rect x="42.1475" y="24.5902" width="40.9836" height="6.55738" rx="1"/>
</mask>
<rect x="42.1475" y="24.5902" width="40.9836" height="6.55738" rx="1" stroke="black" stroke-width="2.5" mask="url(#path-30-inside-2)"/>
<mask id="path-31-inside-3" mask-type="luminance" fill="white">
<rect x="42.1475" y="32.7869" width="40.9836" height="6.55738" rx="1"/>
</mask>
<rect x="42.1475" y="32.7869" width="40.9836" height="6.55738" rx="1" stroke="black" stroke-width="2.5" mask="url(#path-31-inside-3)"/>
<mask id="path-32-inside-4" mask-type="luminance" fill="white">
<rect x="42.1475" y="40.9836" width="40.9836" height="6.55738" rx="1"/>
</mask>
<rect x="42.1475" y="40.9836" width="40.9836" height="6.55738" rx="1" stroke="black" stroke-width="2.5" mask="url(#path-32-inside-4)"/>
<mask id="path-33-inside-5" mask-type="luminance" fill="white">
<rect x="56.9016" y="54.0984" width="9.83607" height="40.9836" rx="1"/>
</mask>
<rect x="56.9016" y="54.0984" width="9.83607" height="40.9836" rx="1" stroke="black" stroke-width="2.5" mask="url(#path-33-inside-5)"/>
<mask id="path-34-inside-6" mask-type="luminance" fill="white">
<rect x="70.0164" y="54.0984" width="9.83607" height="40.9836" rx="1"/>
</mask>
<rect x="70.0164" y="54.0984" width="9.83607" height="40.9836" rx="1" stroke="black" stroke-width="2.5" mask="url(#path-34-inside-6)"/>
<circle cx="47.0656" cy="57.3771" r="3.27869" stroke="black" stroke-width="1.25"/>
</mask>
<g mask="url(#mask0)">
<rect x="-2.11475" width="100" height="100" fill="url(#paint0_linear)"/>
</g>
<defs>
<linearGradient id="paint0_linear" x1="47.8852" y1="0" x2="47.8852" y2="100" gradientUnits="userSpaceOnUse">
<stop stop-color="#AD00FF"/>
<stop offset="1" stop-color="#0057FF"/>
</linearGradient>
</defs>
</svg>
