<svg width="79" height="100" viewBox="0 0 79 100" fill="none" xmlns="http://www.w3.org/2000/svg">
<mask id="mask0" mask-type="alpha" maskUnits="userSpaceOnUse" x="0" y="0" width="79" height="100">
<path d="M18.8311 9.64136H77.0492C77.2563 9.64136 77.4242 9.80925 77.4242 10.0164V99C77.4242 99.2071 77.2563 99.375 77.0492 99.375H5.27868C5.07158 99.375 4.90369 99.2071 4.90369 99V57.9179C4.90369 57.7914 4.96753 57.6734 5.07347 57.6041L25.4794 44.2617C25.9385 43.9616 26.2152 43.4501 26.2152 42.9016V17.6937C26.2152 17.2001 25.9908 16.7332 25.6053 16.4248L18.4151 10.6727C18.2771 10.5622 18.2349 10.3703 18.314 10.2121L18.4957 9.84865C18.5593 9.72161 18.6891 9.64136 18.8311 9.64136Z" stroke="black" stroke-width="1.25"/>
<path d="M1 55.5454V2.05746C1 1.22303 1.96169 0.755612 2.61782 1.27114L23.5686 17.7325C23.8099 17.922 23.9508 18.2119 23.9508 18.5188V42.077C23.9508 42.4172 23.7778 42.7341 23.4916 42.9181L2.54076 56.3866C1.87525 56.8144 1 56.3365 1 55.5454Z" stroke="black" stroke-width="1.25"/>
<rect x="-0.877934" y="0.102378" width="19.2828" height="2.88934" rx="1.44467" transform="matrix(0.78425 0.620445 0.620445 -0.78425 4.02575 11.8492)" stroke="black" stroke-width="1.25"/>
<rect x="-0.877934" y="0.102378" width="19.2828" height="2.88934" rx="1.44467" transform="matrix(0.78425 0.620445 0.620445 -0.78425 4.02575 21.6853)" stroke="black" stroke-width="1.25"/>
<rect x="-0.877934" y="0.102378" width="17.6434" height="2.88934" rx="1.44467" transform="matrix(0.78425 0.620445 0.620445 -0.78425 4.02575 31.5213)" stroke="black" stroke-width="1.25"/>
<rect x="-0.877934" y="0.102378" width="9.44672" height="2.88934" rx="1.44467" transform="matrix(0.78425 0.620445 0.620445 -0.78425 4.02575 41.3574)" stroke="black" stroke-width="1.25"/>
<path d="M13.0549 80.6177C12.7349 80.6177 12.4754 80.3582 12.4754 80.0382V80.0382C12.4754 79.7181 12.7349 79.4587 13.0549 79.4587H17.6667V80.6177H13.0549Z" fill="black"/>
<path d="M13.0549 83.6066C12.7349 83.6066 12.4754 83.3471 12.4754 83.0271V83.0271C12.4754 82.707 12.7349 82.4476 13.0549 82.4476H17.6667V83.6066H13.0549Z" fill="black"/>
<path d="M13.0549 77.6288C12.7349 77.6288 12.4754 77.3693 12.4754 77.0493V77.0493C12.4754 76.7292 12.7349 76.4698 13.0549 76.4698H17.6667V77.6288H13.0549Z" fill="black"/>
<path d="M13.0549 74.6398C12.7349 74.6398 12.4754 74.3803 12.4754 74.0603V74.0603C12.4754 73.7402 12.7349 73.4808 13.0549 73.4808H17.6667V74.6398H13.0549Z" fill="black"/>
<path d="M13.0549 71.6508C12.7349 71.6508 12.4754 71.3913 12.4754 71.0713V71.0713C12.4754 70.7512 12.7349 70.4918 13.0549 70.4918H17.6667V71.6508H13.0549Z" fill="black"/>
<path d="M38.3986 80.6177C38.7187 80.6177 38.9781 80.3582 38.9781 80.0382V80.0382C38.9781 79.7181 38.7187 79.4587 38.3986 79.4587H33.7869V80.6177H38.3986Z" fill="black"/>
<path d="M38.3986 83.6066C38.7187 83.6066 38.9781 83.3471 38.9781 83.0271V83.0271C38.9781 82.707 38.7187 82.4476 38.3986 82.4476H33.7869V83.6066H38.3986Z" fill="black"/>
<path d="M38.3986 77.6288C38.7187 77.6288 38.9781 77.3693 38.9781 77.0493V77.0493C38.9781 76.7292 38.7187 76.4698 38.3986 76.4698H33.7869V77.6288H38.3986Z" fill="black"/>
<path d="M38.3986 74.6398C38.7187 74.6398 38.9781 74.3803 38.9781 74.0603V74.0603C38.9781 73.7402 38.7187 73.4808 38.3986 73.4808H33.7869V74.6398H38.3986Z" fill="black"/>
<path d="M38.3986 71.6508C38.7187 71.6508 38.9781 71.3913 38.9781 71.0713V71.0713C38.9781 70.7512 38.7187 70.4918 38.3986 70.4918H33.7869V71.6508H38.3986Z" fill="black"/>
<path d="M22.0218 89.8576C22.0218 90.1777 22.2812 90.4371 22.6013 90.4371V90.4371C22.9213 90.4371 23.1808 90.1777 23.1808 89.8576V85.2459H22.0218V89.8576Z" fill="black"/>
<path d="M19.0329 89.8576C19.0329 90.1777 19.2923 90.4371 19.6124 90.4371V90.4371C19.9324 90.4371 20.1919 90.1777 20.1919 89.8576V85.2459H19.0329V89.8576Z" fill="black"/>
<path d="M25.0108 89.8576C25.0108 90.1777 25.2702 90.4371 25.5903 90.4371V90.4371C25.9103 90.4371 26.1698 90.1777 26.1698 89.8576V85.2459H25.0108V89.8576Z" fill="black"/>
<path d="M27.9997 89.8576C27.9997 90.1777 28.2592 90.4371 28.5792 90.4371V90.4371C28.8993 90.4371 29.1587 90.1777 29.1587 89.8576V85.2459H27.9997V89.8576Z" fill="black"/>
<path d="M30.9887 89.8576C30.9887 90.1777 31.2481 90.4371 31.5682 90.4371V90.4371C31.8882 90.4371 32.1477 90.1777 32.1477 89.8576V85.2459H30.9887V89.8576Z" fill="black"/>
<path d="M22.0218 64.514C22.0218 64.1939 22.2812 63.9344 22.6013 63.9344V63.9344C22.9213 63.9344 23.1808 64.1939 23.1808 64.514V69.1257H22.0218V64.514Z" fill="black"/>
<path d="M19.0329 64.514C19.0329 64.1939 19.2923 63.9344 19.6124 63.9344V63.9344C19.9324 63.9344 20.1919 64.1939 20.1919 64.514V69.1257H19.0329V64.514Z" fill="black"/>
<path d="M25.0108 64.514C25.0108 64.1939 25.2702 63.9344 25.5903 63.9344V63.9344C25.9103 63.9344 26.1698 64.1939 26.1698 64.514V69.1257H25.0108V64.514Z" fill="black"/>
<path d="M27.9997 64.514C27.9997 64.1939 28.2592 63.9344 28.5792 63.9344V63.9344C28.8993 63.9344 29.1587 64.1939 29.1587 64.514V69.1257H27.9997V64.514Z" fill="black"/>
<path d="M30.9887 64.514C30.9887 64.1939 31.2481 63.9344 31.5682 63.9344V63.9344C31.8882 63.9344 32.1477 64.1939 32.1477 64.514V69.1257H30.9887V64.514Z" fill="black"/>
<rect x="17.3934" y="68.8524" width="16.3934" height="16.3934" rx="1" stroke="black" stroke-width="1.25"/>
<mask id="path-28-inside-1" mask-type="luminance" fill="white">
<rect x="32.1475" y="16.3934" width="40.9836" height="6.55738" rx="1"/>
</mask>
<rect x="32.1475" y="16.3934" width="40.9836" height="6.55738" rx="1" stroke="black" stroke-width="2.5" mask="url(#path-28-inside-1)"/>
<mask id="path-29-inside-2" mask-type="luminance" fill="white">
<rect x="32.1475" y="24.5902" width="40.9836" height="6.55738" rx="1"/>
</mask>
<rect x="32.1475" y="24.5902" width="40.9836" height="6.55738" rx="1" stroke="black" stroke-width="2.5" mask="url(#path-29-inside-2)"/>
<mask id="path-30-inside-3" mask-type="luminance" fill="white">
<rect x="32.1475" y="32.7869" width="40.9836" height="6.55738" rx="1"/>
</mask>
<rect x="32.1475" y="32.7869" width="40.9836" height="6.55738" rx="1" stroke="black" stroke-width="2.5" mask="url(#path-30-inside-3)"/>
<mask id="path-31-inside-4" mask-type="luminance" fill="white">
<rect x="32.1475" y="40.9836" width="40.9836" height="6.55738" rx="1"/>
</mask>
<rect x="32.1475" y="40.9836" width="40.9836" height="6.55738" rx="1" stroke="black" stroke-width="2.5" mask="url(#path-31-inside-4)"/>
<mask id="path-32-inside-5" mask-type="luminance" fill="white">
<rect x="46.9016" y="54.0984" width="9.83607" height="40.9836" rx="1"/>
</mask>
<rect x="46.9016" y="54.0984" width="9.83607" height="40.9836" rx="1" stroke="black" stroke-width="2.5" mask="url(#path-32-inside-5)"/>
<mask id="path-33-inside-6" mask-type="luminance" fill="white">
<rect x="60.0164" y="54.0984" width="9.83607" height="40.9836" rx="1"/>
</mask>
<rect x="60.0164" y="54.0984" width="9.83607" height="40.9836" rx="1" stroke="black" stroke-width="2.5" mask="url(#path-33-inside-6)"/>
<circle cx="37.0656" cy="57.3771" r="3.27869" stroke="black" stroke-width="1.25"/>
</mask>
<g mask="url(#mask0)">
<rect x="-12.1148" width="100" height="100" fill="url(#paint0_linear)"/>
</g>
<defs>
<linearGradient id="paint0_linear" x1="37.8852" y1="0" x2="37.8852" y2="100" gradientUnits="userSpaceOnUse">
<stop stop-color="#AD00FF"/>
<stop offset="1" stop-color="#0057FF"/>
</linearGradient>
</defs>
</svg>
