<svg width="268" height="88" viewBox="0 0 268 88" fill="none" xmlns="http://www.w3.org/2000/svg">
<path d="M9.26228 6.2C11.4063 6.2 13.0863 6.712 14.3023 7.736C15.5183 8.76 16.1263 10.168 16.1263 11.96C16.1263 13.752 15.5183 15.16 14.3023 16.184C13.0863 17.192 11.4063 17.696 9.26228 17.696H4.75028V23H2.97428V6.2H9.26228ZM9.21428 16.136C10.8783 16.136 12.1503 15.776 13.0303 15.056C13.9103 14.32 14.3503 13.288 14.3503 11.96C14.3503 10.6 13.9103 9.56 13.0303 8.84C12.1503 8.104 10.8783 7.736 9.21428 7.736H4.75028V16.136H9.21428ZM20.9103 12.848C21.3103 12 21.9023 11.36 22.6863 10.928C23.4863 10.496 24.4703 10.28 25.6383 10.28V11.936L25.2303 11.912C23.9023 11.912 22.8623 12.32 22.1103 13.136C21.3583 13.952 20.9823 15.096 20.9823 16.568V23H19.2783V10.376H20.9103V12.848ZM33.7665 23.12C32.5505 23.12 31.4545 22.848 30.4785 22.304C29.5025 21.744 28.7345 20.976 28.1745 20C27.6145 19.024 27.3345 17.92 27.3345 16.688C27.3345 15.456 27.6145 14.352 28.1745 13.376C28.7345 12.4 29.5025 11.64 30.4785 11.096C31.4545 10.552 32.5505 10.28 33.7665 10.28C34.9825 10.28 36.0785 10.552 37.0545 11.096C38.0305 11.64 38.7905 12.4 39.3345 13.376C39.8945 14.352 40.1745 15.456 40.1745 16.688C40.1745 17.92 39.8945 19.024 39.3345 20C38.7905 20.976 38.0305 21.744 37.0545 22.304C36.0785 22.848 34.9825 23.12 33.7665 23.12ZM33.7665 21.608C34.6625 21.608 35.4625 21.408 36.1665 21.008C36.8865 20.592 37.4465 20.008 37.8465 19.256C38.2465 18.504 38.4465 17.648 38.4465 16.688C38.4465 15.728 38.2465 14.872 37.8465 14.12C37.4465 13.368 36.8865 12.792 36.1665 12.392C35.4625 11.976 34.6625 11.768 33.7665 11.768C32.8705 11.768 32.0625 11.976 31.3425 12.392C30.6385 12.792 30.0785 13.368 29.6625 14.12C29.2625 14.872 29.0625 15.728 29.0625 16.688C29.0625 17.648 29.2625 18.504 29.6625 19.256C30.0785 20.008 30.6385 20.592 31.3425 21.008C32.0625 21.408 32.8705 21.608 33.7665 21.608ZM41.7813 27.776C41.2533 27.776 40.7573 27.704 40.2933 27.56C39.8133 27.432 39.4213 27.232 39.1173 26.96L39.7173 25.664C40.2133 26.096 40.8693 26.312 41.6853 26.312C42.3573 26.312 42.8693 26.112 43.2213 25.712C43.5893 25.312 43.7733 24.72 43.7733 23.936V10.376H45.4773V23.936C45.4773 25.12 45.1573 26.056 44.5173 26.744C43.8773 27.432 42.9653 27.776 41.7813 27.776ZM44.6373 7.592C44.2853 7.592 43.9893 7.472 43.7493 7.232C43.5093 6.992 43.3893 6.704 43.3893 6.368C43.3893 6.048 43.5093 5.768 43.7493 5.528C43.9893 5.288 44.2853 5.168 44.6373 5.168C44.9893 5.168 45.2853 5.288 45.5253 5.528C45.7653 5.752 45.8853 6.024 45.8853 6.344C45.8853 6.696 45.7653 6.992 45.5253 7.232C45.2853 7.472 44.9893 7.592 44.6373 7.592ZM61.2313 17.216H50.6713C50.7673 18.528 51.2713 19.592 52.1833 20.408C53.0953 21.208 54.2473 21.608 55.6393 21.608C56.4233 21.608 57.1433 21.472 57.7993 21.2C58.4553 20.912 59.0233 20.496 59.5033 19.952L60.4633 21.056C59.9033 21.728 59.1993 22.24 58.3513 22.592C57.5193 22.944 56.5993 23.12 55.5913 23.12C54.2953 23.12 53.1433 22.848 52.1353 22.304C51.1433 21.744 50.3673 20.976 49.8073 20C49.2473 19.024 48.9673 17.92 48.9673 16.688C48.9673 15.456 49.2313 14.352 49.7593 13.376C50.3033 12.4 51.0393 11.64 51.9673 11.096C52.9113 10.552 53.9673 10.28 55.1353 10.28C56.3033 10.28 57.3513 10.552 58.2793 11.096C59.2073 11.64 59.9353 12.4 60.4633 13.376C60.9913 14.336 61.2553 15.44 61.2553 16.688L61.2313 17.216ZM55.1353 11.744C53.9193 11.744 52.8953 12.136 52.0633 12.92C51.2473 13.688 50.7833 14.696 50.6713 15.944H59.6233C59.5113 14.696 59.0393 13.688 58.2073 12.92C57.3913 12.136 56.3673 11.744 55.1353 11.744ZM69.9557 23.12C68.7077 23.12 67.5877 22.848 66.5957 22.304C65.6197 21.76 64.8517 21 64.2917 20.024C63.7317 19.032 63.4517 17.92 63.4517 16.688C63.4517 15.456 63.7317 14.352 64.2917 13.376C64.8517 12.4 65.6197 11.64 66.5957 11.096C67.5877 10.552 68.7077 10.28 69.9557 10.28C71.0437 10.28 72.0117 10.496 72.8597 10.928C73.7237 11.344 74.4037 11.96 74.8997 12.776L73.6277 13.64C73.2117 13.016 72.6837 12.552 72.0437 12.248C71.4037 11.928 70.7077 11.768 69.9557 11.768C69.0437 11.768 68.2197 11.976 67.4837 12.392C66.7637 12.792 66.1957 13.368 65.7797 14.12C65.3797 14.872 65.1797 15.728 65.1797 16.688C65.1797 17.664 65.3797 18.528 65.7797 19.28C66.1957 20.016 66.7637 20.592 67.4837 21.008C68.2197 21.408 69.0437 21.608 69.9557 21.608C70.7077 21.608 71.4037 21.456 72.0437 21.152C72.6837 20.848 73.2117 20.384 73.6277 19.76L74.8997 20.624C74.4037 21.44 73.7237 22.064 72.8597 22.496C71.9957 22.912 71.0277 23.12 69.9557 23.12ZM85.0357 22.232C84.7157 22.52 84.3157 22.744 83.8357 22.904C83.3717 23.048 82.8837 23.12 82.3717 23.12C81.1877 23.12 80.2757 22.8 79.6357 22.16C78.9957 21.52 78.6757 20.616 78.6757 19.448V11.816H76.4197V10.376H78.6757V7.616H80.3797V10.376H84.2197V11.816H80.3797V19.352C80.3797 20.104 80.5637 20.68 80.9317 21.08C81.3157 21.464 81.8597 21.656 82.5637 21.656C82.9157 21.656 83.2517 21.6 83.5717 21.488C83.9077 21.376 84.1957 21.216 84.4357 21.008L85.0357 22.232Z" fill="#A8A2A2"/>
<path d="M20.4703 76.288C17.1423 76.288 14.1343 75.552 11.4463 74.08C8.79025 72.608 6.69425 70.576 5.15825 67.984C3.65425 65.36 2.90225 62.432 2.90225 59.2C2.90225 55.968 3.65425 53.056 5.15825 50.464C6.69425 47.84 8.80625 45.792 11.4943 44.32C14.1823 42.848 17.1903 42.112 20.5183 42.112C23.0143 42.112 25.3183 42.528 27.4303 43.36C29.5423 44.192 31.3343 45.408 32.8063 47.008L30.5503 49.264C27.9263 46.608 24.6143 45.28 20.6143 45.28C17.9583 45.28 15.5423 45.888 13.3663 47.104C11.1903 48.32 9.47825 49.984 8.23025 52.096C7.01425 54.208 6.40625 56.576 6.40625 59.2C6.40625 61.824 7.01425 64.192 8.23025 66.304C9.47825 68.416 11.1903 70.08 13.3663 71.296C15.5423 72.512 17.9583 73.12 20.6143 73.12C24.6463 73.12 27.9583 71.776 30.5503 69.088L32.8063 71.344C31.3343 72.944 29.5263 74.176 27.3823 75.04C25.2703 75.872 22.9663 76.288 20.4703 76.288ZM61.5665 50.752V76H58.3025V71.392C57.4065 72.928 56.1745 74.128 54.6065 74.992C53.0385 75.824 51.2465 76.24 49.2305 76.24C45.9345 76.24 43.3265 75.328 41.4065 73.504C39.5185 71.648 38.5745 68.944 38.5745 65.392V50.752H41.9825V65.056C41.9825 67.712 42.6385 69.728 43.9505 71.104C45.2625 72.48 47.1345 73.168 49.5665 73.168C52.2225 73.168 54.3185 72.368 55.8545 70.768C57.3905 69.136 58.1585 66.88 58.1585 64V50.752H61.5665ZM77.8794 76.24C75.8314 76.24 73.8634 75.952 71.9754 75.376C70.1194 74.768 68.6634 74.016 67.6074 73.12L69.1434 70.432C70.1994 71.264 71.5274 71.952 73.1274 72.496C74.7274 73.008 76.3914 73.264 78.1194 73.264C80.4234 73.264 82.1194 72.912 83.2074 72.208C84.3274 71.472 84.8874 70.448 84.8874 69.136C84.8874 68.208 84.5834 67.488 83.9754 66.976C83.3674 66.432 82.5994 66.032 81.6714 65.776C80.7434 65.488 79.5114 65.216 77.9754 64.96C75.9274 64.576 74.2794 64.192 73.0314 63.808C71.7834 63.392 70.7114 62.704 69.8154 61.744C68.9514 60.784 68.5194 59.456 68.5194 57.76C68.5194 55.648 69.3994 53.92 71.1594 52.576C72.9194 51.232 75.3674 50.56 78.5034 50.56C80.1354 50.56 81.7674 50.784 83.3994 51.232C85.0314 51.648 86.3754 52.208 87.4314 52.912L85.9434 55.648C83.8634 54.208 81.3834 53.488 78.5034 53.488C76.3274 53.488 74.6794 53.872 73.5594 54.64C72.4714 55.408 71.9274 56.416 71.9274 57.664C71.9274 58.624 72.2314 59.392 72.8394 59.968C73.4794 60.544 74.2634 60.976 75.1914 61.264C76.1194 61.52 77.3994 61.792 79.0314 62.08C81.0474 62.464 82.6634 62.848 83.8794 63.232C85.0954 63.616 86.1354 64.272 86.9994 65.2C87.8634 66.128 88.2954 67.408 88.2954 69.04C88.2954 71.248 87.3674 73.008 85.5114 74.32C83.6874 75.6 81.1434 76.24 77.8794 76.24ZM107.892 74.464C107.252 75.04 106.452 75.488 105.492 75.808C104.564 76.096 103.588 76.24 102.564 76.24C100.196 76.24 98.3718 75.6 97.0918 74.32C95.8118 73.04 95.1718 71.232 95.1718 68.896V53.632H90.6598V50.752H95.1718V45.232H98.5798V50.752H106.26V53.632H98.5798V68.704C98.5798 70.208 98.9478 71.36 99.6838 72.16C100.452 72.928 101.54 73.312 102.948 73.312C103.652 73.312 104.324 73.2 104.964 72.976C105.636 72.752 106.212 72.432 106.692 72.016L107.892 74.464ZM123.525 76.24C121.093 76.24 118.901 75.696 116.949 74.608C114.997 73.488 113.461 71.952 112.341 70C111.221 68.048 110.661 65.84 110.661 63.376C110.661 60.912 111.221 58.704 112.341 56.752C113.461 54.8 114.997 53.28 116.949 52.192C118.901 51.104 121.093 50.56 123.525 50.56C125.957 50.56 128.149 51.104 130.101 52.192C132.053 53.28 133.573 54.8 134.661 56.752C135.781 58.704 136.341 60.912 136.341 63.376C136.341 65.84 135.781 68.048 134.661 70C133.573 71.952 132.053 73.488 130.101 74.608C128.149 75.696 125.957 76.24 123.525 76.24ZM123.525 73.216C125.317 73.216 126.917 72.816 128.325 72.016C129.765 71.184 130.885 70.016 131.685 68.512C132.485 67.008 132.885 65.296 132.885 63.376C132.885 61.456 132.485 59.744 131.685 58.24C130.885 56.736 129.765 55.584 128.325 54.784C126.917 53.952 125.317 53.536 123.525 53.536C121.733 53.536 120.117 53.952 118.677 54.784C117.269 55.584 116.149 56.736 115.317 58.24C114.517 59.744 114.117 61.456 114.117 63.376C114.117 65.296 114.517 67.008 115.317 68.512C116.149 70.016 117.269 71.184 118.677 72.016C120.117 72.816 121.733 73.216 123.525 73.216ZM174.787 50.56C177.955 50.56 180.435 51.472 182.227 53.296C184.051 55.12 184.963 57.808 184.963 61.36V76H181.555V61.696C181.555 59.072 180.915 57.072 179.635 55.696C178.387 54.32 176.611 53.632 174.307 53.632C171.683 53.632 169.619 54.448 168.115 56.08C166.611 57.68 165.859 59.904 165.859 62.752V76H162.451V61.696C162.451 59.072 161.811 57.072 160.531 55.696C159.283 54.32 157.491 53.632 155.155 53.632C152.563 53.632 150.499 54.448 148.963 56.08C147.459 57.68 146.707 59.904 146.707 62.752V76H143.299V50.752H146.563V55.36C147.459 53.824 148.707 52.64 150.307 51.808C151.907 50.976 153.747 50.56 155.827 50.56C157.939 50.56 159.763 51.008 161.299 51.904C162.867 52.8 164.035 54.128 164.803 55.888C165.731 54.224 167.059 52.928 168.787 52C170.547 51.04 172.547 50.56 174.787 50.56ZM214.952 50.752L202.328 79.024C201.304 81.392 200.12 83.072 198.776 84.064C197.432 85.056 195.816 85.552 193.928 85.552C192.712 85.552 191.576 85.36 190.52 84.976C189.464 84.592 188.552 84.016 187.784 83.248L189.368 80.704C190.648 81.984 192.184 82.624 193.976 82.624C195.128 82.624 196.104 82.304 196.904 81.664C197.736 81.024 198.504 79.936 199.208 78.4L200.312 75.952L189.032 50.752H192.584L202.088 72.208L211.592 50.752H214.952ZM237.091 73.168V76H216.547V73.744L232.435 53.632H216.835V50.752H236.803V53.008L220.915 73.168H237.091ZM265.361 64.432H244.241C244.433 67.056 245.441 69.184 247.265 70.816C249.089 72.416 251.393 73.216 254.177 73.216C255.745 73.216 257.185 72.944 258.497 72.4C259.809 71.824 260.945 70.992 261.905 69.904L263.825 72.112C262.705 73.456 261.297 74.48 259.601 75.184C257.937 75.888 256.097 76.24 254.081 76.24C251.489 76.24 249.185 75.696 247.169 74.608C245.185 73.488 243.633 71.952 242.513 70C241.393 68.048 240.833 65.84 240.833 63.376C240.833 60.912 241.361 58.704 242.417 56.752C243.505 54.8 244.977 53.28 246.833 52.192C248.721 51.104 250.833 50.56 253.169 50.56C255.505 50.56 257.601 51.104 259.457 52.192C261.313 53.28 262.769 54.8 263.825 56.752C264.881 58.672 265.409 60.88 265.409 63.376L265.361 64.432ZM253.169 53.488C250.737 53.488 248.689 54.272 247.025 55.84C245.393 57.376 244.465 59.392 244.241 61.888H262.145C261.921 59.392 260.977 57.376 259.313 55.84C257.681 54.272 255.633 53.488 253.169 53.488Z" fill="url(#paint0_linear)"/>
<defs>
<linearGradient id="paint0_linear" x1="134" y1="29" x2="134" y2="88" gradientUnits="userSpaceOnUse">
<stop stop-color="#AD00FF"/>
<stop offset="1" stop-color="#0057FF"/>
</linearGradient>
</defs>
</svg>
