<svg width="378" height="88" viewBox="0 0 378 88" fill="none" xmlns="http://www.w3.org/2000/svg">
<mask id="path-1-inside-1" fill="white">
<path fill-rule="evenodd" clip-rule="evenodd" d="M90 11C90 9.89543 89.1046 9 88 9H56C54.8954 9 54 9.89543 54 11V36.1667C54 37.2712 54.8954 38.1667 56 38.1667H88C89.1046 38.1667 90 37.2712 90 36.1667V11ZM0 25C0 23.8954 0.895432 23 2 23H34C35.1046 23 36 23.8954 36 25V49C36 50.1046 36.8954 51 38 51H70C71.1046 51 72 51.8954 72 53V67.6666C72 68.7712 71.1046 69.6666 70 69.6666H44C42.8954 69.6666 42 70.5621 42 71.6666V74C42 75.1046 42.8954 76 44 76H48.5C48.7761 76 49 76.2238 49 76.5V76.5C49 76.7761 48.7761 77 48.5 77H42H30H23.5C23.2239 77 23 76.7761 23 76.5V76.5C23 76.2238 23.2239 76 23.5 76H28C29.1046 76 30 75.1046 30 74V71.6666C30 70.5621 29.1046 69.6666 28 69.6666H2C0.895431 69.6666 0 68.7712 0 67.6666V25Z"/>
</mask>
<path d="M56 10H88V8H56V10ZM55 36.1667V11H53V36.1667H55ZM88 37.1667H56V39.1667H88V37.1667ZM89 11V36.1667H91V11H89ZM34 22H2V24H34V22ZM37 49V25H35V49H37ZM70 50H38V52H70V50ZM73 67.6666V53H71V67.6666H73ZM44 70.6666H70V68.6666H44V70.6666ZM43 74V71.6666H41V74H43ZM48.5 75H44V77H48.5V75ZM42 78H48.5V76H42V78ZM30 78H42V76H30V78ZM23.5 78H30V76H23.5V78ZM28 75H23.5V77H28V75ZM29 71.6666V74H31V71.6666H29ZM2 70.6666H28V68.6666H2V70.6666ZM-1 25V67.6666H1V25H-1ZM2 68.6666C1.44772 68.6666 1 68.2189 1 67.6666H-1C-1 69.3235 0.343145 70.6666 2 70.6666V68.6666ZM31 71.6666C31 70.0098 29.6569 68.6666 28 68.6666V70.6666C28.5523 70.6666 29 71.1144 29 71.6666H31ZM28 77C29.6569 77 31 75.6568 31 74H29C29 74.5523 28.5523 75 28 75V77ZM24 76.5C24 76.7761 23.7761 77 23.5 77V75C22.6716 75 22 75.6716 22 76.5H24ZM23.5 76C23.7761 76 24 76.2238 24 76.5H22C22 77.3284 22.6716 78 23.5 78V76ZM48 76.5C48 76.2238 48.2239 76 48.5 76V78C49.3284 78 50 77.3284 50 76.5H48ZM48.5 77C48.2239 77 48 76.7761 48 76.5H50C50 75.6716 49.3284 75 48.5 75V77ZM41 74C41 75.6568 42.3431 77 44 77V75C43.4477 75 43 74.5523 43 74H41ZM44 68.6666C42.3431 68.6666 41 70.0098 41 71.6666H43C43 71.1144 43.4477 70.6666 44 70.6666V68.6666ZM71 67.6666C71 68.2189 70.5523 68.6666 70 68.6666V70.6666C71.6569 70.6666 73 69.3235 73 67.6666H71ZM70 52C70.5523 52 71 52.4477 71 53H73C73 51.3431 71.6569 50 70 50V52ZM35 49C35 50.6568 36.3432 52 38 52V50C37.4477 50 37 49.5523 37 49H35ZM2 22C0.343148 22 -1 23.3431 -1 25H1C1 24.4477 1.44772 24 2 24V22ZM34 24C34.5523 24 35 24.4477 35 25H37C37 23.3431 35.6569 22 34 22V24ZM88 39.1667C89.6569 39.1667 91 37.8235 91 36.1667H89C89 36.719 88.5523 37.1667 88 37.1667V39.1667ZM53 36.1667C53 37.8235 54.3431 39.1667 56 39.1667V37.1667C55.4477 37.1667 55 36.719 55 36.1667H53ZM88 10C88.5523 10 89 10.4477 89 11H91C91 9.34314 89.6569 8 88 8V10ZM56 8C54.3431 8 53 9.34314 53 11H55C55 10.4477 55.4477 10 56 10V8Z" fill="url(#paint0_linear)" mask="url(#path-1-inside-1)"/>
<path d="M119.262 6.2C121.406 6.2 123.086 6.712 124.302 7.736C125.518 8.76 126.126 10.168 126.126 11.96C126.126 13.752 125.518 15.16 124.302 16.184C123.086 17.192 121.406 17.696 119.262 17.696H114.75V23H112.974V6.2H119.262ZM119.214 16.136C120.878 16.136 122.15 15.776 123.03 15.056C123.91 14.32 124.35 13.288 124.35 11.96C124.35 10.6 123.91 9.56 123.03 8.84C122.15 8.104 120.878 7.736 119.214 7.736H114.75V16.136H119.214ZM130.91 12.848C131.31 12 131.902 11.36 132.686 10.928C133.486 10.496 134.47 10.28 135.638 10.28V11.936L135.23 11.912C133.902 11.912 132.862 12.32 132.11 13.136C131.358 13.952 130.982 15.096 130.982 16.568V23H129.278V10.376H130.91V12.848ZM143.766 23.12C142.55 23.12 141.454 22.848 140.478 22.304C139.502 21.744 138.734 20.976 138.174 20C137.614 19.024 137.334 17.92 137.334 16.688C137.334 15.456 137.614 14.352 138.174 13.376C138.734 12.4 139.502 11.64 140.478 11.096C141.454 10.552 142.55 10.28 143.766 10.28C144.982 10.28 146.078 10.552 147.054 11.096C148.03 11.64 148.79 12.4 149.334 13.376C149.894 14.352 150.174 15.456 150.174 16.688C150.174 17.92 149.894 19.024 149.334 20C148.79 20.976 148.03 21.744 147.054 22.304C146.078 22.848 144.982 23.12 143.766 23.12ZM143.766 21.608C144.662 21.608 145.462 21.408 146.166 21.008C146.886 20.592 147.446 20.008 147.846 19.256C148.246 18.504 148.446 17.648 148.446 16.688C148.446 15.728 148.246 14.872 147.846 14.12C147.446 13.368 146.886 12.792 146.166 12.392C145.462 11.976 144.662 11.768 143.766 11.768C142.87 11.768 142.062 11.976 141.342 12.392C140.638 12.792 140.078 13.368 139.662 14.12C139.262 14.872 139.062 15.728 139.062 16.688C139.062 17.648 139.262 18.504 139.662 19.256C140.078 20.008 140.638 20.592 141.342 21.008C142.062 21.408 142.87 21.608 143.766 21.608ZM151.781 27.776C151.253 27.776 150.757 27.704 150.293 27.56C149.813 27.432 149.421 27.232 149.117 26.96L149.717 25.664C150.213 26.096 150.869 26.312 151.685 26.312C152.357 26.312 152.869 26.112 153.221 25.712C153.589 25.312 153.773 24.72 153.773 23.936V10.376H155.477V23.936C155.477 25.12 155.157 26.056 154.517 26.744C153.877 27.432 152.965 27.776 151.781 27.776ZM154.637 7.592C154.285 7.592 153.989 7.472 153.749 7.232C153.509 6.992 153.389 6.704 153.389 6.368C153.389 6.048 153.509 5.768 153.749 5.528C153.989 5.288 154.285 5.168 154.637 5.168C154.989 5.168 155.285 5.288 155.525 5.528C155.765 5.752 155.885 6.024 155.885 6.344C155.885 6.696 155.765 6.992 155.525 7.232C155.285 7.472 154.989 7.592 154.637 7.592ZM171.231 17.216H160.671C160.767 18.528 161.271 19.592 162.183 20.408C163.095 21.208 164.247 21.608 165.639 21.608C166.423 21.608 167.143 21.472 167.799 21.2C168.455 20.912 169.023 20.496 169.503 19.952L170.463 21.056C169.903 21.728 169.199 22.24 168.351 22.592C167.519 22.944 166.599 23.12 165.591 23.12C164.295 23.12 163.143 22.848 162.135 22.304C161.143 21.744 160.367 20.976 159.807 20C159.247 19.024 158.967 17.92 158.967 16.688C158.967 15.456 159.231 14.352 159.759 13.376C160.303 12.4 161.039 11.64 161.967 11.096C162.911 10.552 163.967 10.28 165.135 10.28C166.303 10.28 167.351 10.552 168.279 11.096C169.207 11.64 169.935 12.4 170.463 13.376C170.991 14.336 171.255 15.44 171.255 16.688L171.231 17.216ZM165.135 11.744C163.919 11.744 162.895 12.136 162.063 12.92C161.247 13.688 160.783 14.696 160.671 15.944H169.623C169.511 14.696 169.039 13.688 168.207 12.92C167.391 12.136 166.367 11.744 165.135 11.744ZM179.956 23.12C178.708 23.12 177.588 22.848 176.596 22.304C175.62 21.76 174.852 21 174.292 20.024C173.732 19.032 173.452 17.92 173.452 16.688C173.452 15.456 173.732 14.352 174.292 13.376C174.852 12.4 175.62 11.64 176.596 11.096C177.588 10.552 178.708 10.28 179.956 10.28C181.044 10.28 182.012 10.496 182.86 10.928C183.724 11.344 184.404 11.96 184.9 12.776L183.628 13.64C183.212 13.016 182.684 12.552 182.044 12.248C181.404 11.928 180.708 11.768 179.956 11.768C179.044 11.768 178.22 11.976 177.484 12.392C176.764 12.792 176.196 13.368 175.78 14.12C175.38 14.872 175.18 15.728 175.18 16.688C175.18 17.664 175.38 18.528 175.78 19.28C176.196 20.016 176.764 20.592 177.484 21.008C178.22 21.408 179.044 21.608 179.956 21.608C180.708 21.608 181.404 21.456 182.044 21.152C182.684 20.848 183.212 20.384 183.628 19.76L184.9 20.624C184.404 21.44 183.724 22.064 182.86 22.496C181.996 22.912 181.028 23.12 179.956 23.12ZM195.036 22.232C194.716 22.52 194.316 22.744 193.836 22.904C193.372 23.048 192.884 23.12 192.372 23.12C191.188 23.12 190.276 22.8 189.636 22.16C188.996 21.52 188.676 20.616 188.676 19.448V11.816H186.42V10.376H188.676V7.616H190.38V10.376H194.22V11.816H190.38V19.352C190.38 20.104 190.564 20.68 190.932 21.08C191.316 21.464 191.86 21.656 192.564 21.656C192.916 21.656 193.252 21.6 193.572 21.488C193.908 21.376 194.196 21.216 194.436 21.008L195.036 22.232Z" fill="#A8A2A2"/>
<path d="M130.47 76.288C127.142 76.288 124.134 75.552 121.446 74.08C118.79 72.608 116.694 70.576 115.158 67.984C113.654 65.36 112.902 62.432 112.902 59.2C112.902 55.968 113.654 53.056 115.158 50.464C116.694 47.84 118.806 45.792 121.494 44.32C124.182 42.848 127.19 42.112 130.518 42.112C133.014 42.112 135.318 42.528 137.43 43.36C139.542 44.192 141.334 45.408 142.806 47.008L140.55 49.264C137.926 46.608 134.614 45.28 130.614 45.28C127.958 45.28 125.542 45.888 123.366 47.104C121.19 48.32 119.478 49.984 118.23 52.096C117.014 54.208 116.406 56.576 116.406 59.2C116.406 61.824 117.014 64.192 118.23 66.304C119.478 68.416 121.19 70.08 123.366 71.296C125.542 72.512 127.958 73.12 130.614 73.12C134.646 73.12 137.958 71.776 140.55 69.088L142.806 71.344C141.334 72.944 139.526 74.176 137.382 75.04C135.27 75.872 132.966 76.288 130.47 76.288ZM171.567 50.752V76H168.302V71.392C167.407 72.928 166.175 74.128 164.607 74.992C163.039 75.824 161.247 76.24 159.231 76.24C155.935 76.24 153.327 75.328 151.407 73.504C149.519 71.648 148.575 68.944 148.575 65.392V50.752H151.983V65.056C151.983 67.712 152.639 69.728 153.951 71.104C155.263 72.48 157.135 73.168 159.567 73.168C162.223 73.168 164.319 72.368 165.855 70.768C167.391 69.136 168.159 66.88 168.159 64V50.752H171.567ZM187.879 76.24C185.831 76.24 183.863 75.952 181.975 75.376C180.119 74.768 178.663 74.016 177.607 73.12L179.143 70.432C180.199 71.264 181.527 71.952 183.127 72.496C184.727 73.008 186.391 73.264 188.119 73.264C190.423 73.264 192.119 72.912 193.207 72.208C194.327 71.472 194.887 70.448 194.887 69.136C194.887 68.208 194.583 67.488 193.975 66.976C193.367 66.432 192.599 66.032 191.671 65.776C190.743 65.488 189.511 65.216 187.975 64.96C185.927 64.576 184.279 64.192 183.031 63.808C181.783 63.392 180.711 62.704 179.815 61.744C178.951 60.784 178.519 59.456 178.519 57.76C178.519 55.648 179.399 53.92 181.159 52.576C182.919 51.232 185.367 50.56 188.503 50.56C190.135 50.56 191.767 50.784 193.399 51.232C195.031 51.648 196.375 52.208 197.431 52.912L195.943 55.648C193.863 54.208 191.383 53.488 188.503 53.488C186.327 53.488 184.679 53.872 183.559 54.64C182.471 55.408 181.927 56.416 181.927 57.664C181.927 58.624 182.231 59.392 182.839 59.968C183.479 60.544 184.263 60.976 185.191 61.264C186.119 61.52 187.399 61.792 189.031 62.08C191.047 62.464 192.663 62.848 193.879 63.232C195.095 63.616 196.135 64.272 196.999 65.2C197.863 66.128 198.295 67.408 198.295 69.04C198.295 71.248 197.367 73.008 195.511 74.32C193.687 75.6 191.143 76.24 187.879 76.24ZM217.892 74.464C217.252 75.04 216.452 75.488 215.492 75.808C214.564 76.096 213.588 76.24 212.564 76.24C210.196 76.24 208.372 75.6 207.092 74.32C205.812 73.04 205.172 71.232 205.172 68.896V53.632H200.66V50.752H205.172V45.232H208.58V50.752H216.26V53.632H208.58V68.704C208.58 70.208 208.948 71.36 209.684 72.16C210.452 72.928 211.54 73.312 212.948 73.312C213.652 73.312 214.324 73.2 214.964 72.976C215.636 72.752 216.212 72.432 216.692 72.016L217.892 74.464ZM233.525 76.24C231.093 76.24 228.901 75.696 226.949 74.608C224.997 73.488 223.461 71.952 222.341 70C221.221 68.048 220.661 65.84 220.661 63.376C220.661 60.912 221.221 58.704 222.341 56.752C223.461 54.8 224.997 53.28 226.949 52.192C228.901 51.104 231.093 50.56 233.525 50.56C235.957 50.56 238.149 51.104 240.101 52.192C242.053 53.28 243.573 54.8 244.661 56.752C245.781 58.704 246.341 60.912 246.341 63.376C246.341 65.84 245.781 68.048 244.661 70C243.573 71.952 242.053 73.488 240.101 74.608C238.149 75.696 235.957 76.24 233.525 76.24ZM233.525 73.216C235.317 73.216 236.917 72.816 238.325 72.016C239.765 71.184 240.885 70.016 241.685 68.512C242.485 67.008 242.885 65.296 242.885 63.376C242.885 61.456 242.485 59.744 241.685 58.24C240.885 56.736 239.765 55.584 238.325 54.784C236.917 53.952 235.317 53.536 233.525 53.536C231.733 53.536 230.117 53.952 228.677 54.784C227.269 55.584 226.149 56.736 225.317 58.24C224.517 59.744 224.117 61.456 224.117 63.376C224.117 65.296 224.517 67.008 225.317 68.512C226.149 70.016 227.269 71.184 228.677 72.016C230.117 72.816 231.733 73.216 233.525 73.216ZM284.787 50.56C287.955 50.56 290.435 51.472 292.227 53.296C294.051 55.12 294.963 57.808 294.963 61.36V76H291.555V61.696C291.555 59.072 290.915 57.072 289.635 55.696C288.387 54.32 286.611 53.632 284.307 53.632C281.683 53.632 279.619 54.448 278.115 56.08C276.611 57.68 275.859 59.904 275.859 62.752V76H272.451V61.696C272.451 59.072 271.811 57.072 270.531 55.696C269.283 54.32 267.491 53.632 265.155 53.632C262.563 53.632 260.499 54.448 258.963 56.08C257.459 57.68 256.707 59.904 256.707 62.752V76H253.299V50.752H256.563V55.36C257.459 53.824 258.707 52.64 260.307 51.808C261.907 50.976 263.747 50.56 265.827 50.56C267.939 50.56 269.763 51.008 271.299 51.904C272.867 52.8 274.035 54.128 274.803 55.888C275.731 54.224 277.059 52.928 278.787 52C280.547 51.04 282.547 50.56 284.787 50.56ZM324.952 50.752L312.328 79.024C311.304 81.392 310.12 83.072 308.776 84.064C307.432 85.056 305.816 85.552 303.928 85.552C302.712 85.552 301.576 85.36 300.52 84.976C299.464 84.592 298.552 84.016 297.784 83.248L299.368 80.704C300.648 81.984 302.184 82.624 303.976 82.624C305.128 82.624 306.104 82.304 306.904 81.664C307.736 81.024 308.504 79.936 309.208 78.4L310.312 75.952L299.032 50.752H302.584L312.088 72.208L321.592 50.752H324.952ZM347.091 73.168V76H326.547V73.744L342.435 53.632H326.835V50.752H346.803V53.008L330.915 73.168H347.091ZM375.361 64.432H354.241C354.433 67.056 355.441 69.184 357.265 70.816C359.089 72.416 361.393 73.216 364.177 73.216C365.745 73.216 367.185 72.944 368.497 72.4C369.809 71.824 370.945 70.992 371.905 69.904L373.825 72.112C372.705 73.456 371.297 74.48 369.601 75.184C367.937 75.888 366.097 76.24 364.081 76.24C361.489 76.24 359.185 75.696 357.169 74.608C355.185 73.488 353.633 71.952 352.513 70C351.393 68.048 350.833 65.84 350.833 63.376C350.833 60.912 351.361 58.704 352.417 56.752C353.505 54.8 354.977 53.28 356.833 52.192C358.721 51.104 360.833 50.56 363.169 50.56C365.505 50.56 367.601 51.104 369.457 52.192C371.313 53.28 372.769 54.8 373.825 56.752C374.881 58.672 375.409 60.88 375.409 63.376L375.361 64.432ZM363.169 53.488C360.737 53.488 358.689 54.272 357.025 55.84C355.393 57.376 354.465 59.392 354.241 61.888H372.145C371.921 59.392 370.977 57.376 369.313 55.84C367.681 54.272 365.633 53.488 363.169 53.488Z" fill="url(#paint1_linear)"/>
<defs>
<linearGradient id="paint0_linear" x1="45" y1="9" x2="45" y2="79" gradientUnits="userSpaceOnUse">
<stop stop-color="#AD00FF"/>
<stop offset="1" stop-color="#0057FF"/>
</linearGradient>
<linearGradient id="paint1_linear" x1="244" y1="29" x2="244" y2="88" gradientUnits="userSpaceOnUse">
<stop stop-color="#AD00FF"/>
<stop offset="1" stop-color="#0057FF"/>
</linearGradient>
</defs>
</svg>
