<svg width="349" height="370" viewBox="0 0 349 370" fill="none" xmlns="http://www.w3.org/2000/svg">
<path d="M201.5 252C201.5 261.188 199.983 277.926 219 287L129 287C148.017 277.926 146.5 261.188 146.5 252" stroke="url(#paint0_linear)" stroke-width="3"/>
<path d="M2 211H347" stroke="#2246FF" stroke-width="3"/>
<path d="M2 7V247C2 249.761 4.23858 252 7 252H174.5H342C344.761 252 347 249.761 347 247V7C347 4.23858 344.761 2 342 2H7C4.23858 2 2 4.23857 2 7Z" stroke="url(#paint1_linear)" stroke-width="3"/>
<circle cx="174" cy="231" r="8.5" stroke="url(#paint2_linear)" stroke-width="3"/>
<path d="M29.3234 362.216C26.8274 362.216 24.5714 361.664 22.5554 360.56C20.5634 359.456 18.9914 357.932 17.8394 355.988C16.7114 354.02 16.1474 351.824 16.1474 349.4C16.1474 346.976 16.7114 344.792 17.8394 342.848C18.9914 340.88 20.5754 339.344 22.5914 338.24C24.6074 337.136 26.8634 336.584 29.3594 336.584C31.2314 336.584 32.9594 336.896 34.5434 337.52C36.1274 338.144 37.4714 339.056 38.5754 340.256L36.8834 341.948C34.9154 339.956 32.4314 338.96 29.4314 338.96C27.4394 338.96 25.6274 339.416 23.9954 340.328C22.3634 341.24 21.0794 342.488 20.1434 344.072C19.2314 345.656 18.7754 347.432 18.7754 349.4C18.7754 351.368 19.2314 353.144 20.1434 354.728C21.0794 356.312 22.3634 357.56 23.9954 358.472C25.6274 359.384 27.4394 359.84 29.4314 359.84C32.4554 359.84 34.9394 358.832 36.8834 356.816L38.5754 358.508C37.4714 359.708 36.1154 360.632 34.5074 361.28C32.9234 361.904 31.1954 362.216 29.3234 362.216ZM60.1456 343.064V362H57.6976V358.544C57.0256 359.696 56.1016 360.596 54.9256 361.244C53.7496 361.868 52.4056 362.18 50.8936 362.18C48.4216 362.18 46.4656 361.496 45.0256 360.128C43.6096 358.736 42.9016 356.708 42.9016 354.044V343.064H45.4576V353.792C45.4576 355.784 45.9496 357.296 46.9336 358.328C47.9176 359.36 49.3216 359.876 51.1456 359.876C53.1376 359.876 54.7096 359.276 55.8616 358.076C57.0136 356.852 57.5896 355.16 57.5896 353V343.064H60.1456ZM72.3802 362.18C70.8442 362.18 69.3682 361.964 67.9522 361.532C66.5602 361.076 65.4682 360.512 64.6762 359.84L65.8282 357.824C66.6202 358.448 67.6162 358.964 68.8162 359.372C70.0162 359.756 71.2642 359.948 72.5602 359.948C74.2882 359.948 75.5602 359.684 76.3762 359.156C77.2162 358.604 77.6362 357.836 77.6362 356.852C77.6362 356.156 77.4082 355.616 76.9522 355.232C76.4962 354.824 75.9202 354.524 75.2242 354.332C74.5282 354.116 73.6042 353.912 72.4522 353.72C70.9162 353.432 69.6802 353.144 68.7442 352.856C67.8082 352.544 67.0042 352.028 66.3322 351.308C65.6842 350.588 65.3602 349.592 65.3602 348.32C65.3602 346.736 66.0202 345.44 67.3402 344.432C68.6602 343.424 70.4962 342.92 72.8482 342.92C74.0722 342.92 75.2962 343.088 76.5202 343.424C77.7442 343.736 78.7522 344.156 79.5442 344.684L78.4282 346.736C76.8682 345.656 75.0082 345.116 72.8482 345.116C71.2162 345.116 69.9802 345.404 69.1402 345.98C68.3242 346.556 67.9162 347.312 67.9162 348.248C67.9162 348.968 68.1442 349.544 68.6002 349.976C69.0802 350.408 69.6682 350.732 70.3642 350.948C71.0602 351.14 72.0202 351.344 73.2442 351.56C74.7562 351.848 75.9682 352.136 76.8802 352.424C77.7922 352.712 78.5722 353.204 79.2202 353.9C79.8682 354.596 80.1922 355.556 80.1922 356.78C80.1922 358.436 79.4962 359.756 78.1042 360.74C76.7362 361.7 74.8282 362.18 72.3802 362.18ZM94.8895 360.848C94.4095 361.28 93.8095 361.616 93.0895 361.856C92.3935 362.072 91.6615 362.18 90.8935 362.18C89.1175 362.18 87.7495 361.7 86.7895 360.74C85.8295 359.78 85.3495 358.424 85.3495 356.672V345.224H81.9655V343.064H85.3495V338.924H87.9055V343.064H93.6655V345.224H87.9055V356.528C87.9055 357.656 88.1815 358.52 88.7335 359.12C89.3095 359.696 90.1255 359.984 91.1815 359.984C91.7095 359.984 92.2135 359.9 92.6935 359.732C93.1975 359.564 93.6295 359.324 93.9895 359.012L94.8895 360.848ZM106.615 362.18C104.791 362.18 103.147 361.772 101.683 360.956C100.219 360.116 99.0665 358.964 98.2265 357.5C97.3865 356.036 96.9665 354.38 96.9665 352.532C96.9665 350.684 97.3865 349.028 98.2265 347.564C99.0665 346.1 100.219 344.96 101.683 344.144C103.147 343.328 104.791 342.92 106.615 342.92C108.439 342.92 110.083 343.328 111.547 344.144C113.011 344.96 114.151 346.1 114.967 347.564C115.807 349.028 116.227 350.684 116.227 352.532C116.227 354.38 115.807 356.036 114.967 357.5C114.151 358.964 113.011 360.116 111.547 360.956C110.083 361.772 108.439 362.18 106.615 362.18ZM106.615 359.912C107.959 359.912 109.159 359.612 110.215 359.012C111.295 358.388 112.135 357.512 112.735 356.384C113.335 355.256 113.635 353.972 113.635 352.532C113.635 351.092 113.335 349.808 112.735 348.68C112.135 347.552 111.295 346.688 110.215 346.088C109.159 345.464 107.959 345.152 106.615 345.152C105.271 345.152 104.059 345.464 102.979 346.088C101.923 346.688 101.083 347.552 100.459 348.68C99.8585 349.808 99.5585 351.092 99.5585 352.532C99.5585 353.972 99.8585 355.256 100.459 356.384C101.083 357.512 101.923 358.388 102.979 359.012C104.059 359.612 105.271 359.912 106.615 359.912ZM145.061 342.92C147.437 342.92 149.297 343.604 150.641 344.972C152.009 346.34 152.693 348.356 152.693 351.02V362H150.137V351.272C150.137 349.304 149.657 347.804 148.697 346.772C147.761 345.74 146.429 345.224 144.701 345.224C142.733 345.224 141.185 345.836 140.057 347.06C138.929 348.26 138.365 349.928 138.365 352.064V362H135.809V351.272C135.809 349.304 135.329 347.804 134.369 346.772C133.433 345.74 132.089 345.224 130.337 345.224C128.393 345.224 126.845 345.836 125.693 347.06C124.565 348.26 124.001 349.928 124.001 352.064V362H121.445V343.064H123.893V346.52C124.565 345.368 125.501 344.48 126.701 343.856C127.901 343.232 129.281 342.92 130.841 342.92C132.425 342.92 133.793 343.256 134.945 343.928C136.121 344.6 136.997 345.596 137.573 346.916C138.269 345.668 139.265 344.696 140.561 344C141.881 343.28 143.381 342.92 145.061 342.92ZM169.586 336.8H179.846C182.51 336.8 184.862 337.34 186.902 338.42C188.942 339.476 190.526 340.964 191.654 342.884C192.782 344.78 193.346 346.952 193.346 349.4C193.346 351.848 192.782 354.032 191.654 355.952C190.526 357.848 188.942 359.336 186.902 360.416C184.862 361.472 182.51 362 179.846 362H169.586V336.8ZM179.702 359.696C181.91 359.696 183.842 359.264 185.498 358.4C187.154 357.512 188.438 356.3 189.35 354.764C190.262 353.204 190.718 351.416 190.718 349.4C190.718 347.384 190.262 345.608 189.35 344.072C188.438 342.512 187.154 341.3 185.498 340.436C183.842 339.548 181.91 339.104 179.702 339.104H172.25V359.696H179.702ZM215.277 353.324H199.437C199.581 355.292 200.337 356.888 201.705 358.112C203.073 359.312 204.801 359.912 206.889 359.912C208.065 359.912 209.145 359.708 210.129 359.3C211.113 358.868 211.965 358.244 212.685 357.428L214.125 359.084C213.285 360.092 212.229 360.86 210.957 361.388C209.709 361.916 208.329 362.18 206.817 362.18C204.873 362.18 203.145 361.772 201.633 360.956C200.145 360.116 198.981 358.964 198.141 357.5C197.301 356.036 196.881 354.38 196.881 352.532C196.881 350.684 197.277 349.028 198.069 347.564C198.885 346.1 199.989 344.96 201.381 344.144C202.797 343.328 204.381 342.92 206.133 342.92C207.885 342.92 209.457 343.328 210.849 344.144C212.241 344.96 213.333 346.1 214.125 347.564C214.917 349.004 215.313 350.66 215.313 352.532L215.277 353.324ZM206.133 345.116C204.309 345.116 202.773 345.704 201.525 346.88C200.301 348.032 199.605 349.544 199.437 351.416H212.865C212.697 349.544 211.989 348.032 210.741 346.88C209.517 345.704 207.981 345.116 206.133 345.116ZM225.591 362.18C224.055 362.18 222.579 361.964 221.163 361.532C219.771 361.076 218.679 360.512 217.887 359.84L219.039 357.824C219.831 358.448 220.827 358.964 222.027 359.372C223.227 359.756 224.475 359.948 225.771 359.948C227.499 359.948 228.771 359.684 229.587 359.156C230.427 358.604 230.847 357.836 230.847 356.852C230.847 356.156 230.619 355.616 230.163 355.232C229.707 354.824 229.131 354.524 228.435 354.332C227.739 354.116 226.815 353.912 225.663 353.72C224.127 353.432 222.891 353.144 221.955 352.856C221.019 352.544 220.215 352.028 219.543 351.308C218.895 350.588 218.571 349.592 218.571 348.32C218.571 346.736 219.231 345.44 220.551 344.432C221.871 343.424 223.707 342.92 226.059 342.92C227.283 342.92 228.507 343.088 229.731 343.424C230.955 343.736 231.963 344.156 232.755 344.684L231.639 346.736C230.079 345.656 228.219 345.116 226.059 345.116C224.427 345.116 223.191 345.404 222.351 345.98C221.535 346.556 221.127 347.312 221.127 348.248C221.127 348.968 221.355 349.544 221.811 349.976C222.291 350.408 222.879 350.732 223.575 350.948C224.271 351.14 225.231 351.344 226.455 351.56C227.967 351.848 229.179 352.136 230.091 352.424C231.003 352.712 231.783 353.204 232.431 353.9C233.079 354.596 233.403 355.556 233.403 356.78C233.403 358.436 232.707 359.756 231.315 360.74C229.947 361.7 228.039 362.18 225.591 362.18ZM245.148 352.496L240.684 356.6V362H238.128V335.288H240.684V353.396L251.988 343.064H255.156L247.056 350.804L255.912 362H252.78L245.148 352.496ZM269.722 360.848C269.242 361.28 268.642 361.616 267.922 361.856C267.226 362.072 266.494 362.18 265.726 362.18C263.95 362.18 262.582 361.7 261.622 360.74C260.662 359.78 260.182 358.424 260.182 356.672V345.224H256.798V343.064H260.182V338.924H262.738V343.064H268.498V345.224H262.738V356.528C262.738 357.656 263.014 358.52 263.566 359.12C264.142 359.696 264.958 359.984 266.014 359.984C266.542 359.984 267.046 359.9 267.526 359.732C268.03 359.564 268.462 359.324 268.822 359.012L269.722 360.848ZM281.447 362.18C279.623 362.18 277.979 361.772 276.515 360.956C275.051 360.116 273.899 358.964 273.059 357.5C272.219 356.036 271.799 354.38 271.799 352.532C271.799 350.684 272.219 349.028 273.059 347.564C273.899 346.1 275.051 344.96 276.515 344.144C277.979 343.328 279.623 342.92 281.447 342.92C283.271 342.92 284.915 343.328 286.379 344.144C287.843 344.96 288.983 346.1 289.799 347.564C290.639 349.028 291.059 350.684 291.059 352.532C291.059 354.38 290.639 356.036 289.799 357.5C288.983 358.964 287.843 360.116 286.379 360.956C284.915 361.772 283.271 362.18 281.447 362.18ZM281.447 359.912C282.791 359.912 283.991 359.612 285.047 359.012C286.127 358.388 286.967 357.512 287.567 356.384C288.167 355.256 288.467 353.972 288.467 352.532C288.467 351.092 288.167 349.808 287.567 348.68C286.967 347.552 286.127 346.688 285.047 346.088C283.991 345.464 282.791 345.152 281.447 345.152C280.103 345.152 278.891 345.464 277.811 346.088C276.755 346.688 275.915 347.552 275.291 348.68C274.691 349.808 274.391 351.092 274.391 352.532C274.391 353.972 274.691 355.256 275.291 356.384C275.915 357.512 276.755 358.388 277.811 359.012C278.891 359.612 280.103 359.912 281.447 359.912ZM306.033 342.92C307.809 342.92 309.417 343.328 310.857 344.144C312.297 344.936 313.425 346.064 314.241 347.528C315.057 348.992 315.465 350.66 315.465 352.532C315.465 354.428 315.057 356.108 314.241 357.572C313.425 359.036 312.297 360.176 310.857 360.992C309.441 361.784 307.833 362.18 306.033 362.18C304.497 362.18 303.105 361.868 301.857 361.244C300.633 360.596 299.625 359.66 298.833 358.436V368.984H296.277V343.064H298.725V346.808C299.493 345.56 300.501 344.6 301.749 343.928C303.021 343.256 304.449 342.92 306.033 342.92ZM305.853 359.912C307.173 359.912 308.373 359.612 309.453 359.012C310.533 358.388 311.373 357.512 311.973 356.384C312.597 355.256 312.909 353.972 312.909 352.532C312.909 351.092 312.597 349.82 311.973 348.716C311.373 347.588 310.533 346.712 309.453 346.088C308.373 345.464 307.173 345.152 305.853 345.152C304.509 345.152 303.297 345.464 302.217 346.088C301.161 346.712 300.321 347.588 299.697 348.716C299.097 349.82 298.797 351.092 298.797 352.532C298.797 353.972 299.097 355.256 299.697 356.384C300.321 357.512 301.161 358.388 302.217 359.012C303.297 359.612 304.509 359.912 305.853 359.912ZM325.751 362.18C324.215 362.18 322.739 361.964 321.323 361.532C319.931 361.076 318.839 360.512 318.047 359.84L319.199 357.824C319.991 358.448 320.987 358.964 322.187 359.372C323.387 359.756 324.635 359.948 325.931 359.948C327.659 359.948 328.931 359.684 329.747 359.156C330.587 358.604 331.007 357.836 331.007 356.852C331.007 356.156 330.779 355.616 330.323 355.232C329.867 354.824 329.291 354.524 328.595 354.332C327.899 354.116 326.975 353.912 325.823 353.72C324.287 353.432 323.051 353.144 322.115 352.856C321.179 352.544 320.375 352.028 319.703 351.308C319.055 350.588 318.731 349.592 318.731 348.32C318.731 346.736 319.391 345.44 320.711 344.432C322.031 343.424 323.867 342.92 326.219 342.92C327.443 342.92 328.667 343.088 329.891 343.424C331.115 343.736 332.123 344.156 332.915 344.684L331.799 346.736C330.239 345.656 328.379 345.116 326.219 345.116C324.587 345.116 323.351 345.404 322.511 345.98C321.695 346.556 321.287 347.312 321.287 348.248C321.287 348.968 321.515 349.544 321.971 349.976C322.451 350.408 323.039 350.732 323.735 350.948C324.431 351.14 325.391 351.344 326.615 351.56C328.127 351.848 329.339 352.136 330.251 352.424C331.163 352.712 331.943 353.204 332.591 353.9C333.239 354.596 333.563 355.556 333.563 356.78C333.563 358.436 332.867 359.756 331.475 360.74C330.107 361.7 328.199 362.18 325.751 362.18Z" fill="black"/>
<defs>
<linearGradient id="paint0_linear" x1="174" y1="252" x2="174" y2="287" gradientUnits="userSpaceOnUse">
<stop offset="0.182292" stop-color="#AD00FF"/>
<stop offset="1" stop-color="#0057FF"/>
</linearGradient>
<linearGradient id="paint1_linear" x1="174.5" y1="2" x2="174.5" y2="252" gradientUnits="userSpaceOnUse">
<stop offset="0.151042" stop-color="#AD00FF"/>
<stop offset="1" stop-color="#0057FF"/>
</linearGradient>
<linearGradient id="paint2_linear" x1="174" y1="221" x2="174" y2="241" gradientUnits="userSpaceOnUse">
<stop stop-color="#1B4AFF"/>
<stop offset="1" stop-color="#0953FF"/>
</linearGradient>
</defs>
</svg>
