<svg width="224" height="391" viewBox="0 0 224 391" fill="none" xmlns="http://www.w3.org/2000/svg">
<path d="M177 2H47C44.2386 2 42 4.23857 42 7V247C42 249.761 44.2386 252 47 252H177C179.761 252 182 249.761 182 247V7C182 4.23858 179.761 2 177 2Z" stroke="url(#paint0_linear)" stroke-width="3"/>
<path d="M42 222H112H182" stroke="#1B4AFF" stroke-width="3"/>
<circle cx="112.5" cy="236.5" r="6" stroke="url(#paint1_linear)" stroke-width="3"/>
<path d="M66.8131 314.8V340H64.2571V319.84L54.3571 336.796H53.0971L43.1971 319.948V340H40.6411V314.8H42.8371L53.7811 333.484L64.6171 314.8H66.8131ZM82.2239 340.18C80.3999 340.18 78.7559 339.772 77.2919 338.956C75.8279 338.116 74.6759 336.964 73.8359 335.5C72.9959 334.036 72.5759 332.38 72.5759 330.532C72.5759 328.684 72.9959 327.028 73.8359 325.564C74.6759 324.1 75.8279 322.96 77.2919 322.144C78.7559 321.328 80.3999 320.92 82.2239 320.92C84.0479 320.92 85.6919 321.328 87.1559 322.144C88.6199 322.96 89.7599 324.1 90.5759 325.564C91.4159 327.028 91.8359 328.684 91.8359 330.532C91.8359 332.38 91.4159 334.036 90.5759 335.5C89.7599 336.964 88.6199 338.116 87.1559 338.956C85.6919 339.772 84.0479 340.18 82.2239 340.18ZM82.2239 337.912C83.5679 337.912 84.7679 337.612 85.8239 337.012C86.9039 336.388 87.7439 335.512 88.3439 334.384C88.9439 333.256 89.2439 331.972 89.2439 330.532C89.2439 329.092 88.9439 327.808 88.3439 326.68C87.7439 325.552 86.9039 324.688 85.8239 324.088C84.7679 323.464 83.5679 323.152 82.2239 323.152C80.8799 323.152 79.6679 323.464 78.5879 324.088C77.5319 324.688 76.6919 325.552 76.0679 326.68C75.4679 327.808 75.1679 329.092 75.1679 330.532C75.1679 331.972 75.4679 333.256 76.0679 334.384C76.6919 335.512 77.5319 336.388 78.5879 337.012C79.6679 337.612 80.8799 337.912 82.2239 337.912ZM114.334 313.288V340H111.886V336.256C111.118 337.528 110.098 338.5 108.826 339.172C107.578 339.844 106.162 340.18 104.578 340.18C102.802 340.18 101.194 339.772 99.7542 338.956C98.3142 338.14 97.1862 337 96.3702 335.536C95.5542 334.072 95.1462 332.404 95.1462 330.532C95.1462 328.66 95.5542 326.992 96.3702 325.528C97.1862 324.064 98.3142 322.936 99.7542 322.144C101.194 321.328 102.802 320.92 104.578 320.92C106.114 320.92 107.494 321.244 108.718 321.892C109.966 322.516 110.986 323.44 111.778 324.664V313.288H114.334ZM104.794 337.912C106.114 337.912 107.302 337.612 108.358 337.012C109.438 336.388 110.278 335.512 110.878 334.384C111.502 333.256 111.814 331.972 111.814 330.532C111.814 329.092 111.502 327.808 110.878 326.68C110.278 325.552 109.438 324.688 108.358 324.088C107.302 323.464 106.114 323.152 104.794 323.152C103.45 323.152 102.238 323.464 101.158 324.088C100.102 324.688 99.2622 325.552 98.6382 326.68C98.0382 327.808 97.7382 329.092 97.7382 330.532C97.7382 331.972 98.0382 333.256 98.6382 334.384C99.2622 335.512 100.102 336.388 101.158 337.012C102.238 337.612 103.45 337.912 104.794 337.912ZM138.517 321.064V340H136.069V336.544C135.397 337.696 134.473 338.596 133.297 339.244C132.121 339.868 130.777 340.18 129.265 340.18C126.793 340.18 124.837 339.496 123.397 338.128C121.981 336.736 121.273 334.708 121.273 332.044V321.064H123.829V331.792C123.829 333.784 124.321 335.296 125.305 336.328C126.289 337.36 127.693 337.876 129.517 337.876C131.509 337.876 133.081 337.276 134.233 336.076C135.385 334.852 135.961 333.16 135.961 331V321.064H138.517ZM145.675 313.288H148.231V340H145.675V313.288ZM161.967 320.92C164.439 320.92 166.335 321.544 167.655 322.792C168.975 324.016 169.635 325.84 169.635 328.264V340H167.187V337.048C166.611 338.032 165.759 338.8 164.631 339.352C163.527 339.904 162.207 340.18 160.671 340.18C158.559 340.18 156.879 339.676 155.631 338.668C154.383 337.66 153.759 336.328 153.759 334.672C153.759 333.064 154.335 331.768 155.487 330.784C156.663 329.8 158.523 329.308 161.067 329.308H167.079V328.156C167.079 326.524 166.623 325.288 165.711 324.448C164.799 323.584 163.467 323.152 161.715 323.152C160.515 323.152 159.363 323.356 158.259 323.764C157.155 324.148 156.207 324.688 155.415 325.384L154.263 323.476C155.223 322.66 156.375 322.036 157.719 321.604C159.063 321.148 160.479 320.92 161.967 320.92ZM161.067 338.164C162.507 338.164 163.743 337.84 164.775 337.192C165.807 336.52 166.575 335.56 167.079 334.312V331.216H161.139C157.899 331.216 156.279 332.344 156.279 334.6C156.279 335.704 156.699 336.58 157.539 337.228C158.379 337.852 159.555 338.164 161.067 338.164ZM179.026 324.772C179.626 323.5 180.514 322.54 181.69 321.892C182.89 321.244 184.366 320.92 186.118 320.92V323.404L185.506 323.368C183.514 323.368 181.954 323.98 180.826 325.204C179.698 326.428 179.134 328.144 179.134 330.352V340H176.578V321.064H179.026V324.772ZM57.2274 358.8C60.4434 358.8 62.9634 359.568 64.7874 361.104C66.6114 362.64 67.5234 364.752 67.5234 367.44C67.5234 370.128 66.6114 372.24 64.7874 373.776C62.9634 375.288 60.4434 376.044 57.2274 376.044H50.4594V384H47.7954V358.8H57.2274ZM57.1554 373.704C59.6514 373.704 61.5594 373.164 62.8794 372.084C64.1994 370.98 64.8594 369.432 64.8594 367.44C64.8594 365.4 64.1994 363.84 62.8794 362.76C61.5594 361.656 59.6514 361.104 57.1554 361.104H50.4594V373.704H57.1554ZM82.7433 364.92C85.1193 364.92 87.0033 365.616 88.3953 367.008C89.8113 368.376 90.5193 370.38 90.5193 373.02V384H87.9633V373.272C87.9633 371.304 87.4713 369.804 86.4873 368.772C85.5033 367.74 84.0993 367.224 82.2753 367.224C80.2353 367.224 78.6153 367.836 77.4153 369.06C76.2393 370.26 75.6513 371.928 75.6513 374.064V384H73.0953V357.288H75.6513V368.376C76.3473 367.272 77.3073 366.42 78.5312 365.82C79.7553 365.22 81.1593 364.92 82.7433 364.92ZM105.269 384.18C103.445 384.18 101.801 383.772 100.337 382.956C98.8728 382.116 97.7208 380.964 96.8808 379.5C96.0408 378.036 95.6208 376.38 95.6208 374.532C95.6208 372.684 96.0408 371.028 96.8808 369.564C97.7208 368.1 98.8728 366.96 100.337 366.144C101.801 365.328 103.445 364.92 105.269 364.92C107.093 364.92 108.737 365.328 110.201 366.144C111.665 366.96 112.805 368.1 113.621 369.564C114.461 371.028 114.881 372.684 114.881 374.532C114.881 376.38 114.461 378.036 113.621 379.5C112.805 380.964 111.665 382.116 110.201 382.956C108.737 383.772 107.093 384.18 105.269 384.18ZM105.269 381.912C106.613 381.912 107.813 381.612 108.869 381.012C109.949 380.388 110.789 379.512 111.389 378.384C111.989 377.256 112.289 375.972 112.289 374.532C112.289 373.092 111.989 371.808 111.389 370.68C110.789 369.552 109.949 368.688 108.869 368.088C107.813 367.464 106.613 367.152 105.269 367.152C103.925 367.152 102.713 367.464 101.633 368.088C100.577 368.688 99.7368 369.552 99.1128 370.68C98.5128 371.808 98.2128 373.092 98.2128 374.532C98.2128 375.972 98.5128 377.256 99.1128 378.384C99.7368 379.512 100.577 380.388 101.633 381.012C102.713 381.612 103.925 381.912 105.269 381.912ZM129.747 364.92C132.123 364.92 134.007 365.616 135.399 367.008C136.815 368.376 137.523 370.38 137.523 373.02V384H134.967V373.272C134.967 371.304 134.475 369.804 133.491 368.772C132.507 367.74 131.103 367.224 129.279 367.224C127.239 367.224 125.619 367.836 124.419 369.06C123.243 370.26 122.655 371.928 122.655 374.064V384H120.099V365.064H122.547V368.556C123.243 367.404 124.203 366.516 125.427 365.892C126.675 365.244 128.115 364.92 129.747 364.92ZM161.021 375.324H145.181C145.325 377.292 146.081 378.888 147.449 380.112C148.817 381.312 150.545 381.912 152.633 381.912C153.809 381.912 154.889 381.708 155.873 381.3C156.857 380.868 157.709 380.244 158.429 379.428L159.869 381.084C159.029 382.092 157.973 382.86 156.701 383.388C155.453 383.916 154.073 384.18 152.561 384.18C150.617 384.18 148.889 383.772 147.377 382.956C145.889 382.116 144.725 380.964 143.885 379.5C143.045 378.036 142.625 376.38 142.625 374.532C142.625 372.684 143.021 371.028 143.813 369.564C144.629 368.1 145.733 366.96 147.125 366.144C148.541 365.328 150.125 364.92 151.877 364.92C153.629 364.92 155.201 365.328 156.593 366.144C157.985 366.96 159.077 368.1 159.869 369.564C160.661 371.004 161.057 372.66 161.057 374.532L161.021 375.324ZM151.877 367.116C150.053 367.116 148.517 367.704 147.269 368.88C146.045 370.032 145.349 371.544 145.181 373.416H158.609C158.441 371.544 157.733 370.032 156.485 368.88C155.261 367.704 153.725 367.116 151.877 367.116ZM171.335 384.18C169.799 384.18 168.323 383.964 166.907 383.532C165.515 383.076 164.423 382.512 163.631 381.84L164.783 379.824C165.575 380.448 166.571 380.964 167.771 381.372C168.971 381.756 170.219 381.948 171.515 381.948C173.243 381.948 174.515 381.684 175.331 381.156C176.171 380.604 176.591 379.836 176.591 378.852C176.591 378.156 176.363 377.616 175.907 377.232C175.451 376.824 174.875 376.524 174.179 376.332C173.483 376.116 172.559 375.912 171.407 375.72C169.871 375.432 168.635 375.144 167.699 374.856C166.763 374.544 165.959 374.028 165.287 373.308C164.639 372.588 164.315 371.592 164.315 370.32C164.315 368.736 164.975 367.44 166.295 366.432C167.615 365.424 169.451 364.92 171.803 364.92C173.027 364.92 174.251 365.088 175.475 365.424C176.699 365.736 177.707 366.156 178.499 366.684L177.383 368.736C175.823 367.656 173.963 367.116 171.803 367.116C170.171 367.116 168.935 367.404 168.095 367.98C167.279 368.556 166.871 369.312 166.871 370.248C166.871 370.968 167.099 371.544 167.555 371.976C168.035 372.408 168.623 372.732 169.319 372.948C170.015 373.14 170.975 373.344 172.199 373.56C173.711 373.848 174.923 374.136 175.835 374.424C176.747 374.712 177.527 375.204 178.175 375.9C178.823 376.596 179.147 377.556 179.147 378.78C179.147 380.436 178.451 381.756 177.059 382.74C175.691 383.7 173.783 384.18 171.335 384.18Z" fill="black"/>
<defs>
<linearGradient id="paint0_linear" x1="112" y1="2" x2="112" y2="252" gradientUnits="userSpaceOnUse">
<stop offset="0.203125" stop-color="#AD00FF"/>
<stop offset="1" stop-color="#0057FF"/>
</linearGradient>
<linearGradient id="paint1_linear" x1="112.5" y1="229" x2="112.5" y2="244" gradientUnits="userSpaceOnUse">
<stop stop-color="#144DFF"/>
<stop offset="1" stop-color="#0853FF"/>
</linearGradient>
</defs>
</svg>
