<svg width="100" height="100" viewBox="0 0 100 100" fill="none" xmlns="http://www.w3.org/2000/svg">
<rect width="100" height="100" fill="white"/>
<mask id="mask0" mask-type="alpha" maskUnits="userSpaceOnUse" x="0" y="23" width="100" height="54">
<path d="M0.75 26C0.75 24.7574 1.75736 23.75 3 23.75H50H97C98.2426 23.75 99.25 24.7574 99.25 26V73.3333C99.25 74.576 98.2426 75.5833 97 75.5833H50H3C1.75736 75.5833 0.75 74.576 0.75 73.3333V26Z" stroke="black" stroke-width="1.5"/>
<path d="M73.3333 34.6666C73.3333 34.1143 73.7811 33.6666 74.3333 33.6666C74.8856 33.6666 75.3333 34.1143 75.3333 34.6666V37.3333C75.3333 37.8856 74.8856 38.3333 74.3333 38.3333C73.7811 38.3333 73.3333 37.8856 73.3333 37.3333V34.6666Z" fill="black"/>
<rect x="78.6667" y="37.6666" width="2" height="4.66667" rx="1" fill="black"/>
<rect x="68" y="37.6666" width="2" height="4.66667" rx="1" fill="black"/>
<path d="M65 45.0833H83C83.9665 45.0833 84.75 44.2998 84.75 43.3333V35.848C84.75 35.3949 84.5743 34.9595 84.2597 34.6333L80.5491 30.7853C80.2193 30.4432 79.7645 30.25 79.2894 30.25H68.7106C68.2355 30.25 67.7807 30.4432 67.4509 30.7853L63.7403 34.6333C63.4258 34.9595 63.25 35.3949 63.25 35.848V43.3333C63.25 44.2998 64.0335 45.0833 65 45.0833Z" stroke="black" stroke-width="1.5"/>
<circle cx="26.6667" cy="49.6667" r="2.56818" stroke="black" stroke-width="1.5"/>
<path d="M45.9167 49.6666C45.9167 55.2258 43.5611 60.2337 39.7915 63.7486C36.3524 66.9555 31.7394 68.9166 26.6667 68.9166C16.0352 68.9166 7.41666 60.2981 7.41666 49.6666C7.41666 39.0351 16.0352 30.4166 26.6667 30.4166C37.2981 30.4166 45.9167 39.0351 45.9167 49.6666Z" stroke="black" stroke-width="1.5"/>
<rect x="63.25" y="56.9166" width="21.5" height="10.8333" rx="1.75" stroke="black" stroke-width="1.5"/>
<mask id="path-10-inside-1" mask-type="luminance" fill="white">
<rect x="76" y="59" width="6.66667" height="6.66667" rx="0.5"/>
</mask>
<rect x="76" y="59" width="6.66667" height="6.66667" rx="0.5" fill="black" stroke="black" stroke-width="2" mask="url(#path-10-inside-1)"/>
</mask>
<g mask="url(#mask0)">
<path d="M-17.3333 23H116V76.3333H-17.3333V23Z" fill="url(#paint0_linear)"/>
</g>
<defs>
<linearGradient id="paint0_linear" x1="49.3333" y1="23" x2="49.3333" y2="76.3333" gradientUnits="userSpaceOnUse">
<stop stop-color="#AD00FF"/>
<stop offset="1" stop-color="#0057FF"/>
</linearGradient>
</defs>
</svg>
