<svg width="100" height="54" viewBox="0 0 100 54" fill="none" xmlns="http://www.w3.org/2000/svg">
<mask id="mask0" mask-type="alpha" maskUnits="userSpaceOnUse" x="0" y="0" width="100" height="54">
<path d="M99.25 3V50.3333C99.25 51.576 98.2426 52.5833 97 52.5833H50H3C1.75736 52.5833 0.75 51.576 0.75 50.3333V3C0.75 1.75736 1.75736 0.75 3 0.75H50H97C98.2426 0.75 99.25 1.75736 99.25 3Z" stroke="black" stroke-width="1.5"/>
<path d="M73.3333 11.6666C73.3333 11.1143 73.7811 10.6666 74.3333 10.6666V10.6666C74.8856 10.6666 75.3333 11.1143 75.3333 11.6666V14.3333C75.3333 14.8856 74.8856 15.3333 74.3333 15.3333V15.3333C73.7811 15.3333 73.3333 14.8856 73.3333 14.3333V11.6666Z" fill="black"/>
<rect x="78.6667" y="14.6666" width="2" height="4.66667" rx="1" fill="black"/>
<rect x="68" y="14.6666" width="2" height="4.66667" rx="1" fill="black"/>
<path d="M65 22.0833H83C83.9665 22.0833 84.75 21.2998 84.75 20.3333V12.848C84.75 12.3949 84.5743 11.9595 84.2597 11.6333L80.5491 7.78526C80.2193 7.44322 79.7645 7.25 79.2894 7.25H68.7106C68.2355 7.25 67.7807 7.44322 67.4509 7.78526L63.7403 11.6333C63.4258 11.9595 63.25 12.3949 63.25 12.848V20.3333C63.25 21.2998 64.0335 22.0833 65 22.0833Z" stroke="black" stroke-width="1.5"/>
<circle cx="26.6667" cy="26.6667" r="2.56818" stroke="black" stroke-width="1.5"/>
<path d="M28.4848 24.8484C30.6986 18.1353 33.2807 15.5446 40.2668 13.0432M45.8884 25.6154C42.9646 24.6744 40.5317 24.2295 38.0667 24.2527C35.3262 24.2785 32.5977 24.8825 29.1708 25.9506L29.6171 27.3827C32.9911 26.3311 35.5564 25.7764 38.0808 25.7526C40.4666 25.7302 42.8622 26.1819 45.9094 27.201C45.774 32.1691 43.757 36.6665 40.5437 40.0079C39.1618 37.0109 37.834 34.7446 36.1463 32.8852C34.2705 30.8184 31.9904 29.2977 28.8028 27.8056L28.1669 29.1641C31.2441 30.6046 33.3367 32.0214 35.0356 33.8933C36.6596 35.6826 37.9603 37.9272 39.3964 41.107C36.2587 43.8753 32.2133 45.6362 27.7631 45.8859C28.9069 42.7694 29.4753 40.3571 29.4578 37.9385C29.4385 35.2578 28.6993 32.6415 27.368 29.1281L25.9653 29.6597C27.2821 33.1347 27.9405 35.5454 27.9579 37.9494C27.9745 40.24 27.4091 42.59 26.1533 45.9099C21.8302 45.7967 17.8621 44.2583 14.7015 41.7473C17.7931 40.1278 19.9503 38.5473 21.602 36.5566C23.3248 34.4802 24.4524 32.0109 25.5593 28.7242L24.1377 28.2455C23.0527 31.4673 21.9962 33.7323 20.4476 35.5988C18.9017 37.462 16.8204 38.9818 13.598 40.6294L13.7626 40.9513C10.1174 37.6564 7.7393 32.9858 7.44709 27.7582C10.37 28.8188 12.684 29.3853 15.0844 29.3925C17.7607 29.4006 20.4752 28.7132 24.1938 27.3722L23.6849 25.9611C20.013 27.2853 17.4979 27.8998 15.0889 27.8926C12.8014 27.8857 10.547 27.3179 7.42343 26.1509C7.68725 16.1201 15.6243 8.00063 25.5803 7.44677C24.5306 10.3705 23.9491 12.6825 23.9298 15.0806C23.9084 17.7571 24.5875 20.471 25.963 24.199L27.3703 23.6797C26.0151 20.0069 25.4105 17.4963 25.4298 15.0926C25.4481 12.8071 26.0307 10.555 27.1851 7.42347C31.9898 7.5505 36.3558 9.43805 39.6617 12.4647C36.3175 13.6896 33.9103 14.9815 32.0651 16.8268C30.1456 18.7464 28.8979 21.201 27.7726 24.6136L29.1971 25.0833C30.2894 21.7711 31.444 19.5694 33.1258 17.8874C34.8112 16.2019 37.0896 14.9746 40.5553 13.7365L40.3304 13.107C43.5532 16.3543 45.6263 20.7442 45.8884 25.6154ZM25.2183 24.1959C22.4187 22.6094 20.4721 21.2124 18.8801 19.4952C17.2881 17.7779 16.016 15.7029 14.6189 12.7128L13.2599 13.3477C14.6906 16.4098 16.0407 18.6388 17.7801 20.515C19.5195 22.3912 21.6134 23.8772 24.4787 25.5009L25.2183 24.1959Z" stroke="black" stroke-width="1.5"/>
<rect x="63.25" y="33.9166" width="21.5" height="10.8333" rx="1.75" stroke="black" stroke-width="1.5"/>
<mask id="path-9-inside-1" mask-type="luminance" fill="white">
<rect x="76" y="36" width="6.66667" height="6.66667" rx="0.5"/>
</mask>
<rect x="76" y="36" width="6.66667" height="6.66667" rx="0.5" fill="black" stroke="black" stroke-width="2" mask="url(#path-9-inside-1)"/>
</mask>
<g mask="url(#mask0)">
<path d="M-17.3333 0H116V53.3333H-17.3333V0Z" fill="url(#paint0_linear)"/>
</g>
<defs>
<linearGradient id="paint0_linear" x1="49.3333" y1="0" x2="49.3333" y2="53.3333" gradientUnits="userSpaceOnUse">
<stop stop-color="#AD00FF"/>
<stop offset="1" stop-color="#0057FF"/>
</linearGradient>
</defs>
</svg>
