<svg width="100" height="100" viewBox="0 0 100 100" fill="none" xmlns="http://www.w3.org/2000/svg">
<rect width="100" height="100" fill="white"/>
<mask id="mask0" mask-type="alpha" maskUnits="userSpaceOnUse" x="0" y="29" width="100" height="43">
<mask id="path-2-inside-1" mask-type="luminance" fill="white">
<path fill-rule="evenodd" clip-rule="evenodd" d="M0 31C0 29.8954 0.895429 29 2 29H98C99.1046 29 100 29.8954 100 31V35C100 35.3682 99.6985 35.6597 99.3376 35.7325C97.814 36.0397 96.6667 37.3859 96.6667 39C96.6667 40.6141 97.814 41.9603 99.3376 42.2675C99.6985 42.3403 100 42.6318 100 43V60.3333C100 61.4379 99.1046 62.3333 98 62.3333H2C0.895431 62.3333 0 61.4379 0 60.3333V43.2296C0 43.0786 0.0351569 42.9297 0.102687 42.7946C0.251677 42.4966 0.546029 42.3059 0.867772 42.2194C2.2883 41.8378 3.33401 40.541 3.33401 39C3.33401 37.459 2.2883 36.1622 0.867773 35.7806C0.54603 35.6941 0.251677 35.5034 0.102687 35.2054C0.035157 35.0703 0 34.9214 0 34.7704V31Z"/>
</mask>
<path d="M0.867772 42.2194L0.348847 40.2879L0.867772 42.2194ZM99.3376 35.7325L99.7329 37.693L99.3376 35.7325ZM0.867773 35.7806L1.3867 33.8491L0.867773 35.7806ZM99.3376 42.2675L99.7329 40.307L99.3376 42.2675ZM98 27H2V31H98V27ZM102 35V31H98V35H102ZM98.6667 39C98.6667 38.3567 99.1243 37.8157 99.7329 37.693L98.9423 33.7719C96.5036 34.2636 94.6667 36.4151 94.6667 39H98.6667ZM99.7329 40.307C99.1243 40.1843 98.6667 39.6433 98.6667 39H94.6667C94.6667 41.5849 96.5036 43.7364 98.9423 44.2281L99.7329 40.307ZM102 60.3333V43H98V60.3333H102ZM2 64.3333H98V60.3333H2V64.3333ZM-2 43.2296V60.3333H2V43.2296H-2ZM1.33401 39C1.33401 39.6136 0.917766 40.1351 0.348847 40.2879L1.3867 44.1509C3.65884 43.5405 5.33401 41.4684 5.33401 39H1.33401ZM0.348848 37.7121C0.917766 37.8649 1.33401 38.3864 1.33401 39H5.33401C5.33401 36.5316 3.65884 34.4595 1.3867 33.8491L0.348848 37.7121ZM-2 31V34.7704H2V31H-2ZM1.89154 34.3109C1.96287 34.4536 2 34.6109 2 34.7704H-2C-2 35.2319 -1.89255 35.687 -1.68617 36.0998L1.89154 34.3109ZM1.89154 43.6891C1.71305 44.046 1.44016 44.1366 1.3867 44.1509L0.348847 40.2879C-0.348105 40.4752 -1.2097 40.9473 -1.68617 41.9002L1.89154 43.6891ZM2 43.2296C2 43.3891 1.96287 43.5464 1.89154 43.6891L-1.68617 41.9002C-1.89255 42.313 -2 42.7681 -2 43.2296H2ZM2 60.3333V60.3333H-2C-2 62.5425 -0.209142 64.3333 2 64.3333V60.3333ZM98 60.3333V64.3333C100.209 64.3333 102 62.5425 102 60.3333H98ZM98 35C98 34.6128 98.1639 34.3016 98.3478 34.1062C98.5225 33.9206 98.7327 33.8142 98.9423 33.7719L99.7329 37.693C100.784 37.4812 102 36.5487 102 35H98ZM1.3867 33.8491C1.44017 33.8634 1.71305 33.954 1.89154 34.3109L-1.68617 36.0998C-1.2097 37.0527 -0.348105 37.5248 0.348848 37.7121L1.3867 33.8491ZM2 27C-0.209143 27 -2 28.7909 -2 31H2H2V27ZM98.9423 44.2281C98.7327 44.1858 98.5225 44.0794 98.3478 43.8938C98.1639 43.6984 98 43.3872 98 43H102C102 41.4513 100.784 40.5188 99.7329 40.307L98.9423 44.2281ZM98 31H102C102 28.7909 100.209 27 98 27V31Z" fill="black" mask="url(#path-2-inside-1)"/>
<rect x="13.3333" y="35.6666" width="13.3333" height="20" rx="1" stroke="black" stroke-width="2"/>
<rect x="33.3333" y="35.6666" width="13.3333" height="20" rx="1" stroke="black" stroke-width="2"/>
<rect x="53.3333" y="35.6666" width="13.3333" height="20" rx="1" stroke="black" stroke-width="2"/>
<rect x="73.3333" y="35.6666" width="13.3333" height="20" rx="1" stroke="black" stroke-width="2"/>
<path d="M53.3333 62.3334V68.3334C53.3333 69.4379 54.2287 70.3334 55.3333 70.3334H92.6666C93.7712 70.3334 94.6666 69.4379 94.6666 68.3334V62.3334" stroke="black" stroke-width="2"/>
<mask id="path-9-inside-2" mask-type="luminance" fill="white">
<path d="M58.6666 65.6667C58.6666 65.2985 58.9651 65 59.3333 65C59.7015 65 60 65.2985 60 65.6667V70.3333H58.6666V65.6667Z"/>
</mask>
<path d="M60 70.3333V72.3333H62V70.3333H60ZM58.6666 70.3333H56.6666V72.3333H58.6666V70.3333ZM58 65.6667V70.3333H62V65.6667H58ZM60 68.3333H58.6666V72.3333H60V68.3333ZM60.6666 70.3333V65.6667H56.6666V70.3333H60.6666ZM59.3333 67C58.5969 67 58 66.403 58 65.6667H62C62 64.1939 60.8061 63 59.3333 63V67ZM59.3333 63C57.8605 63 56.6666 64.1939 56.6666 65.6667H60.6666C60.6666 66.403 60.0697 67 59.3333 67V63Z" fill="black" mask="url(#path-9-inside-2)"/>
<mask id="path-11-inside-3" mask-type="luminance" fill="white">
<path d="M56 65.6667C56 65.2985 56.2985 65 56.6667 65C57.0349 65 57.3333 65.2985 57.3333 65.6667V70.3333H56V65.6667Z"/>
</mask>
<path d="M57.3333 70.3333V72.3333H59.3333V70.3333H57.3333ZM56 70.3333H54V72.3333H56V70.3333ZM55.3333 65.6667V70.3333H59.3333V65.6667H55.3333ZM57.3333 68.3333H56V72.3333H57.3333V68.3333ZM58 70.3333V65.6667H54V70.3333H58ZM56.6667 67C55.9303 67 55.3333 66.403 55.3333 65.6667H59.3333C59.3333 64.1939 58.1394 63 56.6667 63V67ZM56.6667 63C55.1939 63 54 64.1939 54 65.6667H58C58 66.403 57.403 67 56.6667 67V63Z" fill="black" mask="url(#path-11-inside-3)"/>
<mask id="path-13-inside-4" mask-type="luminance" fill="white">
<path d="M69.3334 65.6667C69.3334 65.2985 69.6319 65 70 65C70.3682 65 70.6667 65.2985 70.6667 65.6667V70.3333H69.3334V65.6667Z"/>
</mask>
<path d="M70.6667 70.3333V72.3333H72.6667V70.3333H70.6667ZM69.3334 70.3333H67.3334V72.3333H69.3334V70.3333ZM68.6667 65.6667V70.3333H72.6667V65.6667H68.6667ZM70.6667 68.3333H69.3334V72.3333H70.6667V68.3333ZM71.3334 70.3333V65.6667H67.3334V70.3333H71.3334ZM70 67C69.2637 67 68.6667 66.403 68.6667 65.6667H72.6667C72.6667 64.1939 71.4728 63 70 63V67ZM70 63C68.5273 63 67.3334 64.1939 67.3334 65.6667H71.3334C71.3334 66.403 70.7364 67 70 67V63Z" fill="black" mask="url(#path-13-inside-4)"/>
<mask id="path-15-inside-5" mask-type="luminance" fill="white">
<path d="M80 65.6667C80 65.2985 80.2985 65 80.6667 65C81.0349 65 81.3333 65.2985 81.3333 65.6667V70.3333H80V65.6667Z"/>
</mask>
<path d="M81.3333 70.3333V72.3333H83.3333V70.3333H81.3333ZM80 70.3333H78V72.3333H80V70.3333ZM79.3333 65.6667V70.3333H83.3333V65.6667H79.3333ZM81.3333 68.3333H80V72.3333H81.3333V68.3333ZM82 70.3333V65.6667H78V70.3333H82ZM80.6667 67C79.9303 67 79.3333 66.403 79.3333 65.6667H83.3333C83.3333 64.1939 82.1394 63 80.6667 63V67ZM80.6667 63C79.1939 63 78 64.1939 78 65.6667H82C82 66.403 81.403 67 80.6667 67V63Z" fill="black" mask="url(#path-15-inside-5)"/>
<mask id="path-17-inside-6" mask-type="luminance" fill="white">
<path d="M61.3334 65.6667C61.3334 65.2985 61.6319 65 62 65C62.3682 65 62.6667 65.2985 62.6667 65.6667V70.3333H61.3334V65.6667Z"/>
</mask>
<path d="M62.6667 70.3333V72.3333H64.6667V70.3333H62.6667ZM61.3334 70.3333H59.3334V72.3333H61.3334V70.3333ZM60.6667 65.6667V70.3333H64.6667V65.6667H60.6667ZM62.6667 68.3333H61.3334V72.3333H62.6667V68.3333ZM63.3334 70.3333V65.6667H59.3334V70.3333H63.3334ZM62 67C61.2637 67 60.6667 66.403 60.6667 65.6667H64.6667C64.6667 64.1939 63.4728 63 62 63V67ZM62 63C60.5273 63 59.3334 64.1939 59.3334 65.6667H63.3334C63.3334 66.403 62.7364 67 62 67V63Z" fill="black" mask="url(#path-17-inside-6)"/>
<mask id="path-19-inside-7" mask-type="luminance" fill="white">
<path d="M72 65.6667C72 65.2985 72.2985 65 72.6667 65C73.0349 65 73.3333 65.2985 73.3333 65.6667V70.3333H72V65.6667Z"/>
</mask>
<path d="M73.3333 70.3333V72.3333H75.3333V70.3333H73.3333ZM72 70.3333H70V72.3333H72V70.3333ZM71.3333 65.6667V70.3333H75.3333V65.6667H71.3333ZM73.3333 68.3333H72V72.3333H73.3333V68.3333ZM74 70.3333V65.6667H70V70.3333H74ZM72.6667 67C71.9303 67 71.3333 66.403 71.3333 65.6667H75.3333C75.3333 64.1939 74.1394 63 72.6667 63V67ZM72.6667 63C71.1939 63 70 64.1939 70 65.6667H74C74 66.403 73.403 67 72.6667 67V63Z" fill="black" mask="url(#path-19-inside-7)"/>
<mask id="path-21-inside-8" mask-type="luminance" fill="white">
<path d="M82.6667 65.6667C82.6667 65.2985 82.9652 65 83.3334 65C83.7015 65 84 65.2985 84 65.6667V70.3333H82.6667V65.6667Z"/>
</mask>
<path d="M84 70.3333V72.3333H86V70.3333H84ZM82.6667 70.3333H80.6667V72.3333H82.6667V70.3333ZM82 65.6667V70.3333H86V65.6667H82ZM84 68.3333H82.6667V72.3333H84V68.3333ZM84.6667 70.3333V65.6667H80.6667V70.3333H84.6667ZM83.3334 67C82.597 67 82 66.403 82 65.6667H86C86 64.1939 84.8061 63 83.3334 63V67ZM83.3334 63C81.8606 63 80.6667 64.1939 80.6667 65.6667H84.6667C84.6667 66.403 84.0697 67 83.3334 67V63Z" fill="black" mask="url(#path-21-inside-8)"/>
<mask id="path-23-inside-9" mask-type="luminance" fill="white">
<path d="M64 65.6667C64 65.2985 64.2985 65 64.6667 65C65.0349 65 65.3333 65.2985 65.3333 65.6667V70.3333H64V65.6667Z"/>
</mask>
<path d="M65.3333 70.3333V72.3333H67.3333V70.3333H65.3333ZM64 70.3333H62V72.3333H64V70.3333ZM63.3333 65.6667V70.3333H67.3333V65.6667H63.3333ZM65.3333 68.3333H64V72.3333H65.3333V68.3333ZM66 70.3333V65.6667H62V70.3333H66ZM64.6667 67C63.9303 67 63.3333 66.403 63.3333 65.6667H67.3333C67.3333 64.1939 66.1394 63 64.6667 63V67ZM64.6667 63C63.1939 63 62 64.1939 62 65.6667H66C66 66.403 65.403 67 64.6667 67V63Z" fill="black" mask="url(#path-23-inside-9)"/>
<mask id="path-25-inside-10" mask-type="luminance" fill="white">
<path d="M74.6667 65.6667C74.6667 65.2985 74.9652 65 75.3334 65C75.7015 65 76 65.2985 76 65.6667V70.3333H74.6667V65.6667Z"/>
</mask>
<path d="M76 70.3333V72.3333H78V70.3333H76ZM74.6667 70.3333H72.6667V72.3333H74.6667V70.3333ZM74 65.6667V70.3333H78V65.6667H74ZM76 68.3333H74.6667V72.3333H76V68.3333ZM76.6667 70.3333V65.6667H72.6667V70.3333H76.6667ZM75.3334 67C74.597 67 74 66.403 74 65.6667H78C78 64.1939 76.8061 63 75.3334 63V67ZM75.3334 63C73.8606 63 72.6667 64.1939 72.6667 65.6667H76.6667C76.6667 66.403 76.0697 67 75.3334 67V63Z" fill="black" mask="url(#path-25-inside-10)"/>
<mask id="path-27-inside-11" mask-type="luminance" fill="white">
<path d="M85.3333 65.6667C85.3333 65.2985 85.6318 65 86 65C86.3682 65 86.6666 65.2985 86.6666 65.6667V70.3333H85.3333V65.6667Z"/>
</mask>
<path d="M86.6666 70.3333V72.3333H88.6666V70.3333H86.6666ZM85.3333 70.3333H83.3333V72.3333H85.3333V70.3333ZM84.6666 65.6667V70.3333H88.6666V65.6667H84.6666ZM86.6666 68.3333H85.3333V72.3333H86.6666V68.3333ZM87.3333 70.3333V65.6667H83.3333V70.3333H87.3333ZM86 67C85.2636 67 84.6666 66.403 84.6666 65.6667H88.6666C88.6666 64.1939 87.4727 63 86 63V67ZM86 63C84.5272 63 83.3333 64.1939 83.3333 65.6667H87.3333C87.3333 66.403 86.7364 67 86 67V63Z" fill="black" mask="url(#path-27-inside-11)"/>
<mask id="path-29-inside-12" mask-type="luminance" fill="white">
<path d="M66.6667 65.6667C66.6667 65.2985 66.9652 65 67.3334 65C67.7015 65 68 65.2985 68 65.6667V70.3333H66.6667V65.6667Z"/>
</mask>
<path d="M68 70.3333V72.3333H70V70.3333H68ZM66.6667 70.3333H64.6667V72.3333H66.6667V70.3333ZM66 65.6667V70.3333H70V65.6667H66ZM68 68.3333H66.6667V72.3333H68V68.3333ZM68.6667 70.3333V65.6667H64.6667V70.3333H68.6667ZM67.3334 67C66.597 67 66 66.403 66 65.6667H70C70 64.1939 68.8061 63 67.3334 63V67ZM67.3334 63C65.8606 63 64.6667 64.1939 64.6667 65.6667H68.6667C68.6667 66.403 68.0697 67 67.3334 67V63Z" fill="black" mask="url(#path-29-inside-12)"/>
<mask id="path-31-inside-13" mask-type="luminance" fill="white">
<path d="M77.3333 65.6667C77.3333 65.2985 77.6318 65 78 65C78.3682 65 78.6666 65.2985 78.6666 65.6667V70.3333H77.3333V65.6667Z"/>
</mask>
<path d="M78.6666 70.3333V72.3333H80.6666V70.3333H78.6666ZM77.3333 70.3333H75.3333V72.3333H77.3333V70.3333ZM76.6666 65.6667V70.3333H80.6666V65.6667H76.6666ZM78.6666 68.3333H77.3333V72.3333H78.6666V68.3333ZM79.3333 70.3333V65.6667H75.3333V70.3333H79.3333ZM78 67C77.2636 67 76.6666 66.403 76.6666 65.6667H80.6666C80.6666 64.1939 79.4727 63 78 63V67ZM78 63C76.5272 63 75.3333 64.1939 75.3333 65.6667H79.3333C79.3333 66.403 78.7364 67 78 67V63Z" fill="black" mask="url(#path-31-inside-13)"/>
<mask id="path-33-inside-14" mask-type="luminance" fill="white">
<path d="M88 65.6667C88 65.2985 88.2985 65 88.6667 65C89.0349 65 89.3333 65.2985 89.3333 65.6667V70.3333H88V65.6667Z"/>
</mask>
<path d="M89.3333 70.3333V72.3333H91.3333V70.3333H89.3333ZM88 70.3333H86V72.3333H88V70.3333ZM87.3333 65.6667V70.3333H91.3333V65.6667H87.3333ZM89.3333 68.3333H88V72.3333H89.3333V68.3333ZM90 70.3333V65.6667H86V70.3333H90ZM88.6667 67C87.9303 67 87.3333 66.403 87.3333 65.6667H91.3333C91.3333 64.1939 90.1394 63 88.6667 63V67ZM88.6667 63C87.1939 63 86 64.1939 86 65.6667H90C90 66.403 89.403 67 88.6667 67V63Z" fill="black" mask="url(#path-33-inside-14)"/>
<mask id="path-35-inside-15" mask-type="luminance" fill="white">
<path d="M90.6666 65.6667C90.6666 65.2985 90.9651 65 91.3333 65C91.7015 65 92 65.2985 92 65.6667V70.3333H90.6666V65.6667Z"/>
</mask>
<path d="M92 70.3333V72.3333H94V70.3333H92ZM90.6666 70.3333H88.6666V72.3333H90.6666V70.3333ZM90 65.6667V70.3333H94V65.6667H90ZM92 68.3333H90.6666V72.3333H92V68.3333ZM92.6666 70.3333V65.6667H88.6666V70.3333H92.6666ZM91.3333 67C90.5969 67 90 66.403 90 65.6667H94C94 64.1939 92.8061 63 91.3333 63V67ZM91.3333 63C89.8605 63 88.6666 64.1939 88.6666 65.6667H92.6666C92.6666 66.403 92.0697 67 91.3333 67V63Z" fill="black" mask="url(#path-35-inside-15)"/>
<path d="M5.33331 62.3334V68.3334C5.33331 69.4379 6.22874 70.3334 7.33331 70.3334H44.6666C45.7712 70.3334 46.6666 69.4379 46.6666 68.3334V62.3334" stroke="black" stroke-width="2"/>
<mask id="path-38-inside-16" mask-type="luminance" fill="white">
<path d="M10.6666 65.6667C10.6666 65.2985 10.9651 65 11.3333 65C11.7015 65 12 65.2985 12 65.6667V70.3333H10.6666V65.6667Z"/>
</mask>
<path d="M12 70.3333V72.3333H14V70.3333H12ZM10.6666 70.3333H8.66663V72.3333H10.6666V70.3333ZM9.99996 65.6667V70.3333H14V65.6667H9.99996ZM12 68.3333H10.6666V72.3333H12V68.3333ZM12.6666 70.3333V65.6667H8.66663V70.3333H12.6666ZM11.3333 67C10.5969 67 9.99996 66.403 9.99996 65.6667H14C14 64.1939 12.8061 63 11.3333 63V67ZM11.3333 63C9.86053 63 8.66663 64.1939 8.66663 65.6667H12.6666C12.6666 66.403 12.0697 67 11.3333 67V63Z" fill="black" mask="url(#path-38-inside-16)"/>
<mask id="path-40-inside-17" mask-type="luminance" fill="white">
<path d="M8 65.6667C8 65.2985 8.29848 65 8.66667 65C9.03486 65 9.33333 65.2985 9.33333 65.6667V70.3333H8V65.6667Z"/>
</mask>
<path d="M9.33333 70.3333V72.3333H11.3333V70.3333H9.33333ZM8 70.3333H6V72.3333H8V70.3333ZM7.33333 65.6667V70.3333H11.3333V65.6667H7.33333ZM9.33333 68.3333H8V72.3333H9.33333V68.3333ZM10 70.3333V65.6667H6V70.3333H10ZM8.66667 67C7.93029 67 7.33333 66.403 7.33333 65.6667H11.3333C11.3333 64.1939 10.1394 63 8.66667 63V67ZM8.66667 63C7.1939 63 6 64.1939 6 65.6667H10C10 66.403 9.40305 67 8.66667 67V63Z" fill="black" mask="url(#path-40-inside-17)"/>
<mask id="path-42-inside-18" mask-type="luminance" fill="white">
<path d="M21.3334 65.6667C21.3334 65.2985 21.6319 65 22 65C22.3682 65 22.6667 65.2985 22.6667 65.6667V70.3333H21.3334V65.6667Z"/>
</mask>
<path d="M22.6667 70.3333V72.3333H24.6667V70.3333H22.6667ZM21.3334 70.3333H19.3334V72.3333H21.3334V70.3333ZM20.6667 65.6667V70.3333H24.6667V65.6667H20.6667ZM22.6667 68.3333H21.3334V72.3333H22.6667V68.3333ZM23.3334 70.3333V65.6667H19.3334V70.3333H23.3334ZM22 67C21.2637 67 20.6667 66.403 20.6667 65.6667H24.6667C24.6667 64.1939 23.4728 63 22 63V67ZM22 63C20.5273 63 19.3334 64.1939 19.3334 65.6667H23.3334C23.3334 66.403 22.7364 67 22 67V63Z" fill="black" mask="url(#path-42-inside-18)"/>
<mask id="path-44-inside-19" mask-type="luminance" fill="white">
<path d="M32 65.6667C32 65.2985 32.2985 65 32.6667 65C33.0349 65 33.3333 65.2985 33.3333 65.6667V70.3333H32V65.6667Z"/>
</mask>
<path d="M33.3333 70.3333V72.3333H35.3333V70.3333H33.3333ZM32 70.3333H30V72.3333H32V70.3333ZM31.3333 65.6667V70.3333H35.3333V65.6667H31.3333ZM33.3333 68.3333H32V72.3333H33.3333V68.3333ZM34 70.3333V65.6667H30V70.3333H34ZM32.6667 67C31.9303 67 31.3333 66.403 31.3333 65.6667H35.3333C35.3333 64.1939 34.1394 63 32.6667 63V67ZM32.6667 63C31.1939 63 30 64.1939 30 65.6667H34C34 66.403 33.403 67 32.6667 67V63Z" fill="black" mask="url(#path-44-inside-19)"/>
<mask id="path-46-inside-20" mask-type="luminance" fill="white">
<path d="M13.3333 65.6667C13.3333 65.2985 13.6318 65 14 65C14.3682 65 14.6666 65.2985 14.6666 65.6667V70.3333H13.3333V65.6667Z"/>
</mask>
<path d="M14.6666 70.3333V72.3333H16.6666V70.3333H14.6666ZM13.3333 70.3333H11.3333V72.3333H13.3333V70.3333ZM12.6666 65.6667V70.3333H16.6666V65.6667H12.6666ZM14.6666 68.3333H13.3333V72.3333H14.6666V68.3333ZM15.3333 70.3333V65.6667H11.3333V70.3333H15.3333ZM14 67C13.2636 67 12.6666 66.403 12.6666 65.6667H16.6666C16.6666 64.1939 15.4727 63 14 63V67ZM14 63C12.5272 63 11.3333 64.1939 11.3333 65.6667H15.3333C15.3333 66.403 14.7364 67 14 67V63Z" fill="black" mask="url(#path-46-inside-20)"/>
<mask id="path-48-inside-21" mask-type="luminance" fill="white">
<path d="M24 65.6667C24 65.2985 24.2985 65 24.6667 65C25.0349 65 25.3333 65.2985 25.3333 65.6667V70.3333H24V65.6667Z"/>
</mask>
<path d="M25.3333 70.3333V72.3333H27.3333V70.3333H25.3333ZM24 70.3333H22V72.3333H24V70.3333ZM23.3333 65.6667V70.3333H27.3333V65.6667H23.3333ZM25.3333 68.3333H24V72.3333H25.3333V68.3333ZM26 70.3333V65.6667H22V70.3333H26ZM24.6667 67C23.9303 67 23.3333 66.403 23.3333 65.6667H27.3333C27.3333 64.1939 26.1394 63 24.6667 63V67ZM24.6667 63C23.1939 63 22 64.1939 22 65.6667H26C26 66.403 25.403 67 24.6667 67V63Z" fill="black" mask="url(#path-48-inside-21)"/>
<mask id="path-50-inside-22" mask-type="luminance" fill="white">
<path d="M34.6667 65.6667C34.6667 65.2985 34.9652 65 35.3334 65C35.7015 65 36 65.2985 36 65.6667V70.3333H34.6667V65.6667Z"/>
</mask>
<path d="M36 70.3333V72.3333H38V70.3333H36ZM34.6667 70.3333H32.6667V72.3333H34.6667V70.3333ZM34 65.6667V70.3333H38V65.6667H34ZM36 68.3333H34.6667V72.3333H36V68.3333ZM36.6667 70.3333V65.6667H32.6667V70.3333H36.6667ZM35.3334 67C34.597 67 34 66.403 34 65.6667H38C38 64.1939 36.8061 63 35.3334 63V67ZM35.3334 63C33.8606 63 32.6667 64.1939 32.6667 65.6667H36.6667C36.6667 66.403 36.0697 67 35.3334 67V63Z" fill="black" mask="url(#path-50-inside-22)"/>
<mask id="path-52-inside-23" mask-type="luminance" fill="white">
<path d="M16 65.6667C16 65.2985 16.2985 65 16.6667 65C17.0349 65 17.3333 65.2985 17.3333 65.6667V70.3333H16V65.6667Z"/>
</mask>
<path d="M17.3333 70.3333V72.3333H19.3333V70.3333H17.3333ZM16 70.3333H14V72.3333H16V70.3333ZM15.3333 65.6667V70.3333H19.3333V65.6667H15.3333ZM17.3333 68.3333H16V72.3333H17.3333V68.3333ZM18 70.3333V65.6667H14V70.3333H18ZM16.6667 67C15.9303 67 15.3333 66.403 15.3333 65.6667H19.3333C19.3333 64.1939 18.1394 63 16.6667 63V67ZM16.6667 63C15.1939 63 14 64.1939 14 65.6667H18C18 66.403 17.403 67 16.6667 67V63Z" fill="black" mask="url(#path-52-inside-23)"/>
<mask id="path-54-inside-24" mask-type="luminance" fill="white">
<path d="M26.6667 65.6667C26.6667 65.2985 26.9652 65 27.3334 65C27.7015 65 28 65.2985 28 65.6667V70.3333H26.6667V65.6667Z"/>
</mask>
<path d="M28 70.3333V72.3333H30V70.3333H28ZM26.6667 70.3333H24.6667V72.3333H26.6667V70.3333ZM26 65.6667V70.3333H30V65.6667H26ZM28 68.3333H26.6667V72.3333H28V68.3333ZM28.6667 70.3333V65.6667H24.6667V70.3333H28.6667ZM27.3334 67C26.597 67 26 66.403 26 65.6667H30C30 64.1939 28.8061 63 27.3334 63V67ZM27.3334 63C25.8606 63 24.6667 64.1939 24.6667 65.6667H28.6667C28.6667 66.403 28.0697 67 27.3334 67V63Z" fill="black" mask="url(#path-54-inside-24)"/>
<mask id="path-56-inside-25" mask-type="luminance" fill="white">
<path d="M37.3333 65.6667C37.3333 65.2985 37.6318 65 38 65C38.3682 65 38.6666 65.2985 38.6666 65.6667V70.3333H37.3333V65.6667Z"/>
</mask>
<path d="M38.6666 70.3333V72.3333H40.6666V70.3333H38.6666ZM37.3333 70.3333H35.3333V72.3333H37.3333V70.3333ZM36.6666 65.6667V70.3333H40.6666V65.6667H36.6666ZM38.6666 68.3333H37.3333V72.3333H38.6666V68.3333ZM39.3333 70.3333V65.6667H35.3333V70.3333H39.3333ZM38 67C37.2636 67 36.6666 66.403 36.6666 65.6667H40.6666C40.6666 64.1939 39.4727 63 38 63V67ZM38 63C36.5272 63 35.3333 64.1939 35.3333 65.6667H39.3333C39.3333 66.403 38.7364 67 38 67V63Z" fill="black" mask="url(#path-56-inside-25)"/>
<mask id="path-58-inside-26" mask-type="luminance" fill="white">
<path d="M18.6666 65.6667C18.6666 65.2985 18.9651 65 19.3333 65C19.7015 65 20 65.2985 20 65.6667V70.3333H18.6666V65.6667Z"/>
</mask>
<path d="M20 70.3333V72.3333H22V70.3333H20ZM18.6666 70.3333H16.6666V72.3333H18.6666V70.3333ZM18 65.6667V70.3333H22V65.6667H18ZM20 68.3333H18.6666V72.3333H20V68.3333ZM20.6666 70.3333V65.6667H16.6666V70.3333H20.6666ZM19.3333 67C18.5969 67 18 66.403 18 65.6667H22C22 64.1939 20.8061 63 19.3333 63V67ZM19.3333 63C17.8605 63 16.6666 64.1939 16.6666 65.6667H20.6666C20.6666 66.403 20.0697 67 19.3333 67V63Z" fill="black" mask="url(#path-58-inside-26)"/>
<mask id="path-60-inside-27" mask-type="luminance" fill="white">
<path d="M29.3334 65.6667C29.3334 65.2985 29.6319 65 30 65C30.3682 65 30.6667 65.2985 30.6667 65.6667V70.3333H29.3334V65.6667Z"/>
</mask>
<path d="M30.6667 70.3333V72.3333H32.6667V70.3333H30.6667ZM29.3334 70.3333H27.3334V72.3333H29.3334V70.3333ZM28.6667 65.6667V70.3333H32.6667V65.6667H28.6667ZM30.6667 68.3333H29.3334V72.3333H30.6667V68.3333ZM31.3334 70.3333V65.6667H27.3334V70.3333H31.3334ZM30 67C29.2637 67 28.6667 66.403 28.6667 65.6667H32.6667C32.6667 64.1939 31.4728 63 30 63V67ZM30 63C28.5273 63 27.3334 64.1939 27.3334 65.6667H31.3334C31.3334 66.403 30.7364 67 30 67V63Z" fill="black" mask="url(#path-60-inside-27)"/>
<mask id="path-62-inside-28" mask-type="luminance" fill="white">
<path d="M40 65.6667C40 65.2985 40.2985 65 40.6667 65C41.0349 65 41.3333 65.2985 41.3333 65.6667V70.3333H40V65.6667Z"/>
</mask>
<path d="M41.3333 70.3333V72.3333H43.3333V70.3333H41.3333ZM40 70.3333H38V72.3333H40V70.3333ZM39.3333 65.6667V70.3333H43.3333V65.6667H39.3333ZM41.3333 68.3333H40V72.3333H41.3333V68.3333ZM42 70.3333V65.6667H38V70.3333H42ZM40.6667 67C39.9303 67 39.3333 66.403 39.3333 65.6667H43.3333C43.3333 64.1939 42.1394 63 40.6667 63V67ZM40.6667 63C39.1939 63 38 64.1939 38 65.6667H42C42 66.403 41.403 67 40.6667 67V63Z" fill="black" mask="url(#path-62-inside-28)"/>
<mask id="path-64-inside-29" mask-type="luminance" fill="white">
<path d="M42.6667 65.6667C42.6667 65.2985 42.9652 65 43.3334 65C43.7015 65 44 65.2985 44 65.6667V70.3333H42.6667V65.6667Z"/>
</mask>
<path d="M44 70.3333V72.3333H46V70.3333H44ZM42.6667 70.3333H40.6667V72.3333H42.6667V70.3333ZM42 65.6667V70.3333H46V65.6667H42ZM44 68.3333H42.6667V72.3333H44V68.3333ZM44.6667 70.3333V65.6667H40.6667V70.3333H44.6667ZM43.3334 67C42.597 67 42 66.403 42 65.6667H46C46 64.1939 44.8061 63 43.3334 63V67ZM43.3334 63C41.8606 63 40.6667 64.1939 40.6667 65.6667H44.6667C44.6667 66.403 44.0697 67 43.3334 67V63Z" fill="black" mask="url(#path-64-inside-29)"/>
</mask>
<g mask="url(#mask0)">
<path d="M-5.55554 29H105.556V72.3333H-5.55554V29Z" fill="url(#paint0_linear)"/>
</g>
<defs>
<linearGradient id="paint0_linear" x1="50" y1="29" x2="50" y2="72.3333" gradientUnits="userSpaceOnUse">
<stop stop-color="#AD00FF"/>
<stop offset="1" stop-color="#0057FF"/>
</linearGradient>
</defs>
</svg>
