<svg width="100" height="43" viewBox="0 0 100 43" fill="none" xmlns="http://www.w3.org/2000/svg">
<mask id="mask0" mask-type="alpha" maskUnits="userSpaceOnUse" x="0" y="0" width="100" height="43">
<mask id="path-1-inside-1" mask-type="luminance" fill="white">
<path fill-rule="evenodd" clip-rule="evenodd" d="M0 2C0 0.895431 0.895429 0 2 0H98C99.1046 0 100 0.895431 100 2V6V6C100 6.36819 99.6985 6.65971 99.3376 6.73248C97.814 7.03968 96.6667 8.38586 96.6667 10C96.6667 11.6141 97.814 12.9603 99.3376 13.2675C99.6985 13.3403 100 13.6318 100 14V14V31.3333C100 32.4379 99.1046 33.3333 98 33.3333H2C0.89543 33.3333 0 32.4379 0 31.3333V14.2296C0 14.0786 0.0351569 13.9297 0.102687 13.7946V13.7946C0.251677 13.4966 0.546029 13.3059 0.867771 13.2194C2.2883 12.8378 3.33401 11.541 3.33401 10C3.33401 8.45898 2.2883 7.1622 0.867773 6.78056C0.54603 6.69412 0.251677 6.50335 0.102687 6.20537V6.20537C0.035157 6.07031 0 5.92139 0 5.77039V2Z"/>
</mask>
<path d="M0.867771 13.2194L0.348847 11.2879L0.867771 13.2194ZM99.3376 6.73248L99.7329 8.69303L99.3376 6.73248ZM0.867773 6.78056L1.3867 4.84905L0.867773 6.78056ZM99.3376 13.2675L99.7329 11.307L99.3376 13.2675ZM98 -2H2V2H98V-2ZM102 6V2H98V6H102ZM98.6667 10C98.6667 9.35666 99.1243 8.81574 99.7329 8.69303L98.9423 4.77194C96.5036 5.26363 94.6667 7.41506 94.6667 10H98.6667ZM99.7329 11.307C99.1243 11.1843 98.6667 10.6433 98.6667 10H94.6667C94.6667 12.5849 96.5036 14.7364 98.9423 15.2281L99.7329 11.307ZM102 31.3333V14H98V31.3333H102ZM2 35.3333H98V31.3333H2V35.3333ZM-2 14.2296V31.3333H2V14.2296H-2ZM1.33401 10C1.33401 10.6136 0.917766 11.1351 0.348847 11.2879L1.3867 15.1509C3.65884 14.5405 5.33401 12.4684 5.33401 10H1.33401ZM0.348848 8.71207C0.917766 8.86491 1.33401 9.3864 1.33401 10H5.33401C5.33401 7.53156 3.65884 5.45949 1.3867 4.84905L0.348848 8.71207ZM-2 2V5.77039H2V2H-2ZM1.89154 5.31095C1.96287 5.4536 2 5.6109 2 5.77039H-2C-2 6.23188 -1.89255 6.68703 -1.68617 7.0998L1.89154 5.31095ZM1.89154 14.6891C1.71305 15.046 1.44016 15.1366 1.3867 15.1509L0.348847 11.2879C-0.348105 11.4752 -1.2097 11.9473 -1.68617 12.9002L1.89154 14.6891ZM2 14.2296C2 14.3891 1.96287 14.5464 1.89154 14.6891L-1.68617 12.9002C-1.89255 13.313 -2 13.7681 -2 14.2296H2ZM2 31.3333L2 31.3333H-2C-2 33.5425 -0.209142 35.3333 2 35.3333V31.3333ZM98 31.3333L98 31.3333V35.3333C100.209 35.3333 102 33.5425 102 31.3333H98ZM98 6C98 5.61276 98.1639 5.3016 98.3478 5.1062C98.5225 4.92064 98.7327 4.81419 98.9423 4.77194L99.7329 8.69303C100.784 8.48118 102 7.54873 102 6H98ZM1.3867 4.84905C1.44017 4.86342 1.71305 4.95397 1.89154 5.31095L-1.68617 7.0998C-1.2097 8.05274 -0.348105 8.52482 0.348848 8.71207L1.3867 4.84905ZM2 -2C-0.209143 -2 -2 -0.209136 -2 2H2L2 2V-2ZM98.9423 15.2281C98.7327 15.1858 98.5225 15.0794 98.3478 14.8938C98.1639 14.6984 98 14.3872 98 14H102C102 12.4513 100.784 11.5188 99.7329 11.307L98.9423 15.2281ZM98 2L98 2H102C102 -0.209139 100.209 -2 98 -2V2Z" fill="black" mask="url(#path-1-inside-1)"/>
<rect x="13.3333" y="6.66663" width="13.3333" height="20" rx="1" stroke="black" stroke-width="2"/>
<rect x="33.3333" y="6.66663" width="13.3333" height="20" rx="1" stroke="black" stroke-width="2"/>
<rect x="53.3333" y="6.66663" width="13.3333" height="20" rx="1" stroke="black" stroke-width="2"/>
<rect x="73.3333" y="6.66663" width="13.3333" height="20" rx="1" stroke="black" stroke-width="2"/>
<path d="M53.3333 33.3334V39.3334C53.3333 40.4379 54.2287 41.3334 55.3333 41.3334H92.6666C93.7712 41.3334 94.6666 40.4379 94.6666 39.3334V33.3334" stroke="black" stroke-width="2"/>
<mask id="path-8-inside-2" mask-type="luminance" fill="white">
<path d="M58.6666 36.6667C58.6666 36.2985 58.9651 36 59.3333 36V36C59.7015 36 60 36.2985 60 36.6667V41.3333H58.6666V36.6667Z"/>
</mask>
<path d="M60 41.3333V43.3333H62V41.3333H60ZM58.6666 41.3333H56.6666V43.3333H58.6666V41.3333ZM58 36.6667V41.3333H62V36.6667H58ZM60 39.3333H58.6666V43.3333H60V39.3333ZM60.6666 41.3333V36.6667H56.6666V41.3333H60.6666ZM59.3333 38C58.5969 38 58 37.403 58 36.6667H62C62 35.1939 60.8061 34 59.3333 34V38ZM59.3333 34C57.8605 34 56.6666 35.1939 56.6666 36.6667H60.6666C60.6666 37.403 60.0697 38 59.3333 38V34Z" fill="black" mask="url(#path-8-inside-2)"/>
<mask id="path-10-inside-3" mask-type="luminance" fill="white">
<path d="M56 36.6667C56 36.2985 56.2985 36 56.6667 36V36C57.0349 36 57.3333 36.2985 57.3333 36.6667V41.3333H56V36.6667Z"/>
</mask>
<path d="M57.3333 41.3333V43.3333H59.3333V41.3333H57.3333ZM56 41.3333H54V43.3333H56V41.3333ZM55.3333 36.6667V41.3333H59.3333V36.6667H55.3333ZM57.3333 39.3333H56V43.3333H57.3333V39.3333ZM58 41.3333V36.6667H54V41.3333H58ZM56.6667 38C55.9303 38 55.3333 37.403 55.3333 36.6667H59.3333C59.3333 35.1939 58.1394 34 56.6667 34V38ZM56.6667 34C55.1939 34 54 35.1939 54 36.6667H58C58 37.403 57.403 38 56.6667 38V34Z" fill="black" mask="url(#path-10-inside-3)"/>
<mask id="path-12-inside-4" mask-type="luminance" fill="white">
<path d="M69.3334 36.6667C69.3334 36.2985 69.6319 36 70 36V36C70.3682 36 70.6667 36.2985 70.6667 36.6667V41.3333H69.3334V36.6667Z"/>
</mask>
<path d="M70.6667 41.3333V43.3333H72.6667V41.3333H70.6667ZM69.3334 41.3333H67.3334V43.3333H69.3334V41.3333ZM68.6667 36.6667V41.3333H72.6667V36.6667H68.6667ZM70.6667 39.3333H69.3334V43.3333H70.6667V39.3333ZM71.3334 41.3333V36.6667H67.3334V41.3333H71.3334ZM70 38C69.2637 38 68.6667 37.403 68.6667 36.6667H72.6667C72.6667 35.1939 71.4728 34 70 34V38ZM70 34C68.5273 34 67.3334 35.1939 67.3334 36.6667H71.3334C71.3334 37.403 70.7364 38 70 38V34Z" fill="black" mask="url(#path-12-inside-4)"/>
<mask id="path-14-inside-5" mask-type="luminance" fill="white">
<path d="M80 36.6667C80 36.2985 80.2985 36 80.6667 36V36C81.0349 36 81.3333 36.2985 81.3333 36.6667V41.3333H80V36.6667Z"/>
</mask>
<path d="M81.3333 41.3333V43.3333H83.3333V41.3333H81.3333ZM80 41.3333H78V43.3333H80V41.3333ZM79.3333 36.6667V41.3333H83.3333V36.6667H79.3333ZM81.3333 39.3333H80V43.3333H81.3333V39.3333ZM82 41.3333V36.6667H78V41.3333H82ZM80.6667 38C79.9303 38 79.3333 37.403 79.3333 36.6667H83.3333C83.3333 35.1939 82.1394 34 80.6667 34V38ZM80.6667 34C79.1939 34 78 35.1939 78 36.6667H82C82 37.403 81.403 38 80.6667 38V34Z" fill="black" mask="url(#path-14-inside-5)"/>
<mask id="path-16-inside-6" mask-type="luminance" fill="white">
<path d="M61.3334 36.6667C61.3334 36.2985 61.6319 36 62 36V36C62.3682 36 62.6667 36.2985 62.6667 36.6667V41.3333H61.3334V36.6667Z"/>
</mask>
<path d="M62.6667 41.3333V43.3333H64.6667V41.3333H62.6667ZM61.3334 41.3333H59.3334V43.3333H61.3334V41.3333ZM60.6667 36.6667V41.3333H64.6667V36.6667H60.6667ZM62.6667 39.3333H61.3334V43.3333H62.6667V39.3333ZM63.3334 41.3333V36.6667H59.3334V41.3333H63.3334ZM62 38C61.2637 38 60.6667 37.403 60.6667 36.6667H64.6667C64.6667 35.1939 63.4728 34 62 34V38ZM62 34C60.5273 34 59.3334 35.1939 59.3334 36.6667H63.3334C63.3334 37.403 62.7364 38 62 38V34Z" fill="black" mask="url(#path-16-inside-6)"/>
<mask id="path-18-inside-7" mask-type="luminance" fill="white">
<path d="M72 36.6667C72 36.2985 72.2985 36 72.6667 36V36C73.0349 36 73.3333 36.2985 73.3333 36.6667V41.3333H72V36.6667Z"/>
</mask>
<path d="M73.3333 41.3333V43.3333H75.3333V41.3333H73.3333ZM72 41.3333H70V43.3333H72V41.3333ZM71.3333 36.6667V41.3333H75.3333V36.6667H71.3333ZM73.3333 39.3333H72V43.3333H73.3333V39.3333ZM74 41.3333V36.6667H70V41.3333H74ZM72.6667 38C71.9303 38 71.3333 37.403 71.3333 36.6667H75.3333C75.3333 35.1939 74.1394 34 72.6667 34V38ZM72.6667 34C71.1939 34 70 35.1939 70 36.6667H74C74 37.403 73.403 38 72.6667 38V34Z" fill="black" mask="url(#path-18-inside-7)"/>
<mask id="path-20-inside-8" mask-type="luminance" fill="white">
<path d="M82.6667 36.6667C82.6667 36.2985 82.9652 36 83.3334 36V36C83.7015 36 84 36.2985 84 36.6667V41.3333H82.6667V36.6667Z"/>
</mask>
<path d="M84 41.3333V43.3333H86V41.3333H84ZM82.6667 41.3333H80.6667V43.3333H82.6667V41.3333ZM82 36.6667V41.3333H86V36.6667H82ZM84 39.3333H82.6667V43.3333H84V39.3333ZM84.6667 41.3333V36.6667H80.6667V41.3333H84.6667ZM83.3334 38C82.597 38 82 37.403 82 36.6667H86C86 35.1939 84.8061 34 83.3334 34V38ZM83.3334 34C81.8606 34 80.6667 35.1939 80.6667 36.6667H84.6667C84.6667 37.403 84.0697 38 83.3334 38V34Z" fill="black" mask="url(#path-20-inside-8)"/>
<mask id="path-22-inside-9" mask-type="luminance" fill="white">
<path d="M64 36.6667C64 36.2985 64.2985 36 64.6667 36V36C65.0349 36 65.3333 36.2985 65.3333 36.6667V41.3333H64V36.6667Z"/>
</mask>
<path d="M65.3333 41.3333V43.3333H67.3333V41.3333H65.3333ZM64 41.3333H62V43.3333H64V41.3333ZM63.3333 36.6667V41.3333H67.3333V36.6667H63.3333ZM65.3333 39.3333H64V43.3333H65.3333V39.3333ZM66 41.3333V36.6667H62V41.3333H66ZM64.6667 38C63.9303 38 63.3333 37.403 63.3333 36.6667H67.3333C67.3333 35.1939 66.1394 34 64.6667 34V38ZM64.6667 34C63.1939 34 62 35.1939 62 36.6667H66C66 37.403 65.403 38 64.6667 38V34Z" fill="black" mask="url(#path-22-inside-9)"/>
<mask id="path-24-inside-10" mask-type="luminance" fill="white">
<path d="M74.6667 36.6667C74.6667 36.2985 74.9652 36 75.3334 36V36C75.7015 36 76 36.2985 76 36.6667V41.3333H74.6667V36.6667Z"/>
</mask>
<path d="M76 41.3333V43.3333H78V41.3333H76ZM74.6667 41.3333H72.6667V43.3333H74.6667V41.3333ZM74 36.6667V41.3333H78V36.6667H74ZM76 39.3333H74.6667V43.3333H76V39.3333ZM76.6667 41.3333V36.6667H72.6667V41.3333H76.6667ZM75.3334 38C74.597 38 74 37.403 74 36.6667H78C78 35.1939 76.8061 34 75.3334 34V38ZM75.3334 34C73.8606 34 72.6667 35.1939 72.6667 36.6667H76.6667C76.6667 37.403 76.0697 38 75.3334 38V34Z" fill="black" mask="url(#path-24-inside-10)"/>
<mask id="path-26-inside-11" mask-type="luminance" fill="white">
<path d="M85.3333 36.6667C85.3333 36.2985 85.6318 36 86 36V36C86.3682 36 86.6666 36.2985 86.6666 36.6667V41.3333H85.3333V36.6667Z"/>
</mask>
<path d="M86.6666 41.3333V43.3333H88.6666V41.3333H86.6666ZM85.3333 41.3333H83.3333V43.3333H85.3333V41.3333ZM84.6666 36.6667V41.3333H88.6666V36.6667H84.6666ZM86.6666 39.3333H85.3333V43.3333H86.6666V39.3333ZM87.3333 41.3333V36.6667H83.3333V41.3333H87.3333ZM86 38C85.2636 38 84.6666 37.403 84.6666 36.6667H88.6666C88.6666 35.1939 87.4727 34 86 34V38ZM86 34C84.5272 34 83.3333 35.1939 83.3333 36.6667H87.3333C87.3333 37.403 86.7364 38 86 38V34Z" fill="black" mask="url(#path-26-inside-11)"/>
<mask id="path-28-inside-12" mask-type="luminance" fill="white">
<path d="M66.6667 36.6667C66.6667 36.2985 66.9652 36 67.3334 36V36C67.7015 36 68 36.2985 68 36.6667V41.3333H66.6667V36.6667Z"/>
</mask>
<path d="M68 41.3333V43.3333H70V41.3333H68ZM66.6667 41.3333H64.6667V43.3333H66.6667V41.3333ZM66 36.6667V41.3333H70V36.6667H66ZM68 39.3333H66.6667V43.3333H68V39.3333ZM68.6667 41.3333V36.6667H64.6667V41.3333H68.6667ZM67.3334 38C66.597 38 66 37.403 66 36.6667H70C70 35.1939 68.8061 34 67.3334 34V38ZM67.3334 34C65.8606 34 64.6667 35.1939 64.6667 36.6667H68.6667C68.6667 37.403 68.0697 38 67.3334 38V34Z" fill="black" mask="url(#path-28-inside-12)"/>
<mask id="path-30-inside-13" mask-type="luminance" fill="white">
<path d="M77.3333 36.6667C77.3333 36.2985 77.6318 36 78 36V36C78.3682 36 78.6666 36.2985 78.6666 36.6667V41.3333H77.3333V36.6667Z"/>
</mask>
<path d="M78.6666 41.3333V43.3333H80.6666V41.3333H78.6666ZM77.3333 41.3333H75.3333V43.3333H77.3333V41.3333ZM76.6666 36.6667V41.3333H80.6666V36.6667H76.6666ZM78.6666 39.3333H77.3333V43.3333H78.6666V39.3333ZM79.3333 41.3333V36.6667H75.3333V41.3333H79.3333ZM78 38C77.2636 38 76.6666 37.403 76.6666 36.6667H80.6666C80.6666 35.1939 79.4727 34 78 34V38ZM78 34C76.5272 34 75.3333 35.1939 75.3333 36.6667H79.3333C79.3333 37.403 78.7364 38 78 38V34Z" fill="black" mask="url(#path-30-inside-13)"/>
<mask id="path-32-inside-14" mask-type="luminance" fill="white">
<path d="M88 36.6667C88 36.2985 88.2985 36 88.6667 36V36C89.0349 36 89.3333 36.2985 89.3333 36.6667V41.3333H88V36.6667Z"/>
</mask>
<path d="M89.3333 41.3333V43.3333H91.3333V41.3333H89.3333ZM88 41.3333H86V43.3333H88V41.3333ZM87.3333 36.6667V41.3333H91.3333V36.6667H87.3333ZM89.3333 39.3333H88V43.3333H89.3333V39.3333ZM90 41.3333V36.6667H86V41.3333H90ZM88.6667 38C87.9303 38 87.3333 37.403 87.3333 36.6667H91.3333C91.3333 35.1939 90.1394 34 88.6667 34V38ZM88.6667 34C87.1939 34 86 35.1939 86 36.6667H90C90 37.403 89.403 38 88.6667 38V34Z" fill="black" mask="url(#path-32-inside-14)"/>
<mask id="path-34-inside-15" mask-type="luminance" fill="white">
<path d="M90.6666 36.6667C90.6666 36.2985 90.9651 36 91.3333 36V36C91.7015 36 92 36.2985 92 36.6667V41.3333H90.6666V36.6667Z"/>
</mask>
<path d="M92 41.3333V43.3333H94V41.3333H92ZM90.6666 41.3333H88.6666V43.3333H90.6666V41.3333ZM90 36.6667V41.3333H94V36.6667H90ZM92 39.3333H90.6666V43.3333H92V39.3333ZM92.6666 41.3333V36.6667H88.6666V41.3333H92.6666ZM91.3333 38C90.5969 38 90 37.403 90 36.6667H94C94 35.1939 92.8061 34 91.3333 34V38ZM91.3333 34C89.8605 34 88.6666 35.1939 88.6666 36.6667H92.6666C92.6666 37.403 92.0697 38 91.3333 38V34Z" fill="black" mask="url(#path-34-inside-15)"/>
<path d="M5.33331 33.3334V39.3334C5.33331 40.4379 6.22874 41.3334 7.33331 41.3334H44.6666C45.7712 41.3334 46.6666 40.4379 46.6666 39.3334V33.3334" stroke="black" stroke-width="2"/>
<mask id="path-37-inside-16" mask-type="luminance" fill="white">
<path d="M10.6666 36.6667C10.6666 36.2985 10.9651 36 11.3333 36V36C11.7015 36 12 36.2985 12 36.6667V41.3333H10.6666V36.6667Z"/>
</mask>
<path d="M12 41.3333V43.3333H14V41.3333H12ZM10.6666 41.3333H8.66663V43.3333H10.6666V41.3333ZM9.99996 36.6667V41.3333H14V36.6667H9.99996ZM12 39.3333H10.6666V43.3333H12V39.3333ZM12.6666 41.3333V36.6667H8.66663V41.3333H12.6666ZM11.3333 38C10.5969 38 9.99996 37.403 9.99996 36.6667H14C14 35.1939 12.8061 34 11.3333 34V38ZM11.3333 34C9.86053 34 8.66663 35.1939 8.66663 36.6667H12.6666C12.6666 37.403 12.0697 38 11.3333 38V34Z" fill="black" mask="url(#path-37-inside-16)"/>
<mask id="path-39-inside-17" mask-type="luminance" fill="white">
<path d="M8 36.6667C8 36.2985 8.29848 36 8.66667 36V36C9.03486 36 9.33333 36.2985 9.33333 36.6667V41.3333H8V36.6667Z"/>
</mask>
<path d="M9.33333 41.3333V43.3333H11.3333V41.3333H9.33333ZM8 41.3333H6V43.3333H8V41.3333ZM7.33333 36.6667V41.3333H11.3333V36.6667H7.33333ZM9.33333 39.3333H8V43.3333H9.33333V39.3333ZM10 41.3333V36.6667H6V41.3333H10ZM8.66667 38C7.93029 38 7.33333 37.403 7.33333 36.6667H11.3333C11.3333 35.1939 10.1394 34 8.66667 34V38ZM8.66667 34C7.1939 34 6 35.1939 6 36.6667H10C10 37.403 9.40305 38 8.66667 38V34Z" fill="black" mask="url(#path-39-inside-17)"/>
<mask id="path-41-inside-18" mask-type="luminance" fill="white">
<path d="M21.3334 36.6667C21.3334 36.2985 21.6319 36 22 36V36C22.3682 36 22.6667 36.2985 22.6667 36.6667V41.3333H21.3334V36.6667Z"/>
</mask>
<path d="M22.6667 41.3333V43.3333H24.6667V41.3333H22.6667ZM21.3334 41.3333H19.3334V43.3333H21.3334V41.3333ZM20.6667 36.6667V41.3333H24.6667V36.6667H20.6667ZM22.6667 39.3333H21.3334V43.3333H22.6667V39.3333ZM23.3334 41.3333V36.6667H19.3334V41.3333H23.3334ZM22 38C21.2637 38 20.6667 37.403 20.6667 36.6667H24.6667C24.6667 35.1939 23.4728 34 22 34V38ZM22 34C20.5273 34 19.3334 35.1939 19.3334 36.6667H23.3334C23.3334 37.403 22.7364 38 22 38V34Z" fill="black" mask="url(#path-41-inside-18)"/>
<mask id="path-43-inside-19" mask-type="luminance" fill="white">
<path d="M32 36.6667C32 36.2985 32.2985 36 32.6667 36V36C33.0349 36 33.3333 36.2985 33.3333 36.6667V41.3333H32V36.6667Z"/>
</mask>
<path d="M33.3333 41.3333V43.3333H35.3333V41.3333H33.3333ZM32 41.3333H30V43.3333H32V41.3333ZM31.3333 36.6667V41.3333H35.3333V36.6667H31.3333ZM33.3333 39.3333H32V43.3333H33.3333V39.3333ZM34 41.3333V36.6667H30V41.3333H34ZM32.6667 38C31.9303 38 31.3333 37.403 31.3333 36.6667H35.3333C35.3333 35.1939 34.1394 34 32.6667 34V38ZM32.6667 34C31.1939 34 30 35.1939 30 36.6667H34C34 37.403 33.403 38 32.6667 38V34Z" fill="black" mask="url(#path-43-inside-19)"/>
<mask id="path-45-inside-20" mask-type="luminance" fill="white">
<path d="M13.3333 36.6667C13.3333 36.2985 13.6318 36 14 36V36C14.3682 36 14.6666 36.2985 14.6666 36.6667V41.3333H13.3333V36.6667Z"/>
</mask>
<path d="M14.6666 41.3333V43.3333H16.6666V41.3333H14.6666ZM13.3333 41.3333H11.3333V43.3333H13.3333V41.3333ZM12.6666 36.6667V41.3333H16.6666V36.6667H12.6666ZM14.6666 39.3333H13.3333V43.3333H14.6666V39.3333ZM15.3333 41.3333V36.6667H11.3333V41.3333H15.3333ZM14 38C13.2636 38 12.6666 37.403 12.6666 36.6667H16.6666C16.6666 35.1939 15.4727 34 14 34V38ZM14 34C12.5272 34 11.3333 35.1939 11.3333 36.6667H15.3333C15.3333 37.403 14.7364 38 14 38V34Z" fill="black" mask="url(#path-45-inside-20)"/>
<mask id="path-47-inside-21" mask-type="luminance" fill="white">
<path d="M24 36.6667C24 36.2985 24.2985 36 24.6667 36V36C25.0349 36 25.3333 36.2985 25.3333 36.6667V41.3333H24V36.6667Z"/>
</mask>
<path d="M25.3333 41.3333V43.3333H27.3333V41.3333H25.3333ZM24 41.3333H22V43.3333H24V41.3333ZM23.3333 36.6667V41.3333H27.3333V36.6667H23.3333ZM25.3333 39.3333H24V43.3333H25.3333V39.3333ZM26 41.3333V36.6667H22V41.3333H26ZM24.6667 38C23.9303 38 23.3333 37.403 23.3333 36.6667H27.3333C27.3333 35.1939 26.1394 34 24.6667 34V38ZM24.6667 34C23.1939 34 22 35.1939 22 36.6667H26C26 37.403 25.403 38 24.6667 38V34Z" fill="black" mask="url(#path-47-inside-21)"/>
<mask id="path-49-inside-22" mask-type="luminance" fill="white">
<path d="M34.6667 36.6667C34.6667 36.2985 34.9652 36 35.3334 36V36C35.7015 36 36 36.2985 36 36.6667V41.3333H34.6667V36.6667Z"/>
</mask>
<path d="M36 41.3333V43.3333H38V41.3333H36ZM34.6667 41.3333H32.6667V43.3333H34.6667V41.3333ZM34 36.6667V41.3333H38V36.6667H34ZM36 39.3333H34.6667V43.3333H36V39.3333ZM36.6667 41.3333V36.6667H32.6667V41.3333H36.6667ZM35.3334 38C34.597 38 34 37.403 34 36.6667H38C38 35.1939 36.8061 34 35.3334 34V38ZM35.3334 34C33.8606 34 32.6667 35.1939 32.6667 36.6667H36.6667C36.6667 37.403 36.0697 38 35.3334 38V34Z" fill="black" mask="url(#path-49-inside-22)"/>
<mask id="path-51-inside-23" mask-type="luminance" fill="white">
<path d="M16 36.6667C16 36.2985 16.2985 36 16.6667 36V36C17.0349 36 17.3333 36.2985 17.3333 36.6667V41.3333H16V36.6667Z"/>
</mask>
<path d="M17.3333 41.3333V43.3333H19.3333V41.3333H17.3333ZM16 41.3333H14V43.3333H16V41.3333ZM15.3333 36.6667V41.3333H19.3333V36.6667H15.3333ZM17.3333 39.3333H16V43.3333H17.3333V39.3333ZM18 41.3333V36.6667H14V41.3333H18ZM16.6667 38C15.9303 38 15.3333 37.403 15.3333 36.6667H19.3333C19.3333 35.1939 18.1394 34 16.6667 34V38ZM16.6667 34C15.1939 34 14 35.1939 14 36.6667H18C18 37.403 17.403 38 16.6667 38V34Z" fill="black" mask="url(#path-51-inside-23)"/>
<mask id="path-53-inside-24" mask-type="luminance" fill="white">
<path d="M26.6667 36.6667C26.6667 36.2985 26.9652 36 27.3334 36V36C27.7015 36 28 36.2985 28 36.6667V41.3333H26.6667V36.6667Z"/>
</mask>
<path d="M28 41.3333V43.3333H30V41.3333H28ZM26.6667 41.3333H24.6667V43.3333H26.6667V41.3333ZM26 36.6667V41.3333H30V36.6667H26ZM28 39.3333H26.6667V43.3333H28V39.3333ZM28.6667 41.3333V36.6667H24.6667V41.3333H28.6667ZM27.3334 38C26.597 38 26 37.403 26 36.6667H30C30 35.1939 28.8061 34 27.3334 34V38ZM27.3334 34C25.8606 34 24.6667 35.1939 24.6667 36.6667H28.6667C28.6667 37.403 28.0697 38 27.3334 38V34Z" fill="black" mask="url(#path-53-inside-24)"/>
<mask id="path-55-inside-25" mask-type="luminance" fill="white">
<path d="M37.3333 36.6667C37.3333 36.2985 37.6318 36 38 36V36C38.3682 36 38.6666 36.2985 38.6666 36.6667V41.3333H37.3333V36.6667Z"/>
</mask>
<path d="M38.6666 41.3333V43.3333H40.6666V41.3333H38.6666ZM37.3333 41.3333H35.3333V43.3333H37.3333V41.3333ZM36.6666 36.6667V41.3333H40.6666V36.6667H36.6666ZM38.6666 39.3333H37.3333V43.3333H38.6666V39.3333ZM39.3333 41.3333V36.6667H35.3333V41.3333H39.3333ZM38 38C37.2636 38 36.6666 37.403 36.6666 36.6667H40.6666C40.6666 35.1939 39.4727 34 38 34V38ZM38 34C36.5272 34 35.3333 35.1939 35.3333 36.6667H39.3333C39.3333 37.403 38.7364 38 38 38V34Z" fill="black" mask="url(#path-55-inside-25)"/>
<mask id="path-57-inside-26" mask-type="luminance" fill="white">
<path d="M18.6666 36.6667C18.6666 36.2985 18.9651 36 19.3333 36V36C19.7015 36 20 36.2985 20 36.6667V41.3333H18.6666V36.6667Z"/>
</mask>
<path d="M20 41.3333V43.3333H22V41.3333H20ZM18.6666 41.3333H16.6666V43.3333H18.6666V41.3333ZM18 36.6667V41.3333H22V36.6667H18ZM20 39.3333H18.6666V43.3333H20V39.3333ZM20.6666 41.3333V36.6667H16.6666V41.3333H20.6666ZM19.3333 38C18.5969 38 18 37.403 18 36.6667H22C22 35.1939 20.8061 34 19.3333 34V38ZM19.3333 34C17.8605 34 16.6666 35.1939 16.6666 36.6667H20.6666C20.6666 37.403 20.0697 38 19.3333 38V34Z" fill="black" mask="url(#path-57-inside-26)"/>
<mask id="path-59-inside-27" mask-type="luminance" fill="white">
<path d="M29.3334 36.6667C29.3334 36.2985 29.6319 36 30 36V36C30.3682 36 30.6667 36.2985 30.6667 36.6667V41.3333H29.3334V36.6667Z"/>
</mask>
<path d="M30.6667 41.3333V43.3333H32.6667V41.3333H30.6667ZM29.3334 41.3333H27.3334V43.3333H29.3334V41.3333ZM28.6667 36.6667V41.3333H32.6667V36.6667H28.6667ZM30.6667 39.3333H29.3334V43.3333H30.6667V39.3333ZM31.3334 41.3333V36.6667H27.3334V41.3333H31.3334ZM30 38C29.2637 38 28.6667 37.403 28.6667 36.6667H32.6667C32.6667 35.1939 31.4728 34 30 34V38ZM30 34C28.5273 34 27.3334 35.1939 27.3334 36.6667H31.3334C31.3334 37.403 30.7364 38 30 38V34Z" fill="black" mask="url(#path-59-inside-27)"/>
<mask id="path-61-inside-28" mask-type="luminance" fill="white">
<path d="M40 36.6667C40 36.2985 40.2985 36 40.6667 36V36C41.0349 36 41.3333 36.2985 41.3333 36.6667V41.3333H40V36.6667Z"/>
</mask>
<path d="M41.3333 41.3333V43.3333H43.3333V41.3333H41.3333ZM40 41.3333H38V43.3333H40V41.3333ZM39.3333 36.6667V41.3333H43.3333V36.6667H39.3333ZM41.3333 39.3333H40V43.3333H41.3333V39.3333ZM42 41.3333V36.6667H38V41.3333H42ZM40.6667 38C39.9303 38 39.3333 37.403 39.3333 36.6667H43.3333C43.3333 35.1939 42.1394 34 40.6667 34V38ZM40.6667 34C39.1939 34 38 35.1939 38 36.6667H42C42 37.403 41.403 38 40.6667 38V34Z" fill="black" mask="url(#path-61-inside-28)"/>
<mask id="path-63-inside-29" mask-type="luminance" fill="white">
<path d="M42.6667 36.6667C42.6667 36.2985 42.9652 36 43.3334 36V36C43.7015 36 44 36.2985 44 36.6667V41.3333H42.6667V36.6667Z"/>
</mask>
<path d="M44 41.3333V43.3333H46V41.3333H44ZM42.6667 41.3333H40.6667V43.3333H42.6667V41.3333ZM42 36.6667V41.3333H46V36.6667H42ZM44 39.3333H42.6667V43.3333H44V39.3333ZM44.6667 41.3333V36.6667H40.6667V41.3333H44.6667ZM43.3334 38C42.597 38 42 37.403 42 36.6667H46C46 35.1939 44.8061 34 43.3334 34V38ZM43.3334 34C41.8606 34 40.6667 35.1939 40.6667 36.6667H44.6667C44.6667 37.403 44.0697 38 43.3334 38V34Z" fill="black" mask="url(#path-63-inside-29)"/>
</mask>
<g mask="url(#mask0)">
<path d="M-5.55554 0H105.556V43.3333H-5.55554V0Z" fill="url(#paint0_linear)"/>
</g>
<defs>
<linearGradient id="paint0_linear" x1="50" y1="0" x2="50" y2="43.3333" gradientUnits="userSpaceOnUse">
<stop stop-color="#AD00FF"/>
<stop offset="1" stop-color="#0057FF"/>
</linearGradient>
</defs>
</svg>
