<svg width="100" height="100" viewBox="0 0 100 100" fill="none" xmlns="http://www.w3.org/2000/svg">
<rect width="100" height="100" fill="white"/>
<mask id="mask0" mask-type="alpha" maskUnits="userSpaceOnUse" x="5" y="0" width="90" height="100">
<rect x="6" y="1" width="87.2857" height="98" rx="2" stroke="black" stroke-width="2"/>
<circle cx="49.6429" cy="42.8571" r="9.71429" stroke="black" stroke-width="2"/>
<circle cx="87.1429" cy="92.8571" r="1.78571" fill="#C4C4C4"/>
<circle cx="87.1429" cy="7.14289" r="1.78571" fill="#C4C4C4"/>
<circle cx="12.1429" cy="7.14289" r="1.78571" fill="#C4C4C4"/>
<path d="M37.1429 76.7857C40.7143 77.6785 43.8621 78.5714 49.6429 78.5714C69.3673 78.5714 85.3571 62.5816 85.3571 42.8571C85.3571 23.1327 69.3673 7.14282 49.6429 7.14282C29.9184 7.14282 13.9286 23.1327 13.9286 42.8571C13.9286 53.8343 18.3929 61.6071 24.6429 67.8571" stroke="black" stroke-width="2"/>
<path d="M21.0864 86.4432L11.681 79.2645C11.158 78.8653 11.1564 78.0784 11.6779 77.6771L41.6501 54.6097C42.4217 54.0158 43.5007 54.7628 43.2164 55.6941L31.8427 92.9569C31.6393 93.6234 30.8335 93.8827 30.2796 93.4599L21.0864 86.4432Z" stroke="black" stroke-width="2"/>
</mask>
<g mask="url(#mask0)">
<rect x="-16.4286" width="133.929" height="100" fill="url(#paint0_linear)"/>
</g>
<defs>
<linearGradient id="paint0_linear" x1="50.5357" y1="0" x2="50.5357" y2="100" gradientUnits="userSpaceOnUse">
<stop stop-color="#AD00FF"/>
<stop offset="1" stop-color="#0057FF"/>
</linearGradient>
</defs>
</svg>
